<svg xmlns="http://www.w3.org/2000/svg" version="1.1" width="600px" height="600px" viewBox="0 0 200 200" style="overflow:hidden!important;"><defs id="SvgjsDefs8615"><linearGradient id="SvgjsLinearGradient11484" x1="82.14" y1="87.906" x2="82.14" y2="109.3074" gradientUnits="userSpaceOnUse" class="svga-on-canvas-glasses-gradient-single-0-null"><stop id="SvgjsStop11485" stop-opacity="1" stop-color="#9bc2cf" offset="0" ></stop><stop id="SvgjsStop11486" stop-opacity="0" stop-color="#6086c4" offset="1" ></stop></linearGradient><linearGradient id="SvgjsLinearGradient11488" x1="-17.86" y1="87.906" x2="-17.86" y2="109.3074" gradientTransform="matrix(-1 0 0 1 100 0)" gradientUnits="userSpaceOnUse" class="svga-on-canvas-glasses-gradient-single-1-null"><stop id="SvgjsStop11489" stop-opacity="1" stop-color="#9bc2cf" offset="0" ></stop><stop id="SvgjsStop11490" stop-opacity="0" stop-color="#6086c4" offset="1" ></stop></linearGradient><linearGradient id="SvgjsLinearGradient11532" x1="80.965" y1="115.5409" x2="80.965" y2="91.2475" gradientTransform="matrix(1 0 0 -1 0 202)" gradientUnits="userSpaceOnUse" class="svga-on-canvas-glasses-gradient-single-0-null"><stop id="SvgjsStop11533" stop-opacity="1" stop-color="#899ba1" offset="0" ></stop><stop id="SvgjsStop11534" stop-opacity="0.6554" stop-color="#7490b3" offset="0.3446" ></stop><stop id="SvgjsStop11535" stop-opacity="0.2966" stop-color="#6589c0" offset="0.7034" ></stop><stop id="SvgjsStop11536" stop-opacity="0" stop-color="#6086c4" offset="1" ></stop></linearGradient><linearGradient id="SvgjsLinearGradient11538" x1="-1737.0349" y1="115.5409" x2="-1737.0349" y2="91.2475" gradientTransform="matrix(-1 0 0 -1 -1618 202)" gradientUnits="userSpaceOnUse" class="svga-on-canvas-glasses-gradient-single-1-null"><stop id="SvgjsStop11539" stop-opacity="1" stop-color="#899ba1" offset="0" ></stop><stop id="SvgjsStop11540" stop-opacity="0.6554" stop-color="#7490b3" offset="0.3446" ></stop><stop id="SvgjsStop11541" stop-opacity="0.2966" stop-color="#6589c0" offset="0.7034" ></stop><stop id="SvgjsStop11542" stop-opacity="0" stop-color="#6086c4" offset="1" ></stop></linearGradient><linearGradient id="SvgjsLinearGradient11596" x1="81.2869" y1="113.6762" x2="81.2869" y2="89.427" gradientTransform="matrix(1 0 0 -1 0 202)" gradientUnits="userSpaceOnUse" class="svga-on-canvas-glasses-gradient-single-0-null"><stop id="SvgjsStop11597" stop-opacity="1" stop-color="#3d2d1c" offset="0.0208" ></stop><stop id="SvgjsStop11598" stop-opacity="0.6291" stop-color="#402e1c" offset="0.3825" ></stop><stop id="SvgjsStop11599" stop-opacity="0.3897" stop-color="#48321d" offset="0.6159" ></stop><stop id="SvgjsStop11600" stop-opacity="0.1881" stop-color="#57381f" offset="0.8124" ></stop><stop id="SvgjsStop11601" stop-opacity="7.593334e-03" stop-color="#6c4221" offset="0.9884" ></stop><stop id="SvgjsStop11602" stop-opacity="0" stop-color="#6d4221" offset="0.9958" ></stop></linearGradient><linearGradient id="SvgjsLinearGradient11604" x1="-1736.4185" y1="113.6762" x2="-1736.4185" y2="89.427" gradientTransform="matrix(-1 0 0 -1 -1617.7053 202)" gradientUnits="userSpaceOnUse" class="svga-on-canvas-glasses-gradient-single-1-null"><stop id="SvgjsStop11605" stop-opacity="1" stop-color="#3d2d1c" offset="0.0208" ></stop><stop id="SvgjsStop11606" stop-opacity="0.6291" stop-color="#402e1c" offset="0.3825" ></stop><stop id="SvgjsStop11607" stop-opacity="0.3897" stop-color="#48321d" offset="0.6159" ></stop><stop id="SvgjsStop11608" stop-opacity="0.1881" stop-color="#57381f" offset="0.8124" ></stop><stop id="SvgjsStop11609" stop-opacity="7.593334e-03" stop-color="#6c4221" offset="0.9884" ></stop><stop id="SvgjsStop11610" stop-opacity="0" stop-color="#6d4221" offset="0.9958" ></stop></linearGradient><linearGradient id="SvgjsLinearGradient11678" x1="80.9656" y1="87.264" x2="80.9656" y2="114.3098" gradientUnits="userSpaceOnUse" class="svga-on-canvas-glasses-gradient-single-0-null"><stop id="SvgjsStop11679" stop-opacity="1" stop-color="#ff73b2" offset="0.004166667" ></stop><stop id="SvgjsStop11680" stop-opacity="0.8085" stop-color="#ff75ae" offset="0.1949" ></stop><stop id="SvgjsStop11681" stop-opacity="0.5986" stop-color="#ff79a0" offset="0.4039" ></stop><stop id="SvgjsStop11682" stop-opacity="0.3799" stop-color="#ff818a" offset="0.6217" ></stop><stop id="SvgjsStop11683" stop-opacity="0.1566" stop-color="#ff8b6c" offset="0.844" ></stop><stop id="SvgjsStop11684" stop-opacity="0" stop-color="#ff9452" offset="1" ></stop></linearGradient><linearGradient id="SvgjsLinearGradient11686" x1="-19.0344" y1="87.264" x2="-19.0344" y2="114.3098" gradientTransform="matrix(-1 0 0 1 100 0)" gradientUnits="userSpaceOnUse" class="svga-on-canvas-glasses-gradient-single-1-null"><stop id="SvgjsStop11687" stop-opacity="1" stop-color="#ff73b2" offset="0.004166667" ></stop><stop id="SvgjsStop11688" stop-opacity="0.8085" stop-color="#ff75ae" offset="0.1949" ></stop><stop id="SvgjsStop11689" stop-opacity="0.5986" stop-color="#ff79a0" offset="0.4039" ></stop><stop id="SvgjsStop11690" stop-opacity="0.3799" stop-color="#ff818a" offset="0.6217" ></stop><stop id="SvgjsStop11691" stop-opacity="0.1566" stop-color="#ff8b6c" offset="0.844" ></stop><stop id="SvgjsStop11692" stop-opacity="0" stop-color="#ff9452" offset="1" ></stop></linearGradient><linearGradient id="SvgjsLinearGradient11767" x1="81.0729" y1="112.2763" x2="81.0729" y2="92.4328" gradientTransform="matrix(1 0 0 -1 0 202)" gradientUnits="userSpaceOnUse" class="svga-on-canvas-glasses-gradient-single-0-null"><stop id="SvgjsStop11768" stop-opacity="1" stop-color="#97a1ad" offset="0" ></stop><stop id="SvgjsStop11769" stop-opacity="0.6667" stop-color="#889ab3" offset="0.3333" ></stop><stop id="SvgjsStop11770" stop-opacity="3.130000e-02" stop-color="#6287c3" offset="0.9687" ></stop><stop id="SvgjsStop11771" stop-opacity="0" stop-color="#6086c4" offset="1" ></stop></linearGradient><linearGradient id="SvgjsLinearGradient11773" x1="-1736.927" y1="112.2763" x2="-1736.927" y2="92.4328" gradientTransform="matrix(-1 0 0 -1 -1618 202)" gradientUnits="userSpaceOnUse" class="svga-on-canvas-glasses-gradient-single-1-null"><stop id="SvgjsStop11774" stop-opacity="1" stop-color="#97a1ad" offset="0" ></stop><stop id="SvgjsStop11775" stop-opacity="0.6667" stop-color="#889ab3" offset="0.3333" ></stop><stop id="SvgjsStop11776" stop-opacity="3.130000e-02" stop-color="#6287c3" offset="0.9687" ></stop><stop id="SvgjsStop11777" stop-opacity="0" stop-color="#6086c4" offset="1" ></stop></linearGradient><linearGradient id="SvgjsLinearGradient11833" x1="82.14" y1="87.906" x2="82.14" y2="109.3074" gradientUnits="userSpaceOnUse" class="svga-on-canvas-glasses-gradient-single-0-null"><stop id="SvgjsStop11834" stop-opacity="1" stop-color="#9bc2cf" offset="0" ></stop><stop id="SvgjsStop11835" stop-opacity="0" stop-color="#6086c4" offset="1" ></stop></linearGradient><linearGradient id="SvgjsLinearGradient11837" x1="-17.86" y1="87.906" x2="-17.86" y2="109.3074" gradientTransform="matrix(-1 0 0 1 100 0)" gradientUnits="userSpaceOnUse" class="svga-on-canvas-glasses-gradient-single-1-null"><stop id="SvgjsStop11838" stop-opacity="1" stop-color="#9bc2cf" offset="0" ></stop><stop id="SvgjsStop11839" stop-opacity="0" stop-color="#6086c4" offset="1" ></stop></linearGradient><linearGradient id="SvgjsLinearGradient11881" x1="118.8" y1="82.84" x2="118.8" y2="112.98" gradientUnits="userSpaceOnUse" class="svga-on-canvas-glasses-gradient-single-0-null"><stop id="SvgjsStop11882" stop-opacity="1" stop-color="#b4c0cf" offset="0" ></stop><stop id="SvgjsStop11883" stop-opacity="0.9374" stop-color="#abbace" offset="0.0626" ></stop><stop id="SvgjsStop11884" stop-opacity="0.679" stop-color="#8aa3ca" offset="0.321" ></stop><stop id="SvgjsStop11885" stop-opacity="0.4305" stop-color="#7393c6" offset="0.5695" ></stop><stop id="SvgjsStop11886" stop-opacity="0.1987" stop-color="#6589c5" offset="0.8013" ></stop><stop id="SvgjsStop11887" stop-opacity="0" stop-color="#6086c4" offset="1" ></stop></linearGradient><linearGradient id="SvgjsLinearGradient11889" x1="81.2" y1="82.84" x2="81.2" y2="112.98" gradientUnits="userSpaceOnUse" class="svga-on-canvas-glasses-gradient-single-1-null"><stop id="SvgjsStop11890" stop-opacity="1" stop-color="#b4c0cf" offset="0" ></stop><stop id="SvgjsStop11891" stop-opacity="0.9374" stop-color="#abbace" offset="0.0626" ></stop><stop id="SvgjsStop11892" stop-opacity="0.679" stop-color="#8aa3ca" offset="0.321" ></stop><stop id="SvgjsStop11893" stop-opacity="0.4305" stop-color="#7393c6" offset="0.5695" ></stop><stop id="SvgjsStop11894" stop-opacity="0.1987" stop-color="#6589c5" offset="0.8013" ></stop><stop id="SvgjsStop11895" stop-opacity="0" stop-color="#6086c4" offset="1" ></stop></linearGradient><linearGradient id="SvgjsLinearGradient11961" x1="81.9825" y1="87.8318" x2="81.9825" y2="111.9101" gradientUnits="userSpaceOnUse" class="svga-on-canvas-glasses-gradient-single-0-null"><stop id="SvgjsStop11962" stop-opacity="1" stop-color="#9ab4d3" offset="0" ></stop><stop id="SvgjsStop11963" stop-opacity="0.7593" stop-color="#93aed1" offset="0.2407" ></stop><stop id="SvgjsStop11964" stop-opacity="0.4009" stop-color="#7e9ecc" offset="0.5991" ></stop><stop id="SvgjsStop11965" stop-opacity="0" stop-color="#6086c4" offset="1" ></stop></linearGradient><linearGradient id="SvgjsLinearGradient11967" x1="-18.0175" y1="87.8318" x2="-18.0175" y2="111.9101" gradientTransform="matrix(-1 0 0 1 100 0)" gradientUnits="userSpaceOnUse" class="svga-on-canvas-glasses-gradient-single-1-null"><stop id="SvgjsStop11968" stop-opacity="1" stop-color="#9ab4d3" offset="0" ></stop><stop id="SvgjsStop11969" stop-opacity="0.7593" stop-color="#93aed1" offset="0.2407" ></stop><stop id="SvgjsStop11970" stop-opacity="0.4009" stop-color="#7e9ecc" offset="0.5991" ></stop><stop id="SvgjsStop11971" stop-opacity="0" stop-color="#6086c4" offset="1" ></stop></linearGradient><linearGradient id="SvgjsLinearGradient12025" x1="81.0335" y1="111.8772" x2="81.0335" y2="93.2499" gradientTransform="matrix(1 0 0 -1 0 202)" gradientUnits="userSpaceOnUse" class="svga-on-canvas-glasses-gradient-single-0-null"><stop id="SvgjsStop12026" stop-opacity="1" stop-color="#bfeaf2" offset="0" ></stop><stop id="SvgjsStop12027" stop-opacity="0.649" stop-color="#a1cae3" offset="0.351" ></stop><stop id="SvgjsStop12028" stop-opacity="0" stop-color="#6086c4" offset="1" ></stop></linearGradient><linearGradient id="SvgjsLinearGradient12030" x1="-1736.9666" y1="111.8772" x2="-1736.9666" y2="93.2499" gradientTransform="matrix(-1 0 0 -1 -1618 202)" gradientUnits="userSpaceOnUse" class="svga-on-canvas-glasses-gradient-single-1-null"><stop id="SvgjsStop12031" stop-opacity="1" stop-color="#bfeaf2" offset="0" ></stop><stop id="SvgjsStop12032" stop-opacity="0.649" stop-color="#a1cae3" offset="0.351" ></stop><stop id="SvgjsStop12033" stop-opacity="0" stop-color="#6086c4" offset="1" ></stop></linearGradient><linearGradient id="SvgjsLinearGradient12082" x1="81.0729" y1="112.2763" x2="81.0729" y2="92.4328" gradientTransform="matrix(1 0 0 -1 0 202)" gradientUnits="userSpaceOnUse" class="svga-on-canvas-glasses-gradient-single-0-null"><stop id="SvgjsStop12083" stop-opacity="1" stop-color="#97a1ad" offset="0" ></stop><stop id="SvgjsStop12084" stop-opacity="0.6667" stop-color="#889ab3" offset="0.3333" ></stop><stop id="SvgjsStop12085" stop-opacity="3.130000e-02" stop-color="#6287c3" offset="0.9687" ></stop><stop id="SvgjsStop12086" stop-opacity="0" stop-color="#6086c4" offset="1" ></stop></linearGradient><linearGradient id="SvgjsLinearGradient12088" x1="-1736.927" y1="112.2763" x2="-1736.927" y2="92.4328" gradientTransform="matrix(-1 0 0 -1 -1618 202)" gradientUnits="userSpaceOnUse" class="svga-on-canvas-glasses-gradient-single-1-null"><stop id="SvgjsStop12089" stop-opacity="1" stop-color="#97a1ad" offset="0" ></stop><stop id="SvgjsStop12090" stop-opacity="0.6667" stop-color="#889ab3" offset="0.3333" ></stop><stop id="SvgjsStop12091" stop-opacity="3.130000e-02" stop-color="#6287c3" offset="0.9687" ></stop><stop id="SvgjsStop12092" stop-opacity="0" stop-color="#6086c4" offset="1" ></stop></linearGradient></defs><g id="svga-group-wrapper"><g id="svga-group-backs-single"></g><g id="svga-group-humanwrap-move" transform="matrix(1,0,0,1,0,0)"><g id="svga-group-humanwrap" transform="matrix(1,0,0,1,0,0)"><g id="svga-group-hair-back-move" transform="matrix(1,0,0,1,0,0)"><g id="svga-group-hair-back" transform="matrix(1,0,0,1,0,0)"><path id="SvgjsPath9730" d="M71.8 42.3c.7-.3 1.3-.6 2-.7.3-.3.6-.6 1-.8 2.4-1.1 5.1-.8 6.6 1.6 1.4 2.1.4 4.9-1.6 6.2-1.1.7-2.5.8-3.7.5-.1 0-.3-.1-.4-.1h-.3c-.1 0-.3.1-.4.1-.1 0-.2.1-.3.1-.4.2-.9.3-1.4.3-.8 0-1.7 0-2.4-.5-2.7-1.7-1.6-5.4.9-6.7zm89 94.4v-.1.1zm11.4 2.6c-.3.3-.8 0-.7-.4.4-1.2-.5-2.5-1.6-3.9-.8 2-2.8 3.7-2.8 6 0 .6-.8.7-1 .3-.8-1.2-.6-2-.1-3.3 1.4-3.3 2.8-4-.9-6.1-1.1-.6-1.9-1.3-2.4-2.1.1.5.2 1 .5 1.9.2.6.9 1 1 1.6.3 1.9-.4 3.5-.2 5.4.2 1.8.8 2.3-.6 3.8-.4.4-1.4.1-1.3-.6.2-1.9-1.4-3.4-1.3-5.3.1 0 .4-2.1.6-2.1-.2-.3-1.6-1.4-1.5-1.2-1.1-1.8-.9-2.4-1.1-4.5-.4-3.5-2.5-4.1-3.5-6.9-.1.3-.3.6-.4.9-1.5 3.8 2.5 5.3 3 9 .3 2.9-1.8 4.5-1.5 7.2.2 2 1.1 2.4-.2 4.2-.3.4-1.1.2-.9-.4.7-2.6-1.8-4.1-1.4-6.5.4-3 2.6-1.6.3-5.2-.2.9-.9 1.6-1.3 2.6-1.5 3.2-.8 4.6-.9 7.6-.1 1.5-.4 2.6-1.3 3.8-.8 1-2.4.2-1.7-1 .9-1.7.3-3.6-.2-5.5l-.3.6c-.5 1.8-.3 2.7-.4 4.6 0 1.4.3 1.4-.5 2.6-.3.4-1.1.3-1.1-.3.1-1.2-.3-2.1-.6-3.1-.2.7-.6 1.5-1.4 2.3-.5.5-1.2-.2-1-.8 1.1-2.4-.2-3.9-1.3-5.5.1 2 .1 4-1 6-.3.7-1 .6-1.5.2-.2.3-.6.6-1 .9-.8.5-1.5-.6-.9-1.2 1.3-1.4-1.9-4.7-2.2-6.2-.1-.8 0-1.6.2-2.3-.8 1.8-1.4 2.9-1.2 5.1 0 .7.4 1.3.4 2-.1 1.2-.5 1.8-1.5 2.6-.7.5-1.2-.5-.8-1.1.7-.8.4-1.8 0-2.7-.1 1.1-.6 2.1-1.7 3.3-.6.6-1.6-.2-1.2-.9 1.3-2 .6-3.6-.1-5.3-.7 2-1.6 3.8-1.4 6.2 0 .7-1 .8-1.2.2-.2-.7-.7-1.5-1.1-2.4 0 1.6-.5 2.9-2.3 3.6-.3 1.1-1.8.7-1.9-.3-.1-1-.3-2.2-.3-3.4-.3 1.1-.3 2.2-.5 3.5 0 .4-.6.8-.9.4-.4-.4-.6-.8-.9-1.1-.3-.1-.5-.3-.7-.7-3.1-8.1-4.4-16.3-4.2-24.5-.3-3.7-.5-7.4-.6-10.8-.3-7.3-.1-14.6.9-21.9 1-7.4 3.1-14.5 5.5-21.6 2-6.1 3.7-12.5 6.6-18.2 0-.9.5-1.8 1.2-2.3 1-.8 2.2-.8 3.4-.2 2.9 1.4 4.7 4.5 4.6 7.7 0 .3-.1.6-.1.9 1.1 1.4 2.1 2.8 3 4.3.1 0 .3.1.4.2 1.7 1.3 3.1 1.8 5.2 2.2 1.5.3 2.6.8 3.5 2 1.3 1.8 1.7 4.9 1.2 7.4l.9.6c.4-.7 1.6-.8 1.9.2 1 2.8 1.8 6.1.1 8.8-.1.2-.2.3-.4.3-.2 1-.6 1.9-.9 2.9.2.2.3.5.4.8.3 1 .8 2.5 1.1 4 .2 0 .5.1.7.3 1.8 1.1 2.7 2.8 2.8 4.8.1.2.3.5.4.7.2.1.4.1.6.3 3.3 2.9 7.9 7.4 6.3 12.2-.1.2-.1.4-.2.6.2.4.4.9.5 1.4.3 1.2-.2 3.5-.3 5.3.4.5 1 .6 2.2 1.7.7.6 1.2 1.2 1.5 2 .4.2.8.4 1 .7 1 1.2.8 2.3.7 3.7-.3 3.3.2 2 2.1 4.1 1.8 2.1.3 4 1 6.3.4 2.5 3.4 4.2.7 7zm-26.4-4.6c-.1-.4-.2-.7-.3-1-.2.2-.3.4-.5.6-1.2 2.1-.8 2.4.2 4.7.1.3.2.6.4.9.1-1.8.5-3.4.2-5.2zm3.4-5c-.3.7-.5 1.4-.6 2.1-.1.8 0 1.5.1 2.2.2-.5.3-.9.5-1.5.7-1.7.5-2.2 0-2.8zm8-23.1c-.1-1.3 0-3-.4-4.6-.2.9-.4 1.9-.6 2.9-.3 1.9-.2 3.3.6 4.7.1-.5.2-1 .4-1.4v-1.6zm5.6 13.5c-.2-.2-.4-.3-.6-.5-.7-.5-1.6-.7-2.2-1.4-.2 1-.2 1.9.2 2.9.6 1.4 1.4 2.2 2 3.3l.3-1.2c.1-1.3.4-2.2.3-3.1zm3.5 7.3c-.3-.2-.6-.3-1-.5v.2c.3 1.3 1.5 2 2.6 2.7.1-.4-.1-1-1.6-2.4zm-78.2-9.9c.2 6.6 1.2 16.2-2.9 21.8-.5 2.4-1.9 4.4-2.2 6.9-.1.7-1.2 1-1.7.4-.9-1-1.1-1.8-1.2-2.8-.3.6-.6 1.2-.8 1.9-.2.7-1.2.7-1.4 0-.1-.2-.1-.4-.1-.6-.5.4-1.3.4-1.5-.4v-.1c-.3.3-.5.5-.4.5.5.8-.6 1.4-1.2.9-.8-.7-1.2-1.5-1-2.5.2-.9.7-1.5.9-2.2-.2-.1-.4-.4-.5-.7-1.1 1.3-2.4 2.4-1.4 4.2.4.7-.6 1.5-1.1.9-.7-.7-1.2-1.4-1.4-2.3-.2.8-.8 1.3-1.6 1.8-.5.2-1.1-.4-.6-.8 1.3-1.1-2-6.5-1.6-8.6.2-1 1-1.8 1.2-2.7 1.4-7.2.4-5-.5-4.3.2.8.3 1.6.1 2.6-.3 1.2-1.2 2.1-1.5 3.3-1.2 4.1.8 4.2 1.7 7 .6 1.9.6 3.6-1 4.9-.7.6-1.8-.2-1.3-1 1-1.9-.3-3.9-1.5-5.9 0 .5.1 1 .2 1.4.3 1.9.9 2.5-.4 4.2-.3.4-1 .1-1-.4.3-2.9-2.5-5-2.7-8-.1-.9-.1-1.8-.3-2.7-.7 1.1-1.1 1.5 0 4 .4 1 1.4 1.8 1.7 2.8.7 1.9.6 3.1-.6 4.8-.5.8-1.9.3-1.6-.7.9-3.2-3.1-5.1-4-7.6-.6-1.6-.1-2.6.1-4.2v-.2c-.4 1.2-.7 2.5-.5 3.7.5 2.8 2.1 4.3 1.9 7.4-.1.8-1.2 1.1-1.5.2 0-.2-.1-.3-.2-.4-.1.2-.2.5-.4.7-.6 1-2.3.3-1.9-.8 1.2-3-2.9-6.2-3.2-9.6-.6 1-1 2.1-.6 3.5.7 2.8 3 5.4-.3 7.3-1.1.7-2.2-.6-1.7-1.7.6-1.1-1-3.3-2.1-5.2-.6 1.7-1.3 3.5-.3 5.1.6.8-.7 1.8-1.4 1-2.1-2.4-.7-4-.4-6.8.3-2.4-.9-4.3-1.3-6.4 0 .1-.1.3-.1.4-.7 2.2-1.2 4-.8 6.6.1.6.5 1.1.5 1.7.2 1.6 0 2.1-.8 3.5-.5.8-1.7.3-1.5-.6.5-1.8-.3-3.3-.9-4.8-.8 1.4-2 2.8-1.6 4.2.2.8-1 1.3-1.4.6-.7-1.3-.8-2.1-.4-3.5.5-2.1 1.5-2 .1-4.6-.4-.7-1.3-1.1-1.8-1.9-.8-1.4-.6-2.4-.3-3.8.6-2.8 3.8-.5.5-6.3v-.1c-.7.6-1.3 1.2-1.5 2.2-.4 1.9 1.2 3.5.8 5.5-.5 2.3-4.4 4.5-3.4 7 .2.7-.7 1-1.1.6-1-.9-1.2-1.2-1.1-2.6.1-1.2.5-1.3 1-2.3 1.4-3.3 2.1 2 1.3-6.2-.1-1.4-.8-2.2-.3-3.7.2-.6.6-1 .9-1.4.9-1.8 1.5-2.7 1-4.7-.4-1.7-1.5-2.8-1-4.7.4-1.8 2.2-2.7 2.6-4.4.4-1.5-.6-2.8 0-4.4.5-1.3 1.1-1.2 1.9-2.2.9-1.2 1.4-2.3 2.1-3.6.4-.6 1-.8 1.7-.7 0-.2-.1-.3-.1-.5-.4-1.2.4-2.2 1.5-2.7.6-.8 1.1-1.5 1.7-2.3.2-.4.5-.7.8-.9.3-.9.7-1.8 1.2-2.7-.2-.2-.4-.4-.5-.6-1.3-2.2-.5-4.9.7-7.1.6-1.1 1.5-2 2.6-2.6l.3-.9c.1-.3.3-.6.5-.9-.4-.2-.8-.4-1.1-.7-1.4-1.1-1.6-3.4-1-4.9.6-1.3 1.7-2.3 3.1-2.7 1.2-.3 2.5-.2 3.6.5v-.2c.2-1.4.7-2.5 1.2-3.6-.1-.1-.2-.2-.3-.4-.6-.9-.6-1.9-.4-3 .3-1.9 1.9-3.6 3.7-4.2.6-.2 1.2-.2 1.7 0 1.4-2.9 3.1-4.9 6.5-5.8 1.4-.4 3 0 4 1l.5.5c.6.6 1 1.5.9 2.4 10 9.2 13.9 25.9 16.5 38.5 1.8 7.9 2.7 16.2 3 24.4zm-52.6-6.8c0-.2-.1-.5-.1-.7-.1.2-.2.3-.3.5-1.3 1.8-1.8 2.5-1.5 3.9.8-1.1 1.7-2.2 1.9-3.7zm.7 8.3c.3-.7 1.1-1.6 1.3-2.4v-.3c-.5.4-.9.8-1.1 1.3-.8 1.6-.8 1.4-.3 1.9 0-.1.1-.3.1-.5zm1.7 7.9c-.6 1.7-1.7 3.4-1.1 5.3.1.3.2.6.4.8.3-.9.9-1.6 1.1-2.6.2-1.3 0-2.4-.4-3.5zm3.7-2.7c-.3-1.5-1-2.7-.6-4.3.2-.8.4-1.5.7-2.2h-.2c-.7 1.7-1.7 3.2-1.4 5.3.2 1.3 1 2.4 1.5 3.6.1-.9.1-1.6 0-2.4zm3.9 3c-.3 1.1-.8 2.1-.9 3.3 0 .8.1 1.5.2 2.1 0-.1.1-.2.1-.2.7-1.9 1.6-3.3.6-5.2zm25.4 9.2c-.4-.6-.7-1.2-.9-1.8-.1.2-.1.3-.2.5-.9 2.5.1 4 .5 6.3v.2c.3-.8.9-1.1 1.2-1.8.7-1.6.3-2-.6-3.4zm8.2 3.4c0-.9-.7-1.9-1.4-2.9v.8c.2.9.4 1.8.4 2.8.1.6.2 1.2.1 1.9v.6c.4-1.1 1-2 .9-3.2z" fill="#d2ae45" stroke-width="none" opacity="1" stroke="none"></path></g></g><g id="svga-group-humanbody-back"><path id="SvgjsPath8919" d="m168.5 219.5-1.7-21.5s.7-9-8.8-15.3-23.4-10.1-29.5-14.2c-6.1-4.1-9.2-4.5-9-16.9s.9-40.3.9-40.3H79.6s.7 27.9.9 40.3c.2 12.4-2.9 12.8-9 16.9-6.1 4.1-20 7.9-29.5 14.2S33.2 198 33.2 198l-1.6 21.5h136.9z" fill="#fbd5c0" stroke-width="none" opacity="1" stroke="none"></path></g><g id="svga-group-chinshadow-single"><path id="SvgjsPath10946" d="M94.6 167.9c2.4 0 2.8-.8 5.4-.8 2.7.1 3 .8 5.4.8 3.37 0 10.14-7.78 14.28-11-.15-1.48-.21-3.22-.18-5.3.2-12.4.9-40.3.9-40.3H79.6s.7 27.9.9 40.3c.03 2.08-.03 3.81-.18 5.29 4.14 3.14 10.91 11.01 14.28 11.01z" fill="#dc9f7d" stroke-width="none" opacity="0.65" stroke="none"></path></g><g id="svga-group-humanbody-front"><path id="SvgjsPath8920" d="M73.8 175.9c5.1 2.9 11.8 5.2 17.6 5.7.4 0 .4-.6.1-.7-2.8-1.1-5.9-1.7-8.8-2.6-2.9-.9-5.8-2-8.8-2.7-.1-.1-.3.2-.1.3zm35.2 6.2c5.3-.6 11.3-3 15.9-5.8.3-.2.1-.6-.2-.5-2.6.9-5.2 2-7.8 2.9-2.6.9-5.4 1.5-8 2.5-.5.1-.5.9.1.9z" fill="#dc9f7d" stroke-width="none" opacity="1" stroke="none"></path><path id="SvgjsPath8921" d="m168.4 219.4-2.1-21.4c0-2.2-.5-4.5-1.5-6.6-.9-2.1-2.3-3.9-3.9-5.5s-3.5-2.8-5.5-4c-2-1.2-4.1-2.2-6.2-3.1-4.2-1.9-8.6-3.6-12.9-5.4-2.2-.9-4.3-1.9-6.4-3-1.1-.6-2.1-1.2-3-1.9-1-.6-2-1.2-3-1.9s-2-1.5-2.8-2.6c-.8-1-1.3-2.2-1.7-3.4-.7-2.4-.8-4.8-.8-7.2 0-4.7.2-9.4.3-14.1.2-9.4.6-18.7.9-28l.6.6-20.4-.2-20.4-.1.3-.3.7 28c.1 4.7.3 9.3.4 14 0 2.4-.1 4.7-.8 7.1-.3 1.2-.9 2.3-1.6 3.3-.8 1-1.7 1.8-2.7 2.5s-2 1.3-2.9 2c-.9.6-1.9 1.3-3 1.9-2.1 1.2-4.2 2.1-6.4 3.1-4.3 1.9-8.6 3.6-12.8 5.6-2.1 1-4.2 2.1-6.1 3.2-2 1.2-3.8 2.4-5.4 4-1.6 1.6-2.9 3.4-3.8 5.4-.4 1-.8 2.1-1 3.1-.2 1.1-.4 2.2-.3 3.2v.2l-1.5 21.5-1-1.1 34 .1c11.3 0 22.7.1 34.1.2l34.2.3 34.4.5zm.2.2-34 .4-34.2.3c-11.4.1-22.9.2-34.4.2l-34.4.1h-1.1l.1-1.1 1.7-21.5v.1c-.1-5.1 2.2-9.8 5.7-13.3 1.7-1.7 3.8-3.1 5.8-4.3 2-1.2 4.2-2.2 6.3-3.2 4.3-2 8.7-3.7 13-5.4 2.1-.9 4.3-1.8 6.3-2.9 1-.5 1.9-1.1 3-1.8 1-.6 2-1.2 2.9-1.9.9-.6 1.8-1.4 2.4-2.2.7-.9 1.2-1.9 1.5-2.9.6-2.1.8-4.5.8-6.8 0-4.6-.1-9.3-.2-14l-.6-28v-.3h.3l20.4-.1 20.4-.2h.6v.6c-.1 9.3-.2 18.7-.4 28-.1 4.7-.2 9.4-.2 14 .1 2.3.2 4.6.8 6.7.3 1.1.8 2 1.4 2.9.6.8 1.4 1.6 2.4 2.2.9.6 1.9 1.3 2.9 1.9 1 .7 1.9 1.3 2.9 1.8 2 1.1 4.1 2.1 6.3 3 4.3 1.8 8.6 3.6 12.9 5.6 2.1 1 4.2 2.1 6.2 3.3 2 1.2 4 2.6 5.7 4.3 3.4 3.4 5.6 8.1 5.4 13v-.1l1.4 21.6zm-112.8-.4 1.9-13.8.1 13.8h-2zm88.6 0-1.9-13.8-.1 13.8h2z" fill="#cd865f" stroke-width="none" opacity="1" stroke="none"></path></g><g id="svga-group-clothes-single"><path id="SvgjsPath11329" d="m50.8 220 8.2-26.1 40.6 18.4 41.4-18.4 8.2 26.1z" fill="#f20aa6" stroke-width="none" opacity="1" stroke="none"></path><path id="SvgjsPath11330" d="m150.1 219.7-4.3-13-4.3-13 7.7-16.3-1.8-.8-6.5 16.9c-3.4 1.6-6.9 3.2-10.3 4.7-3.4 1.5-6.9 3.1-10.3 4.6-6.8 3-13.7 5.9-20.6 8.8l-9.8-4.7c-3.4-1.6-6.7-3.1-10.1-4.7-6.8-3.1-13.6-6.1-20.4-9.1h-.2l-5.9-17.3-1.9.7 7.1 16.8c-.1.1-.1.2-.1.3l-4 13.4-3.7 13 24.2.5 24.6.4 12.4.1h12.4l24.8-.1h.3c.6-.2.8-.7.7-1.2zm-37.4-.7-12.2.1-24.6.4-25 .5 4.5-13.1 4.1-11.9 19.5 9c3.4 1.5 6.8 3.1 10.2 4.5l10.2 4.4c.2.1.3.1.5 0 6.8-3.2 13.7-6.4 20.6-9.5 3.4-1.6 6.9-3 10.4-4.6 3.3-1.4 6.6-2.9 9.9-4.3l3.7 12.6 3.6 11.9-23.2-.1-12.2.1z" fill="#d3008e" stroke-width="none" opacity="1" stroke="none"></path></g><g id="svga-group-head" transform="matrix(1,0,0,1,0,0)"><g id="svga-group-ears-left-move" transform="matrix(1,0,0,1,0,0)"><g id="svga-group-ears-left" transform="matrix(1,0,0,1,0,0)"><path id="SvgjsPath11146" d="M61.4 94.2s-2.5-4.6-5-5.4-4.1.7-3.7 6.2 4.9 21.8 9.9 20.8.9-18.4-1.2-21.6z" fill="#fbd5c0" stroke-width="none" opacity="1" stroke="none"></path><path id="SvgjsPath11147" d="M62.3 96c.3.7.5 1.4.8 2.1.5 1.4.9 2.9 1.3 4.5.4 1.5.7 3.2.9 4.8.1.8.2 1.7.2 2.6s0 1.7-.1 2.6c-.1.8-.3 1.7-.6 2.3-.3.7-.7 1.1-1.2 1.4-.9.5-1.8.4-2.7-.1s-1.7-1.5-2.4-2.5c-.7-1.1-1.3-2.4-1.9-3.7-.6-1.3-1.1-2.8-1.5-4.2-.5-1.4-.9-2.9-1.3-4.4-.4-1.5-.8-3.1-1.1-4.7s-.4-3.4-.3-5.1c.1-.8.3-1.7.7-2.3.3-.6.8-.9 1.2-1.1s.9-.1 1.3-.1c.4.1.9.3 1.3.5.8.5 1.6 1.4 2.4 2.4.7 1 1.4 2 2.1 3.2.3.5.6 1.1.9 1.8zm-3.1-4.7c-.8-.8-1.5-1.5-2.3-1.8s-1.6-.4-2.3-.1c-.4.2-.7.4-.9.8-.3.4-.4 1-.5 1.7-.2 1.4-.1 3 .1 4.5.2 1.6.5 3.1.9 4.7.7 3 1.7 5.9 2.9 8.3.6 1.2 1.2 2.3 1.9 3.3.7.9 1.4 1.7 2.2 2.1.4.2.8.3 1.2.3s.8-.1 1.1-.3c.3-.2.6-.6.8-1 .2-.5.4-1.1.5-1.8.2-1.4.1-2.9 0-4.5s-.4-3.1-.6-4.7c-.3-1.6-.6-3.1-1-4.6s-.9-2.9-1.6-4c-.9-1.1-1.6-2.1-2.4-2.9z" fill="#ecb99d" stroke-width="none" opacity="1" stroke="none"></path><path id="SvgjsPath11148" d="M55.4 92.2c2.2 1.4 4.1 5.4 5.1 9.3v.1c0 .3-.2.3-.2.1-.4-1.1-.8-1.1-1.4 0-.1.7-.1 1.4.1 2.2.1.7.4 1.3.6 1.9.5 1.1 1.1 2 1.7 2.9.2.3 0 .7-.2.5-1.3-1-3.2-4.4-2.8-7.4.2-1.4.9-2.1 1.5-1.6-.7-2-1.6-3.8-2.6-5.2-.6-.8-1.9-2.6-2.6-2.3-1.2.5-.5 4.5-.4 6.2 0 .3-.2.3-.3.1-.7-2.9-.8-8.3 1.5-6.8z" fill="#dc9f7d" stroke-width="none" opacity="1" stroke="none"></path><path id="SvgjsPath11149" d="M60.6 110c-2.3-.9-3.9-4.5-4.9-8.5-.6-2.4-1.7-8 .5-8 .2 0 .3.5.1.6-2.1 1.1.2 8.6.8 10.4.9 2.5 2.1 4.1 3.5 5.1.1.1.1.5 0 .4z" fill="#dc9f7d" stroke-width="none" opacity="1" stroke="none"></path></g></g><g id="svga-group-ears-right-move" transform="matrix(1,0,0,1,0,0)"><g id="svga-group-ears-right" transform="matrix(1,0,0,1,0,0)"><path id="SvgjsPath11150" d="M138.6 94.2s2.5-4.6 5-5.4 4.1.7 3.7 6.2c-.5 5.5-4.9 21.8-9.9 20.8-5.1-.9-.9-18.4 1.2-21.6z" fill="#fbd5c0" stroke-width="none" opacity="1" stroke="none"></path><path id="SvgjsPath11151" d="M138.6 94.1c.6-1.2 1.3-2.2 2.1-3.2.7-1 1.5-1.8 2.4-2.4.4-.2.9-.5 1.3-.5.4-.1.9-.1 1.3.1s.9.5 1.2 1.1.6 1.4.7 2.3c.2 1.7 0 3.5-.3 5.1s-.7 3.2-1.1 4.7c-.4 1.5-.8 3-1.3 4.4s-1 2.9-1.5 4.2c-.6 1.3-1.2 2.6-1.9 3.7s-1.5 2-2.4 2.5-1.8.6-2.7.1c-.4-.3-.8-.7-1.2-1.4-.3-.7-.5-1.5-.6-2.3-.1-.9-.1-1.7-.1-2.6s.1-1.7.2-2.6c.2-1.7.5-3.3.9-4.8s.8-3 1.3-4.5c.3-.7.5-1.4.8-2.1l.9-1.8zm.1.1c-.7 1.1-1.1 2.6-1.6 4-.4 1.5-.7 3-1 4.6s-.5 3.1-.6 4.7c-.1 1.5-.2 3.1 0 4.5.1.7.2 1.3.5 1.8.2.5.5.8.8 1s.7.3 1.1.3c.4 0 .8-.1 1.2-.3.8-.4 1.5-1.2 2.2-2.1.7-1 1.3-2.1 1.9-3.3 1.2-2.5 2.2-5.3 2.9-8.3.4-1.5.7-3.1.9-4.7.2-1.5.2-3.2.1-4.5-.1-.7-.3-1.2-.5-1.7-.3-.4-.6-.7-.9-.8-.7-.3-1.6-.2-2.3.1-.8.3-1.6 1-2.3 1.8-1.1.8-1.8 1.8-2.4 2.9z" fill="#ecb99d" stroke-width="none" opacity="1" stroke="none"></path><path id="SvgjsPath11152" d="M139.4 110c2.3-.9 3.9-4.5 4.9-8.5.6-2.4 1.7-8-.5-8-.2 0-.3.5-.1.6 2.1 1.1-.2 8.6-.8 10.4-.9 2.5-2.1 4.1-3.5 5.1-.1.1-.1.5 0 .4z" fill="#dc9f7d" stroke-width="none" opacity="1" stroke="none"></path><path id="SvgjsPath11153" d="M144.6 92.2c-2.2 1.4-4.1 5.4-5.1 9.3v.1c0 .3.2.3.2.1.4-1.1.8-1.1 1.4 0 .1.7.1 1.4-.1 2.2-.1.7-.4 1.3-.6 1.9-.5 1.1-1.1 2-1.7 2.9-.2.3 0 .7.2.5 1.3-1 3.2-4.4 2.8-7.4-.2-1.4-.9-2.1-1.5-1.6.7-2 1.6-3.8 2.6-5.2.6-.8 1.9-2.6 2.6-2.3 1.2.5.5 4.5.4 6.2 0 .3.2.3.3.1.7-2.9.8-8.3-1.5-6.8z" fill="#dc9f7d" stroke-width="none" opacity="1" stroke="none"></path></g></g><g id="svga-group-faceshape-wrap" transform="matrix(1,0,0,1,0,0)"><g id="svga-group-faceshape-single"><path id="SvgjsPath10936" d="M100 41.3c-21.4 0-39.8 15.6-41 44.1 0 0 .4 19.8 1.5 26.6 1.1 6.8 1.9 18.7 5.7 23.3 3.7 4.6 9.16 7.31 13.16 10.01 4 2.6 11.45 11.55 15.05 11.55 2.4 0 2.82-.87 5.42-.87 2.7 0 3.46.79 5.86.79 3.6 0 10.7-9.11 14.7-11.81 4-2.6 9.71-5.06 13.41-9.66s4.6-16.5 5.7-23.3c1.1-6.8 1.5-26.6 1.5-26.6C139.8 57 121.4 41.3 100 41.3z" fill="#fbd5c0" stroke-width="none" opacity="1" stroke="none"></path><path id="SvgjsPath10937" d="M100 41.3c-21.4 0-39.8 15.6-41 44.1 0 0 .4 19.8 1.5 26.6 1.1 6.8 1.9 18.7 5.7 23.3 3.7 4.6 9.3 7.6 13.3 10.3s11.5 11.6 15.1 11.6c2.4 0 2.8-.8 5.4-.8s3 .8 5.4.8c3.6 0 11.1-8.9 15.1-11.6s9.6-5.7 13.3-10.3 4.6-16.5 5.7-23.3c1.1-6.8 1.5-26.6 1.5-26.6-1.2-28.4-19.6-44.1-41-44.1zm28.8 14.14.7 1c.2.3.5.7.7 1s.5.7.7 1l.6 1c.1.2.2.3.3.5l.3.5c1.6 2.81 2.8 5.72 3.8 8.83l.7 2.31c.2.8.4 1.5.6 2.31.2.8.3 1.61.5 2.31.1.8.3 1.61.4 2.41l.1 1.2c0 .4.2 2.41.2 2.41 0 .4.1.8.1 1.2l.1 2.31-.1 2.51c-.1 3.31-.3 6.62-.5 9.93s-.4 6.62-.6 9.83c-.1.8-.4 3.91-.4 3.91l-.1.9c-.2 1.71-.4 3.31-.6 5.02-.4 3.31-.8 6.52-1.5 9.63-.4 1.5-.8 3.01-1.3 4.41-.5 1.48-1.6 2.61-1.6 2.61l-.4.4s-2.7 2.61-3.9 3.51c-1.2 1-2.5 1.91-3.9 2.81s-2.7 1.81-4.2 2.81c-.2.1-.4.3-.6.4-.2.1-1.3 1-1.6 1.3-.7.6-1.3 1.2-1.9 1.81l-3.6 3.51c-1.2 1.1-2.3 2.31-3.6 3.21-.6.5-1.09.93-1.69 1.33-.3.2-.98.41-1.58.41-.7 0-1.42-.14-2.32-.34-.4-.1-2.3-.2-2.8-.2s-.9 0-1.4.1-.9.2-1.4.3c-.9.3-2.64.86-4 .2-.7-.3-1.3-.7-2-1.2-1.3-.9-2.6-2.01-3.8-3.11l-3.7-3.31c-.6-.6-1.3-1.1-1.9-1.61-.7-.5-1.3-1.1-2.1-1.5-1.4-.9-2.8-1.81-4.2-2.71-2.8-1.81-5.4-3.71-7.6-6.12l-.4-.4-.4-.5c-.3-.3-.5-.6-.7-.9-.4-.6-.8-1.3-1.1-2.11-.6-1.5-1-3.01-1.3-4.61-.6-3.21-1-6.52-1.3-9.83-.2-1.71-.3-3.31-.5-5.02l-.1-.6c0-.2-.1-.4-.1-.6l-.1-1.2c-.1-.8-.1-1.61-.2-2.41-.2-3.31-.2-6.62-.3-9.93V88.15l-.1-2.61.1-2.21c0-.4.1-.8.1-1.2l.1-1.2c0-.4.1-.8.1-1.2l.2-1.2c.1-.8.3-1.61.4-2.41.1-.8.3-1.61.5-2.31.2-.8.4-1.5.6-2.31l.7-2.31c1-3.01 2.2-6.02 3.8-8.83l.3-.5c.1-.2.2-.3.3-.5 0 0 1.1-1.71 1.3-2.01.2-.3.5-.7.7-1l1.5-2.01.8-.9.8-.9c.5-.6 1.2-1.1 1.7-1.71.3-.3.6-.5.9-.8s.6-.5.9-.8c.6-.5 1.3-1 2-1.4.3-.2.7-.5 1-.7l1-.6c.3-.2.7-.4 1.1-.6s.7-.4 1.1-.6l1.1-.5 1.2-.5 2.3-.9 2.4-.7c1.6-.4 3.2-.7 4.9-.9a40.28 40.28 0 0 1 9.8 0c1.6.2 3.3.5 4.9.9l1.2.3c.2.1.4.1.6.2l.6.2 1.2.4 1.1.5.6.2.6.3 1.1.5c.4.2.7.4 1.1.6.4.2.7.4 1.1.6l1 .6c.3.2.7.5 1 .7.7.4 1.3 1 2 1.4.3.2.6.5.9.8s.6.5.9.8c.6.6 1.2 1.1 1.7 1.71l.8.9.8.9.4.5c.19.3.29.5.39.6z" fill="#cd865f" stroke-width="none" opacity="1" stroke="none"></path></g></g><g id="svga-group-mouth-single-move" transform="matrix(1,0,0,1,0,0)"><g id="svga-group-mouth-single" transform="matrix(1,0,0,1,0,0)"><path id="SvgjsPath11134" d="M86.9 128.6s2-.5 3.7-2.3c1.8-1.8 2.3-2.2 3.2-2.6 1-.4 3.2-1 4.9.4 1.6 1.3 2 .5 2.7 0s2-1.4 4.2-.6 4.3 3.4 5.6 4.1 2.2.9 2.2.9-1.7 2.4-3.1 3.8c-1.9 2-4.3 2.7-8.6 3-4.3.3-7.2-.5-9-1.7-1.9-1.2-3.5-3.2-3.9-3.6-.5-.5-1.9-1.4-1.9-1.4z" fill="#e4579e" stroke-width="none" opacity="1" transform="translate(0 3)" stroke="none"></path><path id="SvgjsPath11135" d="M86.2 128.6c1.8.9 3.6.8 5.5.4 1.4-.3 2.9-.6 4.3-.5s2.7.8 4.2.9c1.1 0 2-.4 3-.7 1.9-.6 3.5-.3 5.4.1 1.9.4 4 1 5.7-.2.3-.2.1-.6-.2-.6-2.7.5-4.7-.2-7.4-.6-2.4-.4-4.4 1.1-6.8.8-2-.2-3.5-1-5.5-.7-2.7.3-5.2 1.4-7.9.4-.4 0-.6.6-.3.7z" fill="#d53c89" stroke-width="none" opacity="1" transform="translate(0 3)" stroke="none"></path><path id="SvgjsPath11136" d="M109.8 130.3c-4.4.3-8.6 1.8-13 1.6-.2 0-.3.3-.1.4 4.3 1.1 9.6 1.4 13.2-1.8.1-.1 0-.2-.1-.2z" fill="#f375b5" stroke-width="none" opacity="1" transform="translate(0 3)" stroke="none"></path></g></g><g id="svga-group-eyes-left-move" transform="matrix(1,0,0,1,0,0)"><g id="svga-group-eyes-left" transform="matrix(1,0,0,1,0,0)"><g id="svga-group-eyesback-left"><path id="SvgjsPath10396" d="M90.4 97.9s-1.8 2.4-3.2 3.1c-1.4.7-4.4 2.4-8.5 1s-5.4-4.1-5.4-4.1 1.3-2 2.5-3.2 3.7-3.9 8.3-2.6c4.5 1.2 5.7 3.7 6.3 5.8z" fill="#ffffff" stroke-width="none" opacity="1"></path></g><g id="svga-group-eyesiriswrapper-left" transform="matrix(1,0,0,1,0,0)"><g id="svga-group-eyesiriscontrol-left" transform="matrix(1,0,0,1,0,0)"><g id="svga-group-eyesiris-left" transform="matrix(1,0,0,1,0,0)"><path id="SvgjsPath11369" d="M82 91.2c2.9 0 5.2 2.3 5.2 5.2s-2.3 5.2-5.2 5.2-5.2-2.3-5.2-5.2 2.3-5.2 5.2-5.2z" fill="#8ab42d" stroke-width="none" opacity="1" stroke="none"></path><path id="SvgjsPath11370" d="M82 101.8c-3 0-5.4-2.4-5.4-5.4S79 91 82 91s5.4 2.4 5.4 5.4-2.4 5.4-5.4 5.4zm0-10.3c-2.7 0-4.9 2.2-4.9 4.9s2.2 4.9 4.9 4.9 4.9-2.2 4.9-4.9-2.2-4.9-4.9-4.9z" fill="#699507" stroke-width="none" opacity="1" stroke="none"></path><path id="SvgjsPath11371" d="M82 93.6c1.5 0 2.8 1.3 2.8 2.8s-1.3 2.8-2.8 2.8-2.8-1.3-2.8-2.8 1.3-2.8 2.8-2.8z" fill="#000000" stroke-width="none" opacity="1"></path><path id="SvgjsPath11372" d="M80.7 93.6c.5 0 1 .4 1 1s-.4 1-1 1-1-.4-1-1 .5-1 1-1zm3.2 4.4c.2 0 .4.2.4.4s-.2.4-.4.4-.4-.2-.4-.4.2-.4.4-.4z" fill="#ffffff" stroke-width="none" opacity="1"></path></g></g></g><g id="svga-group-eyesfront-left"><path id="SvgjsPath10404" d="M70.7 98c0 6.9 4.9 12.5 11 12.5s11-5.6 11-12.5-4.9-12.5-11-12.5-11 5.6-11 12.5zm2.5-.1s1.3-2 2.5-3.2 3.7-3.9 8.3-2.6c4.6 1.2 5.7 3.7 6.4 5.8 0 0-1.8 2.4-3.2 3.1-1.4.7-4.4 2.4-8.5 1s-5.5-4.1-5.5-4.1z" fill="#fbd5c0" stroke-width="none" opacity="1" stroke="none"></path><path id="SvgjsPath10405" d="M91.1 96.8C90 92.4 87 88.2 82 88.2c-4.9 0-7.1 4.4-8.9 8.2-.1.2-.4 0-.3-.1 1.7-4.2 4.5-8.7 9.6-8.5 4.9.2 8.2 4.4 9 8.9 0 .1-.2.2-.3.1z" fill="#ecb99d" stroke-width="none" opacity="1" stroke="none"></path><path id="SvgjsPath10406" d="M70 97.8c1.5.7 2.7-.3 3.9-1.6-1.2.1-2.5-.4-3.3-1.1-.1-.1 0-.3.1-.2.6.3 1.2.5 1.9.7.6.1 1.1 0 1.7 0 .7-.9 1.4-1.9 2-2.6-1.3-.4-2.4-1.6-2.3-3 0-.1.2-.2.3 0 .3 1.3 1.1 2.3 2.3 2.8.1 0 .1-.1.2-.1.7-.5 1.4-.9 2.2-1.3-.5-1-.9-2-1-3.1 0-.2.3-.2.4 0 .3 1 .7 2 1 3 .9-.3 1.8-.5 2.8-.4.2-1.5-.3-2.9-1.2-4.1-.1-.2.1-.3.3-.2 1.3 1.1 1.7 2.8 1.3 4.3h.4c.8.1 1.5.3 2.2.6.7-1.2.8-2.3.8-3.7 0-.2.3-.2.3 0 .4 1.3 0 2.8-.8 3.9.8.4 1.5.8 2.2 1.4.9-.4 1.7-1.2 2.1-2.2 0-.1.2 0 .2.1-.2 1.1-1 2-1.9 2.4.5.5 1 1 1.4 1.6.5 0 .9 0 1.4-.1.7-.2 1.2-.6 1.7-1.1.1-.1.3 0 .2.2-.6.9-1.9 1.5-3.1 1.4.3.6.6 1.1.8 1.8.7.2 1.4.3 2.1.3.2 0 .2.2 0 .3-.7.2-1.4 0-2-.2.2.6.3 1.1.3 1.7 0 .3-.5.4-.6.1-1.4-6-7.9-8.9-13.2-5.4-2.1 1.4-4.4 7.3-7.6 4.5-.1-.4.2-.8.5-.7zm3.8 1.7c-.2-.3-.4-.7-.6-1.1-.1-.2.2-.3.3-.2 2.4 1.6 4.3 3.4 7.3 3.8 3.5.4 6.4-1 8.8-3.4.1-.1.2 0 .2.1-.8 1.2-1.9 2.1-3.2 2.8.3.1.5.3.6.5.2.2.3.6.2.8 0 .1-.2.2-.3 0l-.3-.6c-.1-.2-.3-.4-.4-.5l-.1-.1c-.8.4-1.6.8-2.5 1 .2.5.4 1.1.4 1.7 0 .2-.2.2-.3.1-.3-.5-.4-1.1-.6-1.6-.7.2-1.5.2-2.3.2h-.3c0 .8 0 1.6-.1 2.4 0 .2-.3.1-.3 0-.1-.8 0-1.6 0-2.3-.8-.1-1.6-.2-2.5-.5-.3.6-.5 1.2-.6 1.9 0 .1-.2.1-.2 0 0-.7.2-1.4.6-2-.8-.3-1.5-.6-2.2-1.1-.1.1-.2.2-.2.3l-.6.6c-.1.1-.2-.1-.2-.2.1-.2.3-.5.4-.7.1-.1.1-.2.2-.2-.4-.3-.8-.7-1.2-1.1-.8.1-1.5.4-2.2.7-.1.1-.3-.1-.2-.2.9-.7 1.6-1 2.4-1.1zm15 .6c.4.3.8.8.7 1.4 0 .1-.2.1-.2 0-.1-.2-.1-.4-.2-.6s-.2-.4-.4-.5c-.2-.2 0-.4.1-.3z" fill="#131111" stroke-width="none" opacity="1" stroke="none"></path></g></g></g><g id="svga-group-eyes-right-move" transform="matrix(1,0,0,1,0,0)"><g id="svga-group-eyes-right" transform="matrix(1,0,0,1,0,0)"><g id="svga-group-eyesback-right"><path id="SvgjsPath10397" d="M109.6 97.9s1.8 2.4 3.2 3.1c1.4.7 4.4 2.4 8.5 1s5.4-4.1 5.4-4.1-1.3-2-2.5-3.2-3.7-3.9-8.3-2.6c-4.5 1.2-5.7 3.7-6.3 5.8z" fill="#ffffff" stroke-width="none" opacity="1"></path></g><g id="svga-group-eyesiriswrapper-right" transform="matrix(1,0,0,1,0,0)"><g id="svga-group-eyesiriscontrol-right" transform="matrix(1,0,0,1,0,0)"><g id="svga-group-eyesiris-right" transform="matrix(1,0,0,1,0,0)"><path id="SvgjsPath11373" d="M118 91.2c2.9 0 5.2 2.3 5.2 5.2s-2.3 5.2-5.2 5.2-5.2-2.3-5.2-5.2 2.3-5.2 5.2-5.2z" fill="#8ab42d" stroke-width="none" opacity="1" stroke="none"></path><path id="SvgjsPath11374" d="M118 101.8c-3 0-5.4-2.4-5.4-5.4S115 91 118 91s5.4 2.4 5.4 5.4-2.4 5.4-5.4 5.4zm0-10.3c-2.7 0-4.9 2.2-4.9 4.9s2.2 4.9 4.9 4.9 4.9-2.2 4.9-4.9-2.2-4.9-4.9-4.9z" fill="#699507" stroke-width="none" opacity="1" stroke="none"></path><path id="SvgjsPath11375" d="M118 93.6c1.5 0 2.8 1.3 2.8 2.8s-1.3 2.8-2.8 2.8-2.8-1.3-2.8-2.8 1.3-2.8 2.8-2.8z" fill="#000000" stroke-width="none" opacity="1"></path><path id="SvgjsPath11376" d="M116.8 93.6c.5 0 1 .4 1 1s-.4 1-1 1-1-.4-1-1 .4-1 1-1zM120 98c.2 0 .4.2.4.4s-.2.4-.4.4-.4-.2-.4-.4.2-.4.4-.4z" fill="#ffffff" stroke-width="none" opacity="1"></path></g></g></g><g id="svga-group-eyesfront-right"><path id="SvgjsPath10407" d="M118.3 85.5c-6.1 0-11 5.6-11 12.5s4.9 12.5 11 12.5 11-5.6 11-12.5-5-12.5-11-12.5zm3 16.5c-4.1 1.4-7-.3-8.5-1-1.4-.7-3.2-3.1-3.2-3.1.6-2.1 1.8-4.6 6.4-5.8 4.6-1.2 7.1 1.4 8.3 2.6 1.2 1.2 2.5 3.2 2.5 3.2s-1.4 2.7-5.5 4.1z" fill="#fbd5c0" stroke-width="none" opacity="1" stroke="none"></path><path id="SvgjsPath10410" d="M108.9 96.8c1.1-4.4 4.2-8.6 9.1-8.6s7.1 4.4 8.9 8.2c.1.2.4 0 .3-.1-1.7-4.2-4.5-8.7-9.6-8.5-4.9.2-8.2 4.4-9 8.9 0 .1.2.2.3.1z" fill="#ecb99d" stroke-width="none" opacity="1" stroke="none"></path><path id="SvgjsPath10411" d="M130 97.8c-1.5.7-2.7-.3-3.9-1.6 1.2.1 2.5-.4 3.3-1.1.1-.1 0-.3-.1-.2-.6.3-1.2.5-1.9.7-.6.1-1.1 0-1.7 0-.7-.9-1.4-1.9-2-2.6 1.3-.4 2.4-1.6 2.3-3 0-.1-.2-.2-.3 0-.3 1.3-1.1 2.3-2.3 2.8-.1 0-.1-.1-.2-.1-.7-.5-1.4-.9-2.2-1.3.5-1 .9-2 1-3.1 0-.2-.3-.2-.4 0-.3 1-.7 2-1 3-.9-.3-1.8-.5-2.8-.4-.2-1.5.3-2.9 1.2-4.1.1-.2-.1-.3-.3-.2-1.3 1.1-1.7 2.8-1.3 4.3h-.4c-.8.1-1.5.3-2.2.6-.7-1.2-.8-2.3-.8-3.7 0-.2-.3-.2-.3 0-.4 1.3 0 2.8.8 3.9-.8.4-1.5.8-2.2 1.4-.9-.4-1.7-1.2-2.1-2.2 0-.1-.2 0-.2.1.2 1.1 1 2 1.9 2.4-.5.5-1 1-1.4 1.6-.5 0-.9 0-1.4-.1-.7-.2-1.2-.6-1.7-1.1-.1-.1-.3 0-.2.2.6.9 1.9 1.5 3.1 1.4-.3.6-.6 1.1-.8 1.8-.7.2-1.4.3-2.1.3-.2 0-.2.2 0 .3.7.2 1.4 0 2-.2-.2.6-.3 1.1-.3 1.7 0 .3.5.4.6.1 1.4-6 7.9-8.9 13.2-5.4 2.1 1.4 4.4 7.3 7.6 4.5.1-.4-.2-.8-.5-.7zm-3.8 1.7c.2-.3.4-.7.6-1.1.1-.2-.2-.3-.3-.2-2.4 1.6-4.3 3.4-7.3 3.8-3.5.4-6.4-1-8.8-3.4-.1-.1-.2 0-.2.1.8 1.2 1.9 2.1 3.2 2.8-.3.1-.5.3-.6.5-.2.2-.3.6-.2.8 0 .1.2.2.3 0l.3-.6c.1-.2.3-.4.4-.5l.1-.1c.8.4 1.6.8 2.5 1-.2.5-.4 1.1-.4 1.7 0 .2.2.2.3.1.3-.5.4-1.1.6-1.6.7.2 1.5.2 2.3.2h.3c0 .8 0 1.6.1 2.4 0 .2.3.1.3 0 .1-.8 0-1.6 0-2.3.8-.1 1.6-.2 2.5-.5.3.6.5 1.2.6 1.9 0 .1.2.1.2 0 0-.7-.2-1.4-.6-2 .8-.3 1.5-.6 2.2-1.1.1.1.2.2.2.3l.6.6c.1.1.2-.1.2-.2-.1-.2-.3-.5-.4-.7-.1-.1-.1-.2-.2-.2.4-.3.8-.7 1.2-1.1.8.1 1.5.4 2.2.7.1.1.3-.1.2-.2-.9-.7-1.6-1-2.4-1.1zm-15 .6c-.4.3-.8.8-.7 1.4 0 .1.2.1.2 0 .1-.2.1-.4.2-.6s.2-.4.4-.5c.2-.2 0-.4-.1-.3z" fill="#131111" stroke-width="none" opacity="1" stroke="none"></path></g></g></g><g id="svga-group-facehighlight-single"></g><g id="svga-group-eyebrows-left-move" transform="matrix(1,0,0,1,0,0)"><g id="svga-group-eyebrows-left-rotate" transform="matrix(1,0,0,1,0,0)"><g id="svga-group-eyebrows-left" transform="matrix(1,0,0,1,0,0)"><path id="SvgjsPath9934" d="M73.7 84.16c.04-.37.38-.65.63-.9.33-.33.68-.64 1.01-.95.02-.01.04-.03.05-.03.12-.31.33-.57.56-.81.26-.28.53-.54.85-.75.06-.08.15-.15.23-.22.06-.07.13-.14.19-.19.14-.12.26-.21.42-.28.21-.17.52-.28.75-.34.37-.09.75-.09 1.05.14.25.03.51.09.72.15.36.1.79.24 1.07.5.16.05.32.11.47.17.51.18 1.13.38 1.5.79.63.22 1.21.55 1.81.83.81.38 1.71.72 2.45 1.25.77.28 1.51.71 2.24 1.05.89.41 1.85.76 2.66 1.3.01.01.03.03.04.03.4.03.66.42.75.81.12.48.01 1.06-.29 1.46-.1.14-.28.19-.44.17-.12.1-.27.17-.45.19-.26.03-.56-.02-.81-.16-1.05-.19-2.07-.9-2.93-1.48-.77-.51-1.7-1.08-2.25-1.88-.8-.34-1.55-.92-2.26-1.41-.5-.35-1.03-.7-1.47-1.12-.3-.12-.59-.27-.87-.43-.48-.21-1.05-.41-1.47-.75-.16-.08-.31-.18-.46-.29-.26.01-.51-.01-.78-.03-.21-.02-.44-.01-.65-.06-.15.13-.31.23-.49.32-.24.14-.5.27-.76.21l-.27.36c-.41.53-.88 1.06-1.41 1.39-.01 0-.02 0-.03.01-.1.14-.21.28-.31.41-.22.28-.46.66-.83.74-.12.01-.24-.08-.22-.2z" fill="#e1c060" stroke-width="none" opacity="1"></path><path id="SvgjsPath9935" d="M93.61 87.02c.06-.16.29-.08.26.09-.19.83-.63 1.28-1.2 1.48-.02.01-.03.03-.04.04-.04.03-.07.02-.1 0-1.15.28-2.72-.36-3.65-.98-2.79-1.85-5.52-4-8.58-5.41-.78-.35-1.82-1.01-2.63-.68-.87.35-1.72 1.45-2.36 2.09-1.93 1.9-3.65 4.16-5.75 5.87-.22.18-.58-.1-.39-.34.37-.47.77-.94 1.18-1.39 1.03-1.31 2.24-2.58 3.27-3.82 1.21-1.48 2.42-3.25 4.07-4.27 1.42-.87 3.45.42 4.77 1.09 3.45 1.72 6.95 3.36 10.38 5.15.01.01.01.02.03.03.06.01.12.05.14.14.06.22.15.47.09.7-.03.1-.18.13-.25.05-.15-.18-.15-.45-.19-.68v-.03c-2.69-1.25-5.33-2.64-7.99-3.94-1.46-.72-2.9-1.52-4.44-2.05-.59-.21-1.43-.57-2.07-.35-.53.19-1.15.86-1.55 1.25-.81.8-1.52 1.7-2.24 2.61.91-1 2.3-2.76 3.56-2.91 1.44-.17 3.78 1.37 4.96 2.11 1.47.94 2.91 1.95 4.35 2.94 1.17.79 3.8 3.12 5.41 2.43.16-.23.32-.44.41-.73.13-.38.15-.83.13-1.24 0-.06.09-.11.11-.04.15.42.15.96.01 1.44.1-.21.21-.41.3-.65z" fill="#d2ae45" stroke-width="none" opacity="1"></path></g></g></g><g id="svga-group-eyebrows-right-move" transform="matrix(1,0,0,1,0,0)"><g id="svga-group-eyebrows-right-rotate" transform="matrix(1,0,0,1,0,0)"><g id="svga-group-eyebrows-right" transform="matrix(1,0,0,1,0,0)"><path id="SvgjsPath9936" d="M126.31 84.18c-.04-.37-.38-.65-.63-.91-.33-.33-.68-.64-1.01-.95a.187.187 0 0 1-.04-.03c-.12-.31-.33-.57-.56-.81-.26-.28-.53-.54-.85-.76-.06-.08-.15-.15-.23-.22-.06-.07-.12-.14-.19-.19-.14-.12-.26-.21-.42-.28-.21-.18-.51-.28-.75-.34-.37-.1-.75-.09-1.05.13-.25.03-.51.09-.72.15-.36.1-.79.24-1.07.49-.16.05-.32.11-.47.17-.51.18-1.13.38-1.5.78-.63.22-1.21.55-1.81.82-.81.37-1.71.71-2.45 1.24-.77.28-1.51.71-2.24 1.04-.89.41-1.85.75-2.66 1.29-.01.01-.03.03-.04.03-.4.03-.66.42-.75.81-.12.48-.01 1.06.28 1.46.1.14.28.19.43.17.12.1.27.17.45.19.26.03.56-.02.81-.16 1.05-.18 2.07-.89 2.94-1.47.77-.51 1.7-1.08 2.25-1.88.8-.34 1.56-.92 2.27-1.4.5-.35 1.03-.7 1.47-1.12.3-.12.59-.27.87-.42.48-.21 1.05-.41 1.47-.75.16-.08.31-.18.46-.28.26.01.51-.01.78-.02.21-.02.44-.01.65-.06.15.13.31.23.48.32.24.14.49.28.76.21l.27.36c.41.53.88 1.06 1.41 1.39.01 0 .02 0 .03.01.1.14.21.28.31.41.22.28.46.67.83.74.11.05.23-.04.22-.16z" fill="#e1c060" stroke-width="none" opacity="1"></path><path id="SvgjsPath9937" d="M106.39 86.98c-.06-.17-.29-.08-.26.09.19.83.63 1.28 1.2 1.48.02.01.03.03.04.04.04.03.07.02.1 0 1.15.29 2.72-.35 3.65-.97 2.8-1.85 5.53-3.99 8.6-5.38.78-.35 1.82-1 2.63-.68.87.35 1.71 1.45 2.36 2.1 1.93 1.91 3.64 4.17 5.73 5.88.22.18.58-.1.39-.34-.37-.47-.77-.94-1.17-1.39-1.03-1.31-2.24-2.58-3.26-3.83-1.21-1.48-2.41-3.26-4.06-4.28-1.41-.87-3.45.41-4.77 1.07-3.45 1.71-6.96 3.34-10.39 5.12-.01.01-.01.02-.03.03-.06.01-.12.05-.14.13-.06.22-.15.47-.09.7.03.1.18.13.24.05.15-.18.15-.45.19-.68v-.03c2.69-1.24 5.34-2.62 8-3.92 1.46-.72 2.9-1.51 4.45-2.04.59-.2 1.43-.56 2.07-.34.53.19 1.15.86 1.55 1.26.81.8 1.52 1.7 2.23 2.61-.91-1-2.29-2.77-3.55-2.92-1.43-.17-3.78 1.36-4.96 2.1-1.48.93-2.92 1.94-4.36 2.92-1.17.79-3.81 3.11-5.42 2.41-.16-.23-.32-.44-.41-.73-.13-.38-.15-.83-.12-1.24 0-.06-.09-.11-.11-.04-.15.42-.16.96-.01 1.44a2.13 2.13 0 0 1-.32-.62z" fill="#d2ae45" stroke-width="none" opacity="1"></path></g></g></g><g id="svga-group-nose-single-move" transform="matrix(1,0,0,1,0,0)"><g id="svga-group-nose-single" transform="matrix(1,0,0,1,0,0)"><path id="SvgjsPath10783" d="M106.48 114.01c-2.23.09-3.27 2.84-5.54 3.17-3.19.45-5.28-2.02-7.58-3.74-.08-.06-.21.06-.14.14.3.4.64.79 1 1.17-.5-.34-.87-.33-1.47-.37-.73-.05-1.25-.35-1.36-1.18-.04-.3.55-1.35.73-1.68.82-1.61 2-2.88 3.07-4.3.08-.1-.08-.26-.18-.18-.16.12-.32.26-.48.4.74-1.5 1.44-3.03 2-4.58.04-.12-.15-.2-.21-.09-.92 1.67-1.68 3.48-2.4 5.26-1.31 1.35-2.44 3.19-2.97 4.83-.73 2.27 1.71 1.96 3.16 2.24.18.03.26-.15.16-.27 1.5 1.58 3.45 2.87 5.61 3.05 2.98.24 4.36-2.2 6.69-3.54.12-.11.07-.34-.09-.33z" fill="#cd865f" stroke-width="none" opacity="1" transform="translate(0 2)" stroke="none"></path><path id="SvgjsPath10784" d="M108.82 112.74c-.19-.99-1.07-1.94-1.67-2.71-.72-.93-1.48-1.82-2.41-2.54-.18-.14-.34.14-.22.29.89 1.13 1.9 2.14 2.75 3.3.57.78 1.55 1.89.7 2.98-.5.64-1.65.74-2.39.93-.09.02-.07.15.02.16 1.44.11 3.58-.54 3.22-2.41z" fill="#cd865f" stroke-width="none" opacity="1" transform="translate(0 2)" stroke="none"></path><path id="SvgjsPath10785" d="M97.07 106.9c2.12-.61 4.06-.55 6.22-.38.16.01.17-.21.04-.26-2.04-.74-4.39-.4-6.34.44-.13.05-.04.23.08.2z" fill="#cd865f" stroke-width="none" opacity="1" transform="translate(0 2)" stroke="none"></path><path id="SvgjsPath10786" d="M103.63 108.35c-1.09-1.49-3.61-.05-2.51 1.47 1.39 1.92-.3 3.43-2.28 3.58-.57.04-.83.66-.45 1.1 1.34 1.56 3.69 1.13 5.01-.29 1.5-1.61 1.5-4.12.23-5.86z" fill="#ffe1d0" stroke-width="none" opacity="1" transform="translate(0 2)" stroke="none"></path></g></g><g id="svga-group-hair-front" transform="matrix(1,0,0,1,0,0)"><path id="SvgjsPath9728" d="M172.8 133.8c-.3-1.3-1.3-1.6-2-2.6-1.8-2.6-.7-2.9.3-5.1.8-1.7.8-3-.3-4.5s-2.3-1.2-2.3-3.7c0-1.4 1.1-2.8 1.3-4.2.2-1.7 0-3.1-1.1-4.4-1.7-1.9-3-.5-2.6-4.2.1-1.3.9-2.5.9-3.9 0-1.7-.4-3.6-1.8-4.6-1-.8-2.9-.7-3.4-2.2-.2-.7.8-3.5.7-4.8-.2-1.3-.9-2.2-2.2-2.3-.6-.1-1.3-.1-1.9-.2.4-1.4 1.5-2.9 1.3-4.3-.3-1.5-1.2-2.5-2.5-3.1-2.2-1-2.5-.4-2.1-3.1.1-.8.7-1.6.9-2.5.3-1.6.2-3.2-.8-4.5-1.3-1.7-2.7-1.3-4.4-1.9-.7-.3-1.1-.4-1.3-.7-.1-.4-.2-.8-.4-1.1 0-.4 0-.9-.1-1.6-.1-1.4.2-1.9-.4-3.2-1.2-2.8-4.2-3.9-6.8-3.1-.2-1.5.4-4.2-.8-5.4-.8-.8-1.8-1.2-2.8-1.4-.1-.2-.3-.3-.5-.5-.3-.2-.6-.5-.9-.6-.2-3.7-.8-8.2-4.9-7.8-1.1.1-1.9 1.1-2.9.5-.7-.5-1.1-2.8-1.7-3.5-1.1-1.3-2.3-2-4-2-2.7 0-3.8 1.5-5.7 1.7l-.3-.3c-1.3-1.1-2.8-1.5-4.4-1.4-.9-.6-1.8-1.1-3.3-.9-.7.1-1.2.5-1.8.8 0 0-.1 0-.1-.1h-.1c-.9-.7-1.1-1.5-2.5-1.8-1.7-.3-3 .3-3.8 1.4-.1 0-.3 0-.4-.1h-1.1c-.9-1-1.9-1.9-3.3-2.1-.6-.1-1.1 0-1.6.2-2.1-1.2-4.8-1.5-7.1-.9-1.5.5-2.4 1.3-3.3 2.2-.3.2-.7.4-1 .6-.4.3-.8.7-1.1 1.1-1.4.8-2.8.8-4.2.5-.9-.3-1.9-.7-2.6-.8-.6-.1-1.2-.1-1.8-.1-.5-.1-1.1-.1-1.7 0-1.9.2-3.7.9-5 2.4-.2.3-.4.6-.6.8-.5.7-1 1.4-1.3 2.2 0 .1-.1.3-.1.6-.4.4-.9.8-1.9 1.1-2.4.7-4.2 1.2-5.8 3.3-1.6 2.2-1.2 4.4-3.5 6-1.8 1.2-3.5 1.4-4.7 3.6-1 1.8-.6 3.8-.8 5.5-.3.6-.6 1.2-.8 1.8-1.2 1.5-3.5 1.9-4.7 3.7-1.5 2.1-1.1 3.7-1 5.7-.3.2-.6.3-.9.5-1.8 1.4-3.5 3.4-3.5 5.9 0 .3 0 .6.1.9 0 0 0 .1-.1.1-1.1 2.1-.8 4-.5 6.2.3 2.9-1.6 2.7-2.9 5-1.7 2.8.7 6-1.4 8.9-1.3 1.9-3.3 2.3-3.3 5.1 0 2.7 3.3 4.9 1.5 7.5-1.3 1.9-3 2-3.4 4.7-.4 3.2 1.5 6.4.9 9.7-.2.8.7 1.3 1.3.8.6-.5 1-.9 1.2-1.5v.8c.3 2 1.4 2.7.8 4.8-.5 2-2.1 2.6-3 4.3-1.5 2.9 0 6 1.4 8.6 1 1.8 3.6.2 2.7-1.6-1.3-2.8-.7-4.8 1-7.2.5-.7 1.3-1.2 1.7-2 1-2 .2-3.3-.2-5.3-1-4.2.8-5.1 2.8-8.2 1-1.6 1.7-3.2 1.4-5.1-.3-2.3-2.3-3.7-2.9-5.7-.5-1.9.6-2.8 1.8-3.6.5 1.4 1.4 2.6 2.3 4 1.6 2.5 1.3 4.1.3 6.8-.4.9-.6 1.8-.6 2.8 0 3.1 3.6 5.5 2.8 8.6-.6 2.1-2.6 3.3-2.6 5.7 0 1.2.6 2 1 3.1 1 2.4 1.5 4 .5 6.6-.3.7.6 1.2 1.1.9 2-1 3.1-2.7 3-5-.1-3.6-2.7-4.7-.4-8.3 1.4-2.1 2.3-4 1.5-6.6-.4-1.3-1.8-2.2-2.1-3.4-.7-2.4.8-3.2 1.7-4.8l.3-.6c.3.1.7.2 1 .3.3 2.6 1.9 3.4 3.5 5.1-1 .9-2.1 1.6-2.5 3.4-.3 1.4-.1 2.9 1 3.9.1.1.2.2.3.2-.2.2-.4.5-.6.8-.9 1.4-1.3 2.8-1 4.4.8 4 5.3 5.3 1.3 10-.9 1 .5 2.4 1.5 1.5 1.3-1.2 2.6-2.6 3-4.3 1.4 1.4 2.6 3 1.4 3.7-.9.5-.1 1.9.8 1.5 2.4-1.1 2-3.6.6-5.5-1.3-1.8-3.1-1.5-2.1-4.9.2-.6.8-1.2 1.1-1.7.7-1.5 1.1-3.4.4-4.9-.4-.7-1.2-1.3-1.9-1.8.9-1.1 1.7-2.2 1.9-3.6.4.4.9.7 1.2 1.4 2 3.5 1.3 3.6.6 6.3-.5 1.8-1 3.5-.3 5.4.8 2.1 5.7 4.7 3.9 7.3-.4.6.4 1.4 1 1 2.1-1.4 1.6-3.8.2-5.7-1.4-1.9-2.9-3.3-2.7-6 .1-1.1 1.1-2.5 1.3-3.6.4-1.6.6-3.1-.1-4.7-.3-.9-1.3-1.6-1.6-2.4-1.4-3.8-.2-3.2.6-5.6.7-2.2 1.5-4.3.7-6.6-.9-2.6-3-3.4-1.8-6.5.8-2 2.4-3.4 2.7-5.7.3-1.8-.3-3.3-1.2-4.9-1.7-3.2-1.6-4 1-6.4 2.4-2.3 4.3-4.9 2.5-8.1l5.4-1.1c0-5.1 2.1-13.2 2.1-13.2-1.1 6-.4 13.3-.4 13.3l8.5-.3 2.4-11.6c-.8 6-.8 11.9-.8 11.9l5.8.1c0-3.2 2.5-22.5 2.5-22.5-.8 6.6-.8 22.2-.8 22.2 4.3.6 10.4 0 10.4 0 .4-3.2 1-21.3 1-21.3 1.2 8 2.2 21.1 2.2 21.1.7-2 2-8.3 2-8.3.3 2.1-.4 8.6-.4 8.6l4.4.1.5-4.8 1.8 4.6c.7-8.6-.5-21.8-.5-21.8 1.5 7.4 2.1 21.2 2.2 21.3h8.5c.8-3.2-.3-15-.3-15 2.2 5.3 2.1 15.3 2.1 15.3 3.1.3 5.8.8 5.8.8l.5-10.5c.3 2.4.9 10.8.9 10.8s3.1 1 5.2 1.5c-.1.4-.1.7 0 1.1.3 1.4 1.5 2.1 2.4 2.9-.5 1.2-.9 2.3-.9 3.4.1.7.2 1.2.4 1.7-1.4 1.3-3.2 2.1-3.7 4.3-.5 2.2.7 3.3 1.9 5 1.4 1.8 2.3 3.1.4 5.2-.6.7-1.9 1.1-2.6 1.8-1.1 1-2 2.2-2 3.8 0 1.8 1.1 3 2.4 4 2.3 1.9 7 3 2.6 6.3-3.1 2.3-7.8 4-3.8 8.6 1.5 1.8 3.4 3.7 2.6 6.6-.3 1.1-1.8 1.8-2.1 3-.4 1.8 2.1 4.1 1.6 5.3-.5 1.1 1.1 2.1 1.7 1 .8-1.7.4-1.5 0-3.3-.6-2.6-.2-3 .9-4.9.4-.7 1-1.2 1.2-2 .5-1.7-.1-3.3-1.1-4.7-.6-.8-2.1-1.6-2.5-2.4-1-2.5.9-3.8 2.9-4.8 1.2-.6 2.3-1.5 3-2.5.9 2 2.2 2.2 1 4.9-.7 1.6-1.9 2.3-1.5 4.3.5 2.8 3.5 2.4 1.3 5.6-.6.9-1.9 1.3-2.1 2.5-.8 3.4 4 3 1.1 8.2-.3.5.4 1 .8.6 1.3-1.2 1.9-2.6 1.6-4.5-.1-.7-.8-1.5-.9-2.1-.5-4.3.8-2.1 1.9-3.9 1.1-1.8 1.3-1.8 1.1-4-.1-1.5-1.4-2-.6-3.9.4-1 1.8-1.8 2.2-2.9.9-2.2-.1-3.1-.8-5.1-.6-1.9-.8-3.2-.2-5 .3-.9.9-1.7 1.2-2.6.6.8 1.4 1.4 2.3 2 .2.1.5.3.7.4.5 2.5 1.9 4.7 1 7.6-.9 2.9-2.4 5.1-1 8.3.8 1.9 1 1.2.5 2.5-.4 1-1.3 1.5-1.6 2.7-.6 2.8 2 5.2 1.6 7.8-.2 1.6 1.6 2.4 2.5 1.1 1.2-1.7 1-3 .8-5-.2-1.8-.5-2.2.6-4 .5-.8 1.1-1.1 1.4-2.1.4-1.4-.2-2.6-.8-3.8 1.5 1.6 3.5 2.9 3.1 5.5-.4 3-2.7 5.5 1.3 7.2 1.5.6 2.3-1.8 1.1-2.5-.5-.3-.2-1.6.3-3 .8.7 2.2.3 2.3-1 .2-2.8 2.6-5.5 2.1-8.4-.2-1-.8-1.5-1.1-2.3-.9-2-1.1.1-.6-2.8.3-1.5 1-1.9 1.6-2.9 0 .1.1.2.1.3.5 1.1 1.3 1.2 1.9 2.2 1.5.4 1.9 1.6 1.2 3.5-.5.6-.9 1.3-1.1 2.1-.4 1.5 0 2.1.6 3.5.3.4.7.7 1.1 1 1.5 1.6 1.6 2.9.2 3.8 0 .5-.3 1-.3 1.6-.1 1.4 2 1.4 2.1 0-.1-2.5 2.1-2.6 1.6-4.9zM33.5 121.9c-.8 1.1-1.6 2.2-2.1 3.4v-1c-.1-1.3-1-3.1-.8-4.5.6-3.8 2.1-2.2 3.2-4.1.2-.3.4-.7.5-1 1.5 3 1.1 4.6-.8 7.2zm.2-16.3c-.4.3-.7.7-.9 1.1 0-1.9 1.7-2.1 3-3.8.4-.5.7-1 .8-1.5.1.3.2.7.1 1.1-.2 2-1.7 1.8-3 3.1zM133 54.8c-.2 0-.4-.1-.5-.1-.4-.6-.8-1.1-1.2-1.7.4-.1.8-.1 1.2-.2.5.7 1.1 1.4 1.6 2.1-.4 0-.7 0-1.1-.1zm-2-7.7c1.9.1.6-2.7 1.9 1.2.1.3.2.7.2 1-1 .2-1.7.4-2.4-1.3l-.3-.9h.6zm-55.7-4.7c.4 0 .7.1 1.1.2-.3.5-.6 1-.7 1-.4.2.2-.2-1.2-.6-.7-.2-1.3-.3-1.9-.3.7-.3 1.6-.4 2.7-.3zm-8.4 11.5c-.1.9-.5 1.7-1.6 2.1.1-.4 0-.8-.3-1.2.7-.3 1.3-.6 1.9-.9zm-11.6 3.4c-.1.6-.5 1.2-1.4 1.9l-1.2.6c.6-1.3 1.5-2.1 2.6-2.5zm-2.8 11.5c.2-3 1.1-3.7 2.6-4.4.1 1.7.8 2.8-.5 4.2-.7.7-1.3.9-2.1 1.2v-1zm1.4 13.5c-.1-.1-.2-.2-.2-.3-.8-1.1-.7-2.4-.2-3.9v.1c.4 1.9.8 3 .4 4.1zM47 70.6c-.2.6-.6 1.2-1.1 1.7l-.1.1c.2-.8.7-1.3 1.2-1.8zm-5.7 29.9c-.1.2-.3.3-.4.4-1.1-2.7-3.4-5.2-1.4-7.4.2-.2.4-.5.7-.6v.1c.1 3.2 3.2 5 1.1 7.5zm1.5-19.4c1.3-.9 2.7-1.7 3-3.5v-.2s.1 0 .1-.1c.2-.1.4-.1.6-.2-.2 1.5.2 2.8.5 4.5.3 2 .4 2.4-1.4 3.7-.2.2-.5.4-.8.5-.3-.9-.8-1.5-1.2-2.4-.7-1.8-1.3-1-.8-2.3zm2.6 27.5c-.9-1-1.8-2.2-1.4-3.2.2-.5 1.4-1.1 2.3-1.6.1.3.3.6.5.9.4.5.8.9 1.3 1.3-.8.8-1.8 1.6-2.7 2.6zM47.5 91c.3-.3.6-.5 1-.8.4-.3.9-.6 1.3-.8 0 .1.1.2.1.3-.8.4-1.7.8-2.4 1.3zm2.6 2.7c-.2.6-.6 1.2-1 1.8.1-.7.4-1.3 1-1.8zm.7 17.5c-.4.9-.9 1.6-1.3 2.2-.9-.3-1.2-1.1-.5-2.9.4-.9 1.2-1.6 2.1-2.3.2.8.2 1.7-.3 3zm2.2 25.1c-.1.3-.1.5-.2.8-.3-.4-.5-.8-.7-1.2-.8-2 0-3.5 1.2-5 .8.3.9 1.2.1 2.7.3 1.1.2 2-.4 2.7zm.7-11.1s.1 0 0 0c.2.6.1 1.1-.2 1.6 0-.4 0-1 .2-1.6zm.3-5.8c-.3-.6-.5-1.1-.6-1.6.5.3.8.7.6 1.6zm4-3c-.7-1.3-2.1-2.2-3.8-2.5H54c.2-.5.5-.9.7-1.4.5-.9.9-1.7 1.2-2.5.3.6.9 1 1.2 1.7 1.3 2.3 1.4 3.5.9 4.7zm.6-16.8c-.2 1.9-2.2 3.8-2.9 5.6l-.3 1.2c-.4-.6-.9-1-1.4-1.4 1.3-3.2-.5-4.4-2.4-5.9 1.1-1.6 3-3.2 3.6-4.9.6-1.8.2-2.8-.4-3.9.9-1.1 1.6-2.3 1.6-3.8 0 0 0-.1.1-.1.1.1.1.3.2.4.1.5.1 1 .1 1.5-.7 1.1-1 2.3-.9 3.6.2 3 3.1 4.9 2.7 7.7zM61.1 84c-.1.2-.2.5-.4.7v-1.5c0-.8-.3-1.5-.6-2.1.8.9 1.4 1.9 1 2.9zm88.3-9.8c.3-.8.5-1.7.5-2.5.5.1.9.2 1.1.4.9.9-.1 2.6-.7 4-.5-.3-.9-.6-1.2-1.1.1-.3.2-.5.3-.8zm-9.2-12.7c.6.4 1.4.2 1.9-.2 1.8.3 2.9.9 3.2 1.6-.1 0-.2-.1-.3-.1-1.4-.4-4.1-.1-5.2-1l-.1-.1c0-.2-.1-.5-.1-.7.2.2.4.4.6.5zm-.7 31.2c.3.2.5.4.8.7.3.2.7.4 1 .6.2.5.4 1 .7 1.4.1 1.5-.5 2.7-1.7 3.5-.1.1-.2.3-.3.4-.6-.5-1.4-1-1.8-1.6-1.1-2-.3-3.6 1.3-5zm1.9 22c-.2.4-.4.9-.5 1.3-1-1.5-2.8-1.9-4.1-3.1-3.3-2.9-.6-4 1.9-5.9.3-.2.7-.5 1-.8.5.5 1.1.9 1.5 1.5 2.9 3.8 1.4 4.2.2 7zm4.4-9.9c-.1.2-.1.4-.2.7-1-.9-2.5-2-2.3-3.4.1-.9 2.7-3 3.2-4.2.2.1.5.1.7.2.1 1.2.1 2.5.2 3.7-.3 1-1.3 1.9-1.6 3zm2.8-10.3c-.5-.1-1.1-.2-1.5-.4-.1-.1-.2-.2-.4-.2-.2-.5-.4-.9-.7-1.3-.3-.5-.8-.8-1.2-1.1-.2-1.1.4-2.1.8-3.4.4-1.1.8-2.1 1.2-3.2.3.2.5.4.8.7 4 3.2 1.5 5.3 1 8.9zM151 110c-.1-.4-.2-1-.4-1.8-.9-4-.4-3 .8-5.8.2-.4.3-.8.5-1.2.4.4.8.9 1.2 1.5 1.4 2.5-.8 4.9-2.1 7.3zm3.6-13.8c0 .2-.1.5-.1.7-.6-1.2-.6-2.3-.3-3.3.3.5.6 1.2.4 2.6zm7.2 4c-1-.4-1.9-.5-2.5-1 .8.3 1.8.4 2.5 1zm-.7 31.2c-.2-.2-.4-.5-.6-.7-1.8-2.2-4.1-2.2-2.6-6.2.2-.5.5-1 .8-1.5-.4 2.5 1.3 3.1 2.3 5.1.6 1.1.4 2.2.1 3.3zm-.8-11.9c-.1.1-.2.3-.2.4v-.1c.1-3.2-2.3-5.1-4.8-6.5.2-1.3.8-2.5 1.7-3.9 1.1-1.9 2.2-3.8 1.9-6.1.9.4.8-.3 1.2 1.4.3 1.7-.2 1.2-.6 2.4-.4 1-1 1.8-1.1 2.9-.3 2.4.6 3.2 2 4.8.2.2.8.2 1 .3 1.2 1.7-.3 2.9-1.1 4.4zm3.8-8c-1.1-1-.9.5-1.2-1.2.9.8 1.9 1.2 2.4 2.1-.4-.3-.8-.5-1.2-.9z" fill="#e1c060" stroke-width="none" opacity="1" stroke="none"></path><path id="SvgjsPath9729" d="M85.6 49c-4.5 8.4-6.6 17.1-7.1 26.5 0 .1-.2.1-.2 0-.2-9.5 2.5-18.5 7.1-26.7 0-.1.2 0 .2.2zm-.2-6.9c-7 8.3-10.5 20.2-9.2 31 0 .2.4.2.4 0 0-11.5 2.9-21 9.2-30.6.2-.3-.2-.7-.4-.4zm-8.6 8.1c.1-.2-.2-.2-.3-.1-3 7.8-4.5 15.9-3.8 24.2 0 .2.3.2.3 0-.2-8.3.9-16.2 3.8-24.1zm18.6-5.4c0-.1-.2-.1-.2 0 .5 10 .5 20 .7 30 0 .2.4.2.4 0 .7-10 .1-20.1-.9-30zm1.1 1c.7 10.9.8 21.4-.2 32.3 0 .3.4.3.5.1 1.8-10.5 2-21.9.1-32.4-.1-.2-.4-.1-.4 0zm4.8-2.3c2.5 10.4 4.8 20.5 4.4 31.3 0 .3.4.3.4 0 1.1-10.7-1.5-21.2-4.4-31.4-.1-.2-.5-.1-.4.1zm3.8 4.5c1.6 5.9 2.8 11.9 3.8 17.9 0 .2.5.2.5-.1-.5-6.1-1.9-12.2-3.9-18-.1-.1-.5 0-.4.2zm2.4-3.6c4.1 10.3 8 19.7 7.6 31 0 .3.5.3.5 0 1.4-10.7-2.7-21.8-7.8-31.1-.1-.2-.4-.1-.3.1zm10.9 3c6.5 7.5 8.2 16.6 8.9 26.3 0 .2.3.2.3 0-.4-9.5-2.2-19.4-9.1-26.4 0-.1-.1 0-.1.1zm9.2 12.8c-.5-2.9-1.7-5.7-3.2-8.2-.1-.1-.3 0-.2.1 1.4 2.6 2.4 5.3 3.2 8.1 0 .2.3.2.2 0zm6.3 17.9c.1-8.3-1.7-16.6-5.4-24-.1-.2-.3 0-.3.1 2.9 7.9 4.6 15.5 5.2 23.9 0 .4.4.4.5 0zM72.2 54c-1.8 3.2-3.1 6.6-4 10.1 0 .1.2.2.2 0 1.1-3.4 2.4-6.8 4.1-10 .1-.1-.2-.3-.3-.1zm-5.7-6.4c-1.9.3-3.4 1.2-4.2 3-.7 1.5-.8 3.7-1.2 5.3-1 3.4-1.5 2.7-3.7 4.5-1.2 1-2.1 1.9-2.1 3.6 0 .9.5 1.6.7 2.5.5 2.3.3 4.4-1.1 6.1-.6.7-1.6 1-2.3 1.7-1.2 1.2-2.1 2.5-1.6 4.2.6 2.2 2.7 3.6 1.5 6.5-.4.8-1.7 1.5-2.2 2.3-1.5 1.9-1 2.7-.5 4.8.8 4-1.6 6.4-1.1 10.2 0 .2.3.2.3 0-.1-4.2 3-4.5 3-7.7 0-1.1-.7-1.5-1-2.5-.7-2.7-.2-3.8 1.6-5.7.9-1 2.1-2 2.2-3.4.4-3.7-5-3.2-.2-8.6 1.3-1.5 3.4-1.9 3.8-4.2.5-3.4-3.8-5.1.1-9 1.2-1.2 3.1-1.5 4.2-3 2.2-3.1-2-8 4.2-9.8.3-.2.1-.9-.4-.8zM44.9 85.3c.2-.2 0-.6-.2-.4-6.3 3.9 1.5 6.9-2.6 12.5-2.6 3.6-3 3.9-1 8 1.1 2.3 1.1 3.7-.4 5.8-.5.7-1.3 1.2-1.7 2-.8 1.5-.6 2.1-.2 3.6.4 1.5.9 1.6 1.4 3.5.6 2.9-.5 2.7-.5 5.1-.1 2.7 3 4.1 2.4 7 0 .2.3.3.4.1.5-1.7 0-2-.4-3.8-1.1-1.6-1.2-3.4-.3-5.5l.6-1.2c0-.5.3-1.1.2-1.6-.2-1.5-1.5-2-2.1-3.2-2.1-4.6 1.9-4.7 2.8-7.8.3-1.1.1-1.9-.3-3-1.1-2.5-1.8-1.5-1.3-4.9.4-2.9.8-2.5 2.2-4.5.8-1.1 1.3-1.9 1.2-3.3-.2-3-4.5-5.3-.2-8.4zm105.5 25.6c-.6-2.9-.1-5.4 1.2-7.9.3-.5.6-1 .8-1.6.3-1.1.5-1.9.2-3s-.9-1.3-1.5-2.1c-1.4-2.2-2.8-4.5-2.2-7.3.3-1.8 1.4-3.4 1-5.3-.2-1.3-.9-2.2-1.9-3.1-.7-.6-1.7-.9-2.4-1.6-2.4-2.2-2.4-4.8-2.4-7.6.1-4-.6-6.8-4.1-9.1-2.8-1.9-3.4-1.2-4.9-6.2-.3-1.1 0-2.2-.4-3.4-.4-1.2-1.1-2-2.1-2.7-1.7-1.3-3.5-1.3-5.4-1.9-7.7-2.3-3.3-1.8-5.6-5.2-2.2-3.3-8.2-2.9-11.4-1.8-.4.1-.2.7.2.6 4.9-1.1 8.1-.4 11 4 .8 1.2.1 1.4 1.3 2.4.8.7 1.9.7 2.9 1 1.2.3 2.6.2 3.8.6 3.2 1.2 3.8 3.4 4.5 6.5.6 2.9.8 4.3 3.4 6.1 4.2 2.8 6 5 5.3 10.4-.2 1.3-.4 2.5 0 3.8.3 1.1.9 1.8 1.8 2.6 2.1 1.8 2.8 1.4 4.1 4.5 1.6 3.7 0 4.1-.2 7.8 0 1 0 1.8.4 2.7.6 1.3 1.9 1.9 2.7 3 2.4 3.4.2 5.1-1.1 8.2-.4 1-.8 1.8-.8 2.9.1 2.5 3.8 6.3.8 8.5-.2.2 0 .5.2.4 3-1.5 1.3-3.9.8-6.2zm12 15.1c.2-1.8 1-2.4.5-4.2-.8-2.9-3.4-4.4-3.1-7.8.2-2.2 1.6-4.2 1.7-6.5 0-1.4-.3-2.5-1.1-3.7-.4-.5-1-.8-1.3-1.3-2.4-3.2-2.3-4.5-2-7.9.4-4-.3-7.1-3.2-10-.3-.3-.7.1-.5.5 2.9 3.6 2.9 6.7 2.4 11-.2 1.7-.4 3.2.4 4.8.6 1.2 1.8 1.7 2.5 2.8 2.2 3.7.7 5.9-.1 9.4-.7 3.5 1.1 4.5 2.5 7.4 1.3 2.8.3 4-.1 6.7-.4 2.5 1.5 3.9 1.6 6.5 0 .4.5.3.5 0 .4-2.5-1-5-.7-7.7zm-19-18.8c-1.9-3.5-1.5-5.6 0-8.4 2.7-5.2-1.6-5.1-2.1-10.5-.2-1.7.7-2.4-.4-4-.4-.6-1-.9-1.5-1.3-2.8-2.7-3.8-5.5-3.2-9.5 0-.2-.2-.3-.3-.1-1.3 4.4.5 6.7 2.9 10.1 2.2 3 .3 4.8 1.2 7.4.2.5.6.8.8 1.2 1.1.7 1.6 1.8 1.5 3.2.9 1.3.9 2.5-.2 3.5-1.3 3.3-3 4-.7 7.5 2 3 3.9 4.2 2.9 8.4-.3 1.3-1.1 2.4-1.2 3.7-.2 3.1 2.9 5.9.7 9.1-.2.2.2.4.4.2.9-1.1 1.1-2 1-3.5-.4-3.7-1.8-2.5-.6-8 .3-1.2.7-1.5.9-2.7.2-1.5-.1-3.1-.7-4.5-.6-.9-.9-1-1.4-1.8zM88.9 38c-1 .2-1.5.7-2.4 1.2-1.6.9-2.9 2.1-5 2.4-1 .1-2-.2-3 0-1.8.3-2.4.9-3.3 2.4-.6.9-.5 1.5-1.3 2.7-1.2 1.7-1.3 1.2-2.4 2.3-.7.7-1.2.9-1.7 1.8-.1.3.2.5.4.2 1.2-1.8 3.4-2 4.6-3.6 1.6-2.1.9-4.2 4.9-5 1.4-.3 2.9.4 4.3 0 3-1 5.7-4.8 9.2-2.1.3.3.8-.3.5-.6-1.3-1.3-2.9-2-4.8-1.7zm-34.7 93.6c-.6-3.1-3.4-3.3-1.6-7.8.5-1.2 1.6-2.2 1.6-3.6.2-4-5.1-3.8-1.3-9.7.1-.2-.2-.5-.3-.3-1.2 1.6-1.9 3.2-1.4 5.3.3 1 1.2 1.6 1.5 2.5.5 1.6.1 3.4-.5 4.8-.4 1.1-1.3 1.9-1.5 3.1-.1.9.1 1.5.4 2.3.9 2.1 1.8 3.2 1.5 5.8-.2 2.4-.9 3.7 1 5.8.2.2.6-.1.4-.3-2.2-3.8.8-4.8.2-7.9zm99.6-11.9c-.4-1.4-.7-2.8-.9-4.2.2-1.3.5-2.7.8-4 0-1.8.2-1.1-.4-2.8-.1-.4-.8-.2-.6.2.6 2.6-.6 4.2-.6 6.6 0 2.9 1.7 4.6.4 7.9-.8 2.1-1.4 2.3-1.2 4.6.2 2 1.4 3.6.4 5.8-.3.7-1 1.2-1.2 2-1 2.8 1.2 3.3 1.9 6 0 .1.3.1.3 0-.1-3 .1.9-.6-2.1-1.2-1.2-1.3-2.7-.3-4.5.5-.6.9-1.2 1.3-1.9 1-2.1.1-2.6-.4-4.6-.8-3.3 1.4-5.6 1.1-9zm-19.8 4.8c.2-.2-.1-.5-.3-.3-2.4 2.1-.4 4.2 1 6.2 3.1 4.5.4 4.8-.3 8.2-.4 1.9 1.1 3 .9 4.9 0 .4.5.4.6.1.4-1.6 0-.3-.1-2-.1-2.1-.2-3.3.6-5.1.2-.5.5-.9.7-1.4.8-3.5-5.4-8.2-3.1-10.6z" fill="#f0d37f" stroke-width="none" opacity="1" stroke="none"></path></g><g id="svga-group-glasses-single-move" transform="matrix(1,0,0,1,0,0)"><g id="svga-group-glasses-single" transform="matrix(1,0,0,1,0,0)"><path id="SvgjsPath12081" d="M73.9 90.6s-6.6 2.3-7.2 7.7c-.6 5.4 5.8 9.9 10.5 10.8s10.1.6 13.7-1.6c3.7-2.2 5.4-5.4 4.3-9.2s-5.4-7.1-11.4-8.2c-6-1.1-9.9.5-9.9.5z" fill="url(#SvgjsLinearGradient12082)" opacity="1"></path><path id="SvgjsPath12087" d="M126.1 90.6s6.6 2.3 7.2 7.7c.6 5.4-5.8 9.9-10.5 10.8s-10.1.6-13.7-1.6c-3.7-2.2-5.4-5.4-4.3-9.2 1.1-3.8 5.4-7.1 11.4-8.2 6-1.1 9.9.5 9.9.5z" fill="url(#SvgjsLinearGradient12088)" opacity="1"></path><path id="SvgjsPath12093" d="M122.9 87.3c-9.9.1-13.9 3.6-17.3 5.4s-7.7 1.8-11.1 0c-3.4-1.8-7.4-5.3-17.3-5.4s-15.5.8-15.4 3.7.6 4.4 2.8 5.6c.9.5 1.4 1.1 1.7 1.5v.1c-.3 2.8 1 5.6 3.7 7.8 2.6 2.2 6.2 3.6 10.2 4 .7.1 1.4.1 2.1.1 7.3 0 13.3-3.8 13.8-9 .4-3.5 3.1-3.6 3.1-3.6h1.7s2.7.2 3.1 3.6c.5 5.2 6.5 9 13.8 9 .7 0 1.4 0 2.1-.1 4-.4 7.6-1.8 10.2-4 2.7-2.2 4-5 3.7-7.8v-.1c.2-.4.7-1 1.6-1.5 2.1-1.2 2.6-2.7 2.8-5.6.1-2.9-5.4-3.7-15.3-3.7zm-27.8 13.8c-.5 5.2-7.2 8.8-14.9 8.1-3.8-.4-7.2-1.7-9.7-3.8-2.4-2-3.6-4.5-3.4-7 .5-4.7 6.1-8.2 12.9-8.2.7 0 1.4 0 2.1.1 7.7.7 13.5 5.6 13 10.8zm34.4 4.3c-2.5 2.1-5.9 3.4-9.7 3.8-7.7.8-14.4-2.8-14.9-8.1S110.2 91 118 90.3c.7-.1 1.4-.1 2.1-.1 6.8 0 12.4 3.4 12.9 8.2.1 2.4-1.1 4.9-3.5 7z" fill="#4d1f1f" stroke-width="none" opacity="1"></path><path id="SvgjsPath12094" d="M122.9 87.4c-3.1.1-6.2.4-9.1 1.4-1.5.5-2.9 1.1-4.2 1.8-1.4.7-2.6 1.6-4 2.3-2.8 1.4-6.1 1.7-9.1.8-1.5-.4-2.9-1.2-4.2-2-1.3-.8-2.7-1.5-4.1-2.1-2.8-1.2-5.9-1.8-8.9-2-1.5-.1-3.1-.1-4.6-.1-1.5 0-3.1.1-4.6.2-1.5.1-3.1.3-4.6.6-.8.2-1.5.4-2.1.8-.7.3-1.2.9-1.3 1.7 0 1.5.1 3.1 1 4.4.4.6 1 1.1 1.7 1.5.7.4 1.3.9 1.7 1.6-.2 1.9.3 3.8 1.4 5.3 1.1 1.6 2.5 2.8 4.1 3.8 3.2 1.9 7.1 2.8 10.8 2.7 1.9-.1 3.8-.3 5.6-.9 1.8-.6 3.5-1.5 4.9-2.7.7-.6 1.3-1.3 1.8-2.1.3-.4.4-.8.6-1.2.1-.4.3-.9.3-1.3.1-.9.3-1.9.9-2.8.6-.8 1.4-1.4 2.5-1.6h1.7c1 .1 1.9.7 2.5 1.6.6.8.7 1.9.9 2.8.1.5.2.9.3 1.3l.6 1.2c.5.8 1.1 1.5 1.8 2.1 1.4 1.2 3.1 2.1 4.9 2.7 1.8.6 3.7.9 5.5.9 3.7.1 7.5-.8 10.7-2.8 1.6-1 3.1-2.2 4.1-3.8 1.1-1.5 1.6-3.4 1.4-5.3v-.1c.3-.5.7-.9 1.1-1.2.4-.3.9-.5 1.4-.9.9-.6 1.4-1.5 1.7-2.6.1-.5.2-1 .2-1.6 0-.5.1-1.1 0-1.6-.1-.2-.2-.4-.4-.7-.2-.2-.4-.4-.6-.5-.2-.2-.4-.3-.7-.4-.2-.1-.5-.2-.7-.3-2-.7-4.2-.8-6.3-1-2.3.1-4.5.1-6.6.1zm0-.1c2.1 0 4.3 0 6.4.1 2.1.1 4.3.3 6.4.9.3.1.5.2.8.3.2.1.5.2.7.4.2.1.4.3.6.5.2.2.3.4.4.7.2.6.1 1.1.1 1.6-.1.5-.1 1.1-.2 1.6-.2 1.1-.8 2.1-1.7 2.7-.4.3-.9.6-1.3.9-.4.3-.8.7-1 1.1V98c.2 1.9-.3 3.9-1.4 5.5-1.1 1.6-2.5 2.9-4.2 3.9-3.3 2-7.2 2.9-11 2.8-1.9 0-3.8-.3-5.7-.9-1.8-.6-3.6-1.5-5-2.8-.7-.7-1.4-1.4-1.9-2.2-.3-.4-.4-.9-.7-1.3-.1-.5-.3-.9-.4-1.4-.1-.5-.1-.9-.3-1.4-.1-.4-.3-.9-.5-1.2-.5-.8-1.3-1.3-2.2-1.4h-1.7c-.8.1-1.7.6-2.2 1.4-.5.8-.7 1.7-.8 2.6-.1.5-.2.9-.4 1.4-.2.4-.4.9-.7 1.3-.5.8-1.2 1.6-1.9 2.2-1.4 1.3-3.2 2.2-5 2.8-1.8.6-3.7.9-5.6.9-3.8.1-7.7-.8-10.9-2.8-1.6-1-3.1-2.3-4.1-3.9-1.1-1.6-1.6-3.5-1.4-5.4v.1c-.7-1.4-2.5-1.7-3.4-3-.5-.7-.7-1.4-.8-2.2-.1-.8-.2-1.5-.2-2.3.1-.8.7-1.5 1.4-1.8.7-.4 1.4-.6 2.2-.8 1.5-.4 3.1-.5 4.6-.7 1.5-.1 3.1-.2 4.6-.2 1.5 0 3.1 0 4.6.1 3.1.2 6.2.7 9.1 2 1.4.6 2.8 1.4 4.1 2.2 1.3.8 2.6 1.6 4.1 2 2.9.9 6.2.7 8.9-.7 1.4-.7 2.7-1.6 4-2.3 1.4-.7 2.8-1.3 4.3-1.8 3.1-1 6.2-1.4 9.3-1.4zm-27.8 13.8c-.2 1.6-.9 3-1.9 4.2-1 1.2-2.4 2.1-3.8 2.7-2.9 1.3-6.1 1.7-9.2 1.4-3.1-.3-6.2-1.4-8.7-3.2-1.3-.9-2.4-2-3.3-3.3-.8-1.3-1.3-2.9-1.2-4.5.2-1.6.9-3.1 2-4.2 1.1-1.2 2.4-2.1 3.9-2.7 2.9-1.3 6.1-1.6 9.2-1.3 3.1.3 6.2 1.3 8.8 3.2 1.3.9 2.4 2.1 3.2 3.4.7 1.2 1.2 2.8 1 4.3zm0 0c.1-1.6-.3-3.1-1.2-4.4-.8-1.3-2-2.4-3.2-3.2-2.6-1.7-5.6-2.6-8.7-2.9-3.1-.3-6.2 0-9 1.3-1.4.6-2.7 1.4-3.8 2.5a6.96 6.96 0 0 0-2 4c-.2 1.5.2 3.1 1.1 4.4.8 1.3 1.9 2.4 3.2 3.3 2.6 1.8 5.6 2.7 8.7 2.9 3.1.2 6.2-.1 9.1-1.2 1.4-.6 2.8-1.4 3.8-2.5 1.1-1.2 1.8-2.6 2-4.2zm34.4 4.3c-2.4 2-5.4 3.2-8.5 3.8-3.1.5-6.3.4-9.3-.7-1.5-.5-2.9-1.3-4.1-2.3s-2.2-2.3-2.6-3.9c-.5-1.5-.3-3.2.3-4.6.6-1.5 1.6-2.7 2.8-3.7 2.4-2.1 5.4-3.2 8.5-3.8l1.2-.2h1.2c.8-.1 1.6-.1 2.4 0 1.6.1 3.1.4 4.6.9 1.5.5 2.9 1.2 4.1 2.3.6.5 1.1 1.1 1.6 1.8.4.7.8 1.4 1 2.2.4 1.5.3 3.2-.4 4.6-.6 1.4-1.6 2.6-2.8 3.6zm0-.1c1.2-1 2.2-2.2 2.8-3.7.6-1.4.7-3 .2-4.5-.2-.7-.6-1.4-1-2-.5-.6-1-1.2-1.6-1.6-1.2-.9-2.6-1.7-4-2.2-2.9-1-6.1-1.1-9.1-.7-3 .5-6 1.6-8.4 3.5-1.2 1-2.2 2.2-2.8 3.6-.6 1.4-.8 3-.3 4.5.4 1.5 1.4 2.8 2.6 3.7 1.2 1 2.6 1.7 4.1 2.2 2.9 1 6.1 1.1 9.1.7 2.9-.4 6-1.5 8.4-3.5z" fill="#2e0909" stroke-width="none" opacity="1"></path></g></g></g></g></g><rect id="svga-credit-rect" width="200" height="15" x="0" y="185" fill="#ecf0f1" opacity="0.5" style="display: none;"></rect><text id="svga-credit-text" font-family="Avenir Next, Roboto, Helvetica, Arial, sans-serif" font-size="10px" text-anchor="start" font-weight="400" size="10px" anchor="start" weight="400" fill="#333333" x="33.40447998046875" y="182.60824704170227" style="display: none;"><tspan id="SvgjsTspan8663" dy="13" x="33.40447998046875">Created on AvatarMaker.com</tspan></text></g></svg>