<svg xmlns="http://www.w3.org/2000/svg" version="1.1" width="600px" height="600px" viewBox="0 0 200 200" style="overflow:hidden!important;"><defs id="SvgjsDefs3079"><radialGradient id="SvgjsRadialGradient3140" cx="100" cy="113" r="40" gradientUnits="userSpaceOnUse" class="svga-on-canvas-facehighlight-gradient-single-0"><stop id="SvgjsStop3141" stop-opacity="0.5" stop-color="#f6dbcf" offset="0" ></stop><stop id="SvgjsStop3142" stop-opacity="0" stop-color="#e7bdab" offset="0.9" ></stop></radialGradient><radialGradient id="SvgjsRadialGradient3144" cx="100" cy="57" r="36" gradientUnits="userSpaceOnUse" class="svga-on-canvas-facehighlight-gradient-single-1"><stop id="SvgjsStop3145" stop-opacity="0.5" stop-color="#f6dbcf" offset="0" ></stop><stop id="SvgjsStop3146" stop-opacity="0" stop-color="#e7bdab" offset="0.9" ></stop></radialGradient><radialGradient id="SvgjsRadialGradient3225" cx="-558.588" cy="-490.918" r="84.646" gradientTransform="matrix(0.096 -0.0248 0.0245 0.0961 140.5478 120.3577)" gradientUnits="userSpaceOnUse" class="svga-on-canvas-eyesiris-gradient-left-1"><stop id="SvgjsStop3226" stop-opacity="0.8" stop-color="#ffffff" offset="0" ></stop><stop id="SvgjsStop3227" stop-opacity="0" stop-color="#ffffff" offset="1" ></stop></radialGradient><radialGradient id="SvgjsRadialGradient3229" cx="-565.337" cy="-492.691" r="84.644" gradientTransform="matrix(0.0991 8.856325e-004 -0.0011 0.0991 130.3774 136.3533)" gradientUnits="userSpaceOnUse" class="svga-on-canvas-eyesiris-gradient-left-2"><stop id="SvgjsStop3230" stop-opacity="0.8" stop-color="#ffffff" offset="0" ></stop><stop id="SvgjsStop3231" stop-opacity="0" stop-color="#ffffff" offset="1" ></stop></radialGradient><linearGradient id="SvgjsLinearGradient3235" x1="122.283" y1="93.047" x2="123.61" y2="91.466" gradientTransform="matrix(1 0 0 1 -52 0)" gradientUnits="userSpaceOnUse" class="svga-on-canvas-eyesiris-gradient-left-5"><stop id="SvgjsStop3236" stop-opacity="1" stop-color="#ffffff" offset="0" ></stop><stop id="SvgjsStop3237" stop-opacity="0" stop-color="#ffffff" offset="1" ></stop></linearGradient><linearGradient id="SvgjsLinearGradient3239" x1="127" y1="85" x2="125" y2="87" gradientTransform="matrix(1 0 0 1 -50 0)" gradientUnits="userSpaceOnUse" class="svga-on-canvas-eyesiris-gradient-left-6"><stop id="SvgjsStop3240" stop-opacity="1" stop-color="#ffffff" offset="0" ></stop><stop id="SvgjsStop3241" stop-opacity="0" stop-color="#ffffff" offset="1" ></stop></linearGradient><linearGradient id="SvgjsLinearGradient3243" x1="130" y1="81" x2="126" y2="85" gradientTransform="matrix(1 0 0 1 -50 0)" gradientUnits="userSpaceOnUse" class="svga-on-canvas-eyesiris-gradient-left-7"><stop id="SvgjsStop3244" stop-opacity="1" stop-color="#ffffff" offset="0" ></stop><stop id="SvgjsStop3245" stop-opacity="0" stop-color="#ffffff" offset="1" ></stop></linearGradient><radialGradient id="SvgjsRadialGradient3248" cx="-578.76" cy="-490.73" r="84.646" gradientTransform="matrix(0.096 -0.0248 0.0245 0.0961 192.4794 119.8404)" gradientUnits="userSpaceOnUse" class="svga-on-canvas-eyesiris-gradient-right-1"><stop id="SvgjsStop3249" stop-opacity="0.8" stop-color="#ffffff" offset="0" ></stop><stop id="SvgjsStop3250" stop-opacity="0" stop-color="#ffffff" offset="1" ></stop></radialGradient><radialGradient id="SvgjsRadialGradient3252" cx="-584.778" cy="-487.329" r="84.644" gradientTransform="matrix(0.0991 8.856325e-004 -0.0011 0.0991 182.3104 135.839)" gradientUnits="userSpaceOnUse" class="svga-on-canvas-eyesiris-gradient-right-2"><stop id="SvgjsStop3253" stop-opacity="0.8" stop-color="#ffffff" offset="0" ></stop><stop id="SvgjsStop3254" stop-opacity="0" stop-color="#ffffff" offset="1" ></stop></radialGradient><linearGradient id="SvgjsLinearGradient3258" x1="120.284" y1="93.047" x2="121.611" y2="91.467" gradientUnits="userSpaceOnUse" class="svga-on-canvas-eyesiris-gradient-right-5"><stop id="SvgjsStop3259" stop-opacity="1" stop-color="#ffffff" offset="0" ></stop><stop id="SvgjsStop3260" stop-opacity="0" stop-color="#ffffff" offset="1" ></stop></linearGradient><linearGradient id="SvgjsLinearGradient3262" x1="127" y1="85" x2="125" y2="87" gradientUnits="userSpaceOnUse" class="svga-on-canvas-eyesiris-gradient-right-6"><stop id="SvgjsStop3263" stop-opacity="1" stop-color="#ffffff" offset="0" ></stop><stop id="SvgjsStop3264" stop-opacity="0" stop-color="#ffffff" offset="1" ></stop></linearGradient><linearGradient id="SvgjsLinearGradient3266" x1="130" y1="81" x2="126" y2="85" gradientUnits="userSpaceOnUse" class="svga-on-canvas-eyesiris-gradient-right-7"><stop id="SvgjsStop3267" stop-opacity="1" stop-color="#ffffff" offset="0" ></stop><stop id="SvgjsStop3268" stop-opacity="0" stop-color="#ffffff" offset="1" ></stop></linearGradient><linearGradient id="SvgjsLinearGradient3823" x1="100" y1="141" x2="100" y2="138" gradientUnits="userSpaceOnUse" class="svga-on-canvas-mouth-gradient-single-0"><stop id="SvgjsStop3824" stop-opacity="1" stop-color="#dfaf9a" offset="0.1" ></stop><stop id="SvgjsStop3825" stop-opacity="1" stop-color="#d8a18a" offset="1" ></stop></linearGradient><radialGradient id="SvgjsRadialGradient3831" cx="125.187" cy="86.184" r="12.84" gradientTransform="matrix(-1.0592 3.999999e-004 -4.000000e-004 1.0589 206.5114 -6.1261)" gradientUnits="userSpaceOnUse" class="svga-on-canvas-eyesback-gradient-left-0"><stop id="SvgjsStop3832" stop-opacity="1" stop-color="#ffffff" offset="0" ></stop><stop id="SvgjsStop3833" stop-opacity="1" stop-color="#fdfefe" offset="0.544" ></stop><stop id="SvgjsStop3834" stop-opacity="1" stop-color="#f6f8f9" offset="0.74" ></stop><stop id="SvgjsStop3835" stop-opacity="1" stop-color="#eaeff2" offset="0.879" ></stop><stop id="SvgjsStop3836" stop-opacity="1" stop-color="#d9e3e8" offset="0.992" ></stop><stop id="SvgjsStop3837" stop-opacity="1" stop-color="#d8e2e7" offset="1" ></stop></radialGradient><radialGradient id="SvgjsRadialGradient3839" cx="125.187" cy="86.184" r="12.84" gradientTransform="matrix(1.0592 4.000000e-004 4.000000e-004 1.0589 -6.5114 -6.1261)" gradientUnits="userSpaceOnUse" class="svga-on-canvas-eyesback-gradient-right-0"><stop id="SvgjsStop3840" stop-opacity="1" stop-color="#ffffff" offset="0" ></stop><stop id="SvgjsStop3841" stop-opacity="1" stop-color="#fdfefe" offset="0.544" ></stop><stop id="SvgjsStop3842" stop-opacity="1" stop-color="#f6f8f9" offset="0.74" ></stop><stop id="SvgjsStop3843" stop-opacity="1" stop-color="#eaeff2" offset="0.879" ></stop><stop id="SvgjsStop3844" stop-opacity="1" stop-color="#d9e3e8" offset="0.992" ></stop><stop id="SvgjsStop3845" stop-opacity="1" stop-color="#d8e2e7" offset="1" ></stop></radialGradient><radialGradient id="SvgjsRadialGradient3847" cx="125.187" cy="86.184" r="12.84" gradientTransform="matrix(-1.0592 3.999999e-004 -4.000000e-004 1.0589 206.5114 -6.1261)" gradientUnits="userSpaceOnUse" class="svga-on-canvas-eyesfront-gradient-left-0"><stop id="SvgjsStop3848" stop-opacity="1" stop-color="#ffffff" offset="0" ></stop><stop id="SvgjsStop3849" stop-opacity="1" stop-color="#fdfefe" offset="0.544" ></stop><stop id="SvgjsStop3850" stop-opacity="1" stop-color="#f6f8f9" offset="0.74" ></stop><stop id="SvgjsStop3851" stop-opacity="1" stop-color="#eaeff2" offset="0.879" ></stop><stop id="SvgjsStop3852" stop-opacity="1" stop-color="#d9e3e8" offset="0.992" ></stop><stop id="SvgjsStop3853" stop-opacity="1" stop-color="#d8e2e7" offset="1" ></stop></radialGradient><radialGradient id="SvgjsRadialGradient3857" cx="123.021" cy="84.391" fx="133.604" fy="80.492" r="17.898" gradientTransform="matrix(0.9998 0.0208 0.0166 -0.7998 -47.4114 149.3288)" gradientUnits="userSpaceOnUse" class="svga-on-canvas-eyesfront-gradient-left-3"><stop id="SvgjsStop3858" stop-opacity="1" stop-color="#d8a18a" offset="0" ></stop><stop id="SvgjsStop3859" stop-opacity="0.3" stop-color="#d8a18a" offset="0.7" ></stop><stop id="SvgjsStop3860" stop-opacity="0" stop-color="#e7bdab" offset="1" ></stop></radialGradient><radialGradient id="SvgjsRadialGradient3862" cx="79.54" cy="83.579" r="23.208" gradientTransform="matrix(1.0971 -0.0567 0.0576 1.0844 -20.1314 20.8883)" gradientUnits="userSpaceOnUse" class="svga-on-canvas-eyesfront-gradient-left-4"><stop id="SvgjsStop3863" stop-opacity="0" stop-color="#000000" offset="0.94" ></stop><stop id="SvgjsStop3864" stop-opacity="0.3" stop-color="#000000" offset="1" ></stop></radialGradient><radialGradient id="SvgjsRadialGradient3868" cx="125.187" cy="86.184" r="12.84" gradientTransform="matrix(1.0592 4.000000e-004 4.000000e-004 1.0589 -6.5114 -6.1261)" gradientUnits="userSpaceOnUse" class="svga-on-canvas-eyesfront-gradient-right-0"><stop id="SvgjsStop3869" stop-opacity="1" stop-color="#ffffff" offset="0" ></stop><stop id="SvgjsStop3870" stop-opacity="1" stop-color="#fdfefe" offset="0.544" ></stop><stop id="SvgjsStop3871" stop-opacity="1" stop-color="#f6f8f9" offset="0.74" ></stop><stop id="SvgjsStop3872" stop-opacity="1" stop-color="#eaeff2" offset="0.879" ></stop><stop id="SvgjsStop3873" stop-opacity="1" stop-color="#d9e3e8" offset="0.992" ></stop><stop id="SvgjsStop3874" stop-opacity="1" stop-color="#d8e2e7" offset="1" ></stop></radialGradient><radialGradient id="SvgjsRadialGradient3878" cx="123.021" cy="84.391" fx="133.604" fy="80.492" r="17.898" gradientTransform="matrix(-0.9998 0.0208 -0.0166 -0.7998 247.4192 149.3287)" gradientUnits="userSpaceOnUse" class="svga-on-canvas-eyesfront-gradient-right-3"><stop id="SvgjsStop3879" stop-opacity="1" stop-color="#d8a18a" offset="0" ></stop><stop id="SvgjsStop3880" stop-opacity="0.3" stop-color="#d8a18a" offset="0.7" ></stop><stop id="SvgjsStop3881" stop-opacity="0" stop-color="#e7bdab" offset="1" ></stop></radialGradient><radialGradient id="SvgjsRadialGradient3883" cx="79.54" cy="83.579" r="23.208" gradientTransform="matrix(-1.0971 -0.0567 -0.0576 1.0844 220.1314 20.8883)" gradientUnits="userSpaceOnUse" class="svga-on-canvas-eyesfront-gradient-right-4"><stop id="SvgjsStop3884" stop-opacity="0" stop-color="#000000" offset="0.94" ></stop><stop id="SvgjsStop3885" stop-opacity="0.3" stop-color="#000000" offset="1" ></stop></radialGradient><linearGradient id="SvgjsLinearGradient3937" x1="99.98" y1="171.27" x2="99.98" y2="136.351" gradientUnits="userSpaceOnUse" class="svga-on-canvas-chinshadow-gradient-single-0"><stop id="SvgjsStop3938" stop-opacity="0.8" stop-color="#d8a18a" offset="0" ></stop><stop id="SvgjsStop3939" stop-opacity="1" stop-color="#b97151" offset="0.7" ></stop></linearGradient></defs><g id="svga-group-wrapper"><g id="svga-group-backs-single"></g><g id="svga-group-humanwrap-move" transform="matrix(1,0,0,1,0,0)"><g id="svga-group-humanwrap" transform="matrix(0.8499995000000001,0,0,0.8499995000000001,13.802000800446024,20.001962053004718)"><g id="svga-group-hair-back-move" transform="matrix(1,0,0,1,0,0)"><g id="svga-group-hair-back" transform="matrix(1,0,0,1,0,0)"><path id="SvgjsPath3780" d="M100.5,100.5h-1v-1h1V100.5z" fill="#afaeac" stroke-width="none" opacity="1" stroke="none"></path></g></g><g id="svga-group-humanbody-single"><path id="SvgjsPath3147" d="M190.858 199.866c-6.008-10.158-13.474-11.973-19.628-13.936 -6.323-2.016-19.346-3.178-26.449-4.6 -6.86-1.373-23.153-5.789-23.339-13.488 -0.192-8.066 4.291-40.09 4.291-40.09H74.005c0 0 4.487 32.023 4.294 40.09 -0.184 7.699-16.48 12.115-23.341 13.488 -7.104 1.422-20.125 2.584-26.448 4.6 -6.156 1.963-13.624 3.777-19.632 13.936 -3.644 6.16-6.008 16.133-6.008 27.133h194C196.869 215.999 194.509 206.026 190.858 199.866z" fill="#e7bdab" stroke-width="none" opacity="1" stroke="none"></path><path id="SvgjsPath3148" d="M121.442 167.843c2.495 10.929 18.165 13.698 26.293 15.325 21.909 4.379 33.772 5.134 42.297 19.539 2.903 4.916 5.459 15.864 5.962 24.153 1.835 0.291 0.531-17.432-5.136-26.994 -9.742-16.472-29.089-15.135-46.077-18.535C137.921 179.958 121.628 175.542 121.442 167.843L121.442 167.843zM78.558 167.843c-0.186 7.699-16.479 12.115-23.339 13.488 -16.988 3.4-36.335 2.063-46.077 18.535 -5.667 9.563-6.971 27.285-5.136 26.994 0.503-8.289 3.059-19.237 5.962-24.153 8.524-14.405 20.388-15.16 42.297-19.539C60.393 181.541 76.063 178.771 78.558 167.843L78.558 167.843z" fill="#f6dbcf" stroke-width="none" opacity="1" stroke="none"></path><path id="SvgjsPath3149" d="M51.206 189.513c0 0 28.641 0.299 33.473 1.885 2.314 0.758 8.372 5.633 8.372 5.633s-6.556-3.17-8.658-3.758C79.51 191.909 51.206 189.513 51.206 189.513zM99.795 199.999c2.053-0.041 7.887-3.799 7.887-3.799s-5.574 2.059-7.342 2.16c-1.491 0.086-6.366-1.238-6.366-1.238S98.112 200.032 99.795 199.999zM117.008 192.757c6.75-1.818 29.786-3.23 29.786-3.23s-23.791-0.516-30.51 1.725c-2.252 0.752-7.562 5.16-7.562 5.16S114.786 193.354 117.008 192.757z" fill="#d8a18a" stroke-width="none" opacity="1" stroke="none"></path><path id="SvgjsPath3150" d="M190.858 199.866c-9.741-16.471-29.122-15.142-46.077-18.535 -6.86-1.373-23.153-5.789-23.339-13.488 -0.192-8.066 4.291-40.09 4.291-40.09H74.005c0 0 4.487 32.023 4.294 40.09 -0.184 7.699-16.48 12.115-23.341 13.488 -7.104 1.422-20.125 2.584-26.448 4.6 -6.156 1.963-13.624 3.777-19.632 13.936 -3.644 6.16-6.008 16.133-6.008 27.133h194C196.869 215.999 194.509 206.026 190.858 199.866z" fill="none" stroke="#b97151" stroke-width="1.5" opacity="1"></path></g><g id="svga-group-chinshadow-single"><path id="SvgjsPath3936" d="M100.002 171.27c11.208 0 16.588-3.813 20.938-7.778 0.582-8.897 2.669-24.918 3.646-32.155 -14.784-1.753-34.708-1.742-49.43 0.032 0.971 7.183 3.024 22.934 3.628 31.864C83.185 167.29 88.551 171.27 100.002 171.27z" fill="url(#SvgjsLinearGradient3937)" opacity="1"></path></g><g id="svga-group-clothes-single"><path id="SvgjsPath3894" d="M1.21 226.811c-0.09-1.096 0.089-6.144 0.169-7.69 1.305-24.199 9.403-29.321 42.489-39.116 15.99-4.732 20.453-6.269 26.144-18.359 1.614-3.43 3.009-6.393 6.011-7.444 15.289 8.429 28.472 8.16 47.416 1.143 3.516 0.491 4.597 4.978 5.414 8.217 5.254 20.016 37.606 15.497 52.146 23.753 15.091 7.44 15.778 32.33 15.631 39.781 0.003 0.021 0.005 0.039 0.006 0.056C177.005 227.983 25.68 228.386 1.21 226.811z" fill="#55270c" stroke-width="none" opacity="1" stroke="none"></path><path id="SvgjsPath3895" d="M176.786 216.725c0.847-10.266 1.101-18.312 4.157-27.83 -4.426 14.753 1.476 26.354-7.266 34.423C174.774 220.681 176.516 219.998 176.786 216.725zM24 203c-1.608-3.938-3.672-7.405-4.444-13.604 -0.28 0.134-0.394-0.626-0.666-0.492 1.111 11.097 4.736 15.713 5.84 31.829C24.556 214.957 25.534 206.758 24 203zM121.459 156.274c-0.581 0.144-1.164 0.78-1.75 0.899 8.181 7.474 2.813 10.296 14.771 23.422 0.333-0.167 1.415-0.766 2.718-1.523C129.319 174.611 127.548 163.537 121.459 156.274zM126 180c0.447 1.342 1.101 2.482 1.859 3.603 -0.457 0.174-0.908 0.362-1.37 0.522 -2.363-3.073-4.632-6.134-6.139-12.489 -1.558-6.561-0.884-5.584-5.94-12.752 0.319-0.045 0.954-0.411 1.448-0.491C120.643 165.023 122.608 172.368 126 180zM133.719 181.005c-0.481 0.25-0.969 0.488-1.457 0.725 -6.715-7.001-9.364-15.664-13.832-23.789 0.307-0.059 0.907-0.818 1.188-0.876 3.964 4.215 3.947 6.305 5.151 10.061C126.338 171.828 130.603 177.889 133.719 181.005zM111.212 160.025c3.591 9.259 5.941 16.57 6.595 26.388 -0.469 0.085-0.937 0.17-1.407 0.242 -0.65-5.13-1.491-10.462-1.739-11.689 -0.992-4.915-2.781-11.482-4.401-14.82C110.578 160.113 110.894 160.063 111.212 160.025zM125.619 184.426c-0.555 0.185-1.115 0.352-1.676 0.519 -5.889-7.32-5.781-16.893-10.411-26.211 0.182-0.025 0.465-0.041 0.646-0.068 5.14 8.711 3.5 6.198 5.83 15.03C121.229 178.313 123.751 182.464 125.619 184.426zM115.509 186.785c-0.369 0.053-0.746 0.089-1.12 0.133 -1.339-9.809-1.877-17.542-5.437-26.651 0.249-0.022 0.499-0.037 0.747-0.062C112.922 168.123 114.231 179.352 115.509 186.785zM91.081 160.364c-3.267 8.975-3.961 15.986-4.586 25.452 -0.369-0.063-0.742-0.123-1.105-0.191 0.281-8.057 1.408-18.063 4.9-25.33C90.553 160.322 90.817 160.34 91.081 160.364zM75.389 182.894c-0.419-0.152-0.842-0.297-1.26-0.458 5.056-6.227 7.374-16.511 7.99-24.521 0.332 0.081 0.663 0.15 0.995 0.226C83.353 167.592 79.914 174.831 75.389 182.894zM89.779 160.245c-4.003 7.147-5.299 17.074-5.13 25.23 -0.319-0.063-0.618-0.137-0.93-0.203 -0.337-9.561 0.856-17.051 5.107-25.256C89.146 160.056 89.455 160.212 89.779 160.245zM66.165 179.01c-0.527-0.256-1.054-0.51-1.576-0.774 2.807-1.871 5.653-4.711 7.56-7.97 1.716-2.93 5.611-11.628 6.41-14.44 0.269 0.104 0.543 0.189 0.816 0.282C77.312 165.13 72.909 173.355 66.165 179.01zM73.509 182.205c-0.559-0.215-1.106-0.456-1.661-0.682 4.743-7.656 6.889-16.213 7.854-25.317 0.614 0.203 1.23 1.398 1.847 1.56C80.13 166.507 78.633 174.861 73.509 182.205zM78.229 155.705c-0.65 1.82-1.54 3.55-2.45 5.311 -2.167 4.379-4.345 11.597-11.83 16.88 -0.542-0.276-1.08-0.564-1.618-0.854 6.891-5.698 10.479-14.131 14.154-21.908C77.048 155.346 77.63 155.466 78.229 155.705z" fill="#461c03" stroke-width="none" opacity="1" stroke="none"></path><path id="SvgjsPath3896" d="M60.172 177.15l-1.928-1.29c-16.809 6.537-42.125 8.875-52 25.125 -3.719 6.119-4.913 15.014-4.913 26.014 2.027-5.485 0.759-14.439 6.636-23.292C19.401 186.481 39.771 188.32 60.172 177.15zM190.033 203.707c5.067 9.34 4.608 17.807 6.636 23.292 0-11-2.281-19.354-4.913-26.014 -7.483-18.933-33.191-16.791-50-23.328l-1.928 1.29C160.229 190.117 178.203 181.902 190.033 203.707z" fill="#643418" stroke-width="none" opacity="1" stroke="none"></path><path id="SvgjsPath3897" d="M181.049 187.226c-14.496-8.229-46.88-3.804-52.1-23.69 -0.653-2.542-1.702-7.762-5.53-8.29 -0.188 0.037-0.761-0.129-0.76-0.129 -15.076 5.88-30.845 7.63-46.67-1.011 -7.111 2.493-5.169 15.246-18.61 21.22 -5.86 2.654-13.6 4.395-24.6 7.98 -25.782 8.41-30.463 16.581-31.5 35.81 -0.073 1.41-0.273 6.859-0.16 7.79 27.119 1.767 181.426 0.968 195.61 0.34 0.01-0.05 0.01-0.1 0-0.149C197.017 212.672 193.824 193.524 181.049 187.226zM123.799 155.824c7.203 2.412-0.831 13.455 15.84 21.791 -2.201 1.354-4.629 2.715-5.159 2.98 -11.958-13.126-6.443-15.043-14.173-23.123C121.739 156.826 122.459 156.244 123.799 155.824zM119.917 157.563c3.964 4.215 3.648 5.807 4.853 9.563 1.568 4.703 5.833 10.764 8.949 13.88 -2.33 1.211-4.75 2.261-7.229 3.12 -2.363-3.073-4.408-6.164-6.039-12.489 -1.438-5.573-0.936-6.018-5.741-12.652C115.709 158.843 118.341 157.886 119.917 157.563zM114.278 159.063c5.14 8.711 3.4 5.8 5.73 14.632 1.22 4.618 3.742 8.769 5.61 10.73 -3.01 1-6.1 1.75-9.22 2.229 -0.65-5.13-1.414-10.458-1.64-11.689 -1-5.454-2.881-11.482-4.501-14.82C111.539 160.016 113.009 159.254 114.278 159.063zM109.699 160.205c3.223 7.918 4.532 19.146 5.81 26.58 -2.942 0.418-6.063 0.57-8.979 0.57 -0.001-0.025-1.897-15.809-2.641-26.162C105.917 160.893 108.049 160.662 109.699 160.205zM103.389 161.213c0.05 11.677 0.956 14.712 2.41 26.152 -3.489 0.01-6.97-0.149-10.459-0.45 2.365-19.61 3.55-25.632 3.55-25.632C100.732 161.283 102.403 161.246 103.389 161.213zM98.269 161.283c-2.776 15.35-3.252 19.064-3.58 25.572 -3.189-0.268-6.325-0.668-9.3-1.23 0.281-8.057 1.408-18.063 4.9-25.33C92.939 160.565 95.609 161.273 98.269 161.283zM89.779 160.245c-4.003 7.147-5.299 17.074-5.13 25.23 -3.873-0.771-7.202-1.758-10.52-3.04 5.056-6.227 7.374-16.511 7.99-24.521C84.642 158.53 87.31 159.698 89.779 160.245zM81.549 157.766c-1.419 8.741-2.916 17.096-8.04 24.439 -3.04-1.17-6.02-2.5-8.92-3.97 2.807-1.871 5.653-4.711 7.56-7.97 1.716-2.93 5.511-11.429 6.31-14.241C79.439 156.404 80.549 157.505 81.549 157.766zM75.789 154.804c0.77 0.471 1.49 0.761 2.34 1.101 -0.65 1.82-1.44 3.351-2.35 5.111 -2.167 4.379-4.345 11.597-11.83 16.88 -1.39-0.71-2.77-1.46-4.12-2.25C71.408 169.404 69.452 157.678 75.789 154.804zM1.559 226.655c0.136-3.996 0.887-16.321 3.59-22.41 2.73-6.149 8-10.39 13.88-13.52 -0.402 9.421 4.184 10.589 4.5 21.85 0.09 3.41 0.56 6.76 1.13 10.12 -0.26-3.53-0.37-7.03-0.35-10.57 0.058-10.247-4.58-12.021-4.58-21.779 7.43-3.782 15.967-6.216 24.41-8.761 4.94-1.479 9.94-3.029 14.56-5.359 13.184 8.692 25.449 13.279 47.35 13.149 15.873 0 25.119-4.104 34.9-11.109 13.149 6.077 30.126 5.28 39.46 10.91 -1.655 4.925-2.791 7.494-3.1 10.18 -0.715 6.32 0.347 10.814-0.561 16.62 -0.53 3.37-3.12 5.85-3.82 9.16 2.036-6.202 5.709-3.93 5.261-18.551 -0.257-8.245 0.476-8.458 2.779-17.069 11.486 7.199 14.441 24.116 15.091 37.58C162.822 226.877 14.665 226.935 1.559 226.655z" fill="#270e00" stroke-width="none" opacity="1" stroke="none"></path></g><g id="svga-group-head" transform="matrix(1,0,0,1,0,0)"><g id="svga-group-ears-left-move" transform="matrix(1,0,0,1,0,0)" style="display: none;"><g id="svga-group-ears-left" transform="matrix(1,0,0,1,0,0)"><path id="SvgjsPath3284" d="M47.001 83.974c-1.376-2.313-5.638-7.997-9.98-6.603 -2.749 0.882-3.293 3.765-3.735 6.311 -0.588 3.386 0.471 10.083 1.389 12.503 0.881 2.325 3.533 6.816 5.264 8.527 2.13 2.1 4.775 8.793 5.194 9.487 0.66 1.097 1.536 2.745 4.122 2.538 2.853-0.229 4.584-1.742 5.856-1.999C58.253 114.109 50.582 89.995 47.001 83.974z" fill="#e7bdab" stroke="#b97151" stroke-width="1.5" opacity="1"></path><path id="SvgjsPath3285" d="M44.197 97.997c-0.132-0.548 0.007-1.47 0.142-2.362 0.124-0.812 0.24-1.579 0.169-2.121 -0.267-2.032-1.773-5.893-2.757-7.985 -1.132-2.407-2.963-5.439-5.262-6.221 -0.95-0.324-1.575 0.063-1.938 0.456 -0.266 0.289-0.325 0.627-0.238 0.667 0.086 0.04 0.285-0.24 0.572-0.504 0.235-0.216 0.579-0.402 1.051-0.363 -0.19 1.011-1.167 6.49-0.744 10.225 0.333 2.938 1.593 5.131 1.79 5.46 0.029 0.346 0.077 0.685 0.148 1.014 0.929 4.287 4.971 9.163 6.378 10.758 0.259 0.295 0.531 0.47 0.598 0.398 0.066-0.072-0.094-0.364-0.353-0.66 -1.388-1.585-5.391-6.442-6.289-10.579 -0.952-4.389 2.318-10.896 3.048-12.272 0.371 0.646 0.687 1.267 0.93 1.785 0.19 0.406 0.402 0.881 0.619 1.395 -0.429 0.718-3.434 5.958-2.338 10.153 0.406 1.546 2.235 3.54 3.447 4.086 0.667 0.301 0.919 0.75 1.209 1.271 0.336 0.604 0.718 1.288 1.828 1.784 0.225 0.102 0.429 0.142 0.61 0.142 0.313 0 0.551-0.126 0.725-0.276 0.018 0.266 0.017 0.604 0.009 0.917 -0.012 0.404 0.042 0.737 0.137 0.745 0.094 0.008 0.196-0.313 0.207-0.717 0.016-0.496 0.013-1.11-0.072-1.403 -0.248-0.865-1.008-1.841-1.813-2.875C45.221 99.896 44.403 98.844 44.197 97.997zM36.95 94.196c-2.177-6.731 0.656-12.54 1.144-13.464 0.85 0.775 1.6 1.811 2.21 2.824C39.86 84.365 37.041 89.669 36.95 94.196zM46.341 104.042c-1.004-0.447-1.339-1.051-1.666-1.633 -0.293-0.527-0.598-1.072-1.369-1.42 -0.168-0.075-0.352-0.191-0.542-0.323 -2.486-5.906 0.272-8.488 0.963-9.017 0.211 0.722 0.369 1.384 0.439 1.915 0.063 0.488-0.052 1.263-0.167 2.012 -0.142 0.929-0.286 1.89-0.137 2.512 0.226 0.926 1.069 2.009 1.884 3.057 0.723 0.929 1.466 1.888 1.721 2.67C47.359 103.972 47.017 104.345 46.341 104.042z" fill="#b97151" stroke-width="none" opacity="1" stroke="none"></path></g></g><g id="svga-group-ears-right-move" transform="matrix(1,0,0,1,0,0)" style="display: none;"><g id="svga-group-ears-right" transform="matrix(1,0,0,1,0,0)"><path id="SvgjsPath3286" d="M152.736 83.974c1.377-2.313 5.639-7.997 9.98-6.603 2.75 0.882 3.293 3.765 3.736 6.311 0.588 3.386-0.471 10.083-1.389 12.503 -0.881 2.325-3.533 6.816-5.266 8.527 -2.129 2.1-4.775 8.793-5.193 9.487 -0.658 1.097-1.535 2.745-4.121 2.538 -2.854-0.229-4.584-1.742-5.857-1.999C141.484 114.109 149.156 89.995 152.736 83.974z" fill="#e7bdab" stroke="#b97151" stroke-width="1.5" opacity="1"></path><path id="SvgjsPath3287" d="M153.727 100.913c-0.805 1.033-1.564 2.009-1.813 2.875 -0.086 0.293-0.088 0.907-0.072 1.403 0.012 0.404 0.113 0.725 0.207 0.717s0.148-0.341 0.137-0.745c-0.008-0.313-0.008-0.651 0.01-0.917 0.174 0.15 0.412 0.276 0.725 0.276 0.182 0 0.385-0.04 0.609-0.142 1.109-0.496 1.492-1.18 1.828-1.784 0.289-0.52 0.543-0.969 1.209-1.271 1.213-0.546 3.041-2.54 3.447-4.086 1.096-4.194-1.908-9.435-2.338-10.153 0.217-0.513 0.43-0.988 0.619-1.395 0.244-0.518 0.559-1.139 0.93-1.785 0.73 1.377 4 7.883 3.049 12.272 -0.896 4.137-4.9 8.994-6.289 10.579 -0.258 0.296-0.418 0.588-0.352 0.66 0.066 0.071 0.338-0.104 0.598-0.398 1.406-1.596 5.449-6.471 6.379-10.758 0.07-0.329 0.117-0.668 0.146-1.014 0.197-0.329 1.459-2.523 1.791-5.46 0.422-3.735-0.555-9.214-0.744-10.225 0.473-0.039 0.814 0.146 1.051 0.363 0.287 0.264 0.486 0.544 0.572 0.504s0.027-0.378-0.238-0.667c-0.363-0.393-0.988-0.779-1.938-0.456 -2.299 0.782-4.131 3.814-5.262 6.221 -0.984 2.093-2.49 5.953-2.758 7.985 -0.072 0.542 0.045 1.309 0.17 2.121 0.135 0.892 0.273 1.814 0.141 2.362C155.336 98.844 154.518 99.896 153.727 100.913zM159.434 83.555c0.611-1.013 1.361-2.049 2.211-2.824 0.488 0.925 3.32 6.733 1.145 13.464C162.697 89.669 159.879 84.365 159.434 83.555zM152.27 103.816c0.254-0.782 0.998-1.741 1.721-2.67 0.816-1.048 1.658-2.131 1.885-3.057 0.148-0.622 0.004-1.583-0.137-2.512 -0.115-0.749-0.23-1.524-0.166-2.012 0.068-0.531 0.227-1.193 0.438-1.915 0.691 0.529 3.449 3.111 0.965 9.017 -0.191 0.132-0.375 0.248-0.543 0.323 -0.771 0.348-1.074 0.893-1.369 1.42 -0.326 0.582-0.662 1.186-1.666 1.633C152.721 104.345 152.379 103.972 152.27 103.816z" fill="#b97151" stroke-width="none" opacity="1" stroke="none"></path></g></g><g id="svga-group-faceshape-wrap" transform="matrix(1,0,0,1,0,0)"><g id="svga-group-faceshape-single"><path id="SvgjsPath3933" d="M100.002 0.867C66.384 0.919 39.082 28.09 39.134 61.564c0.008 5.316 0.704 10.471 2.002 15.382h0.001C41.15 77 52.68 114.915 55.158 127.369c1.382 6.945 9.796 13.203 17.265 18.313 6.967 4.767 10.529 13.588 27.58 13.588s20.613-8.821 27.58-13.588c7.468-5.109 15.883-11.367 17.265-18.313 2.479-12.454 14.009-50.37 14.02-50.423h0.002c1.298-4.911 1.994-10.066 2.002-15.382C160.923 28.09 133.62 0.919 100.002 0.867z" fill="#e7bdab" stroke-width="none" opacity="1"></path><path id="SvgjsPath3934" d="M146.772 22.738c7.478 10.183 11.917 22.87 11.898 36.626 -0.009 5.316-0.679 10.471-1.93 15.382h-0.002c-0.011 0.053-11.124 37.969-13.512 50.423 -1.335 6.945-9.471 13.203-16.668 18.313 -6.718 4.767-10.121 13.588-26.557 13.588 -16.434 0-19.842-8.821-26.557-13.588 -7.197-5.109-15.335-11.367-16.665-18.313 -2.391-12.454-13.504-50.37-13.515-50.423h0c-1.252-4.911-1.922-10.066-1.931-15.382 -0.021-13.752 4.416-26.435 11.889-36.617 -8.812 10.525-14.112 24.056-14.089 38.817 0.008 5.316 0.704 10.471 2.002 15.382h0.001C41.15 77 52.68 114.915 55.158 127.369c1.382 6.945 9.796 13.203 17.265 18.313 6.967 4.767 10.529 13.588 27.58 13.588s20.613-8.821 27.58-13.588c7.468-5.109 15.883-11.367 17.265-18.313 2.479-12.454 14.009-50.37 14.02-50.423h0.002c1.298-4.911 1.994-10.066 2.002-15.382C160.894 46.799 155.589 33.264 146.772 22.738z" fill="#dfaf9a" stroke-width="none" opacity="1"></path><path id="SvgjsPath3935" d="M100.002 0.867C66.384 0.919 39.082 28.09 39.134 61.564c0.008 5.316 0.704 10.471 2.002 15.382h0.001C41.15 77 52.68 114.915 55.158 127.369c1.382 6.945 9.796 13.203 17.265 18.313 6.967 4.767 10.529 13.588 27.58 13.588s20.613-8.821 27.58-13.588c7.468-5.109 15.883-11.367 17.265-18.313 2.479-12.454 14.009-50.37 14.02-50.423h0.002c1.298-4.911 1.994-10.066 2.002-15.382C160.923 28.09 133.62 0.919 100.002 0.867z" fill="none" stroke="#b97151" stroke-width="1.5" opacity="1"></path></g></g><g id="svga-group-mouth-single-move" transform="matrix(1,0,0,1,0,0)"><g id="svga-group-mouth-single" transform="matrix(1,0,0,1,0,0)"><path id="SvgjsPath3822" d="M100.091 139.322c-4.952 0-6.142-3.033-6.142-3.033 6.246 2.316 11.836-0.124 11.836-0.124S104.446 139.322 100.091 139.322z" fill="url(#SvgjsLinearGradient3823)" opacity="1"></path><path id="SvgjsPath3826" d="M85.595 129.671c2.677-0.132 7.545-1.077 10.096-0.988 1.319 0.046 2.63 0.953 4.007 1.242 0.958 0.202 3.935-1.1 4.915-1.162 2.572-0.162 7.409 0.744 9.771 0.92 0.13 0.011 0 0 0 0s-5.776 7.727-14.463 7.725C90.09 137.406 85.595 129.671 85.595 129.671S85.463 129.678 85.595 129.671z" fill="#a55b3a" stroke="#964826" stroke-width="0.75" opacity="1"></path><path id="SvgjsPath3827" d="M114.739 129.405c-0.045-0.131-0.461-0.189-0.624-0.139 -0.3 0.094-0.663 0.521-1.313 0.686 -0.748 0.191-5.021 1.431-6.193 1.49 -2.365 0.118-4.438 0.943-6.76 0.938 -2.323-0.005-4.34-0.929-6.716-1.058 -1.18-0.065-5.194-1.216-5.947-1.4 -0.65-0.16-0.89-0.574-1.162-0.686 -0.189-0.077-0.652-0.02-0.743 0.105 -0.079 0.107 0.088 0.609 0.2 0.75 0.271 0.336 1.103 0.506 1.667 0.647 0.779 0.199 4.759 1.366 5.949 1.433 2.305 0.13 4.308 1.125 6.612 1.127 2.306 0.003 4.405-0.904 6.729-1.022 1.195-0.062 5.53-1.313 6.332-1.513 0.58-0.146 1.388-0.399 1.672-0.68C114.58 129.95 114.785 129.538 114.739 129.405z" fill="#772906" stroke-width="none" opacity="1" stroke="none"></path><path id="SvgjsPath3828" d="M99.799 136.138c-3.914 0-7.707-1.246-10.289-3.693 1.36 0.19 2.83 0.207 4.269 0.403 1.773 0.242 3.429 0.921 5.248 1.034 1.968 0.125 3.916-0.495 5.886-0.841 1.644-0.289 4.21-1.067 5.742-1.302C107.729 133.982 103.577 136.138 99.799 136.138zM105.256 131.043c1.49-0.149 3.855-0.879 5.226-1.04 -1.406-0.413-3.829-0.279-5.576-0.441 -1.506-0.139-3.244 0.861-4.817 1.016 -1.774 0.175-2.94-1.233-4.607-1.369 -1.809-0.147-3.787 0.559-5.336 0.915 1.387 0.188 2.877 0.239 4.309 0.517 1.753 0.341 3.405 0.992 5.223 1.054C101.537 131.757 103.419 131.226 105.256 131.043z" fill="#b47051" stroke-width="none" opacity="1" stroke="none"></path><path id="SvgjsPath3829" d="M105.695 133.406c-0.308 0.01-0.625 0.025-0.93 0.051 -0.351 0.028-0.668 0.069-0.961 0.123 -0.538 0.099-1.074 0.233-1.638 0.369 -0.888 0.216-1.726 0.392-2.662 0.391 -0.15 0-0.301-0.007-0.452-0.017 -0.764-0.055-1.521-0.217-2.191-0.412 -0.693-0.204-1.353-0.401-2.019-0.492 -0.128-0.017-0.259-0.029-0.387-0.042 -0.409-0.036-0.836-0.052-1.255-0.063 1.734 1.396 4.128 2.038 6.468 2.041C102.079 135.356 103.946 134.512 105.695 133.406z" fill="#c4876c" stroke-width="none" opacity="1" stroke="none"></path></g></g><g id="svga-group-eyes-left-move" transform="matrix(1,0,0,1,0,0)"><g id="svga-group-eyes-left" transform="matrix(1,0,0,1,0,0)"><g id="svga-group-eyesback-left"><path id="SvgjsPath3830" d="M83.271 92.712c-3.293-0.892-4.969 1.202-9.809 1.324 -8.057 0.203-9.938-0.703-11.199-2.996C61.74 90.088 61.24 88.849 61 88.083l-0.1-4.715c1.328-4.488 19.541-4.944 25.9 2.027 0.287 0.757 0.433 1.463 0.465 2.122 -0.19 1.09-0.512 2.136-0.947 3.124C85.611 91.562 84.556 92.262 83.271 92.712z" fill="url(#SvgjsRadialGradient3831)" opacity="1"></path></g><g id="svga-group-eyesiriswrapper-left" transform="matrix(1,0,0,1,-0.5,0)"><g id="svga-group-eyesiriscontrol-left" transform="matrix(1,0,0,1,0,0)"><g id="svga-group-eyesiris-left" transform="matrix(1,0,0,1,0,0)"><path id="SvgjsPath3455" d="M83.199 89.25c-1.231 4.522-5.896 7.187-10.429 5.944 -4.528-1.241-7.203-5.918-5.97-10.442 1.23-4.526 5.905-7.19 10.434-5.947C81.761 80.045 84.433 84.723 83.199 89.25z" fill="#664212" stroke="#382000" stroke-width="0.5" opacity="1"></path><path id="SvgjsPath3456" d="M81.878 89.354c-1.202 3.473-4.827 5.499-8.357 4.531 -3.258-0.894-5.315-4.02-5.048-7.325 1.209-0.096 2.532-0.124 3.904-0.056 -0.014 0.047-0.039 0.087-0.051 0.136 -0.434 1.594 0.576 3.265 2.256 3.726 1.685 0.461 3.401-0.462 3.835-2.056 0.055-0.208 0.085-0.417 0.093-0.623C79.66 88.108 80.792 88.651 81.878 89.354z" fill="#755120" stroke-width="none" opacity="1" stroke="none"></path><path id="SvgjsPath3457" d="M76.151 84.464c-1.703-0.487-3.44 0.485-3.88 2.181 -0.44 1.687 0.584 3.454 2.286 3.942 1.705 0.489 3.443-0.484 3.884-2.173C78.884 86.719 77.855 84.953 76.151 84.464zM76.523 90.46c-0.708 0.22-1.441-0.072-1.636-0.655 -0.188-0.582 0.231-1.228 0.945-1.443 0.712-0.22 1.442 0.073 1.639 0.651C77.665 89.593 77.241 90.24 76.523 90.46z" fill="#000000" stroke-width="none" opacity="0.9"></path><path id="SvgjsPath3458" d="M70.482 91.476c-0.523 0.314-1.307 0.034-1.754-0.633 -0.448-0.66-0.381-1.451 0.145-1.767 0.521-0.311 1.311-0.03 1.755 0.632C71.07 90.37 71.006 91.162 70.482 91.476z" fill="#ffffff" stroke-width="none" opacity="0.6"></path><path id="SvgjsPath3459" d="M81.673 86.632c-1.198 0.718-2.999 0.072-4.02-1.445 -1.02-1.518-0.867-3.331 0.332-4.047 1.196-0.721 3-0.074 4.015 1.444C83.019 84.101 82.871 85.913 81.673 86.632z" fill="#ffffff" stroke-width="none" opacity="0.9"></path></g></g></g><g id="svga-group-eyesfront-left"><path id="SvgjsPath3855" d="M55.5 87c0 13.808 8.283 24.999 18.5 24.999S92.5 100.808 92.5 87c0-13.809-8.283-25.001-18.5-25.001S55.5 73.191 55.5 87zM61 88.083l-0.1-4.715c1.328-4.488 19.541-4.944 25.9 2.027 1.396 3.674-0.409 6.224-3.529 7.317 -3.293-0.892-4.969 1.202-9.809 1.324 -8.057 0.203-9.938-0.703-11.199-2.996C61.74 90.088 61.24 88.849 61 88.083z" fill="#e7bdab" stroke-width="none" opacity="1" stroke="none"></path><path id="SvgjsPath3856" d="M59.898 85.083c0.023 8.56 7.646 15.459 17.038 15.416 9.389-0.049 16.985-7.022 16.961-15.583 -0.023-8.562-7.647-15.463-17.04-15.417C67.465 69.549 59.874 76.522 59.898 85.083zM61 88.083l-0.1-4.715c1.328-4.488 19.541-4.944 25.9 2.027 1.396 3.674-0.409 6.224-3.529 7.317 -3.293-0.892-4.969 1.202-9.809 1.324 -8.057 0.203-9.938-0.703-11.199-2.996C61.74 90.088 61.24 88.849 61 88.083z" fill="url(#SvgjsRadialGradient3857)" opacity="1"></path><path id="SvgjsPath3861" d="M62.264 91.041C61.74 90.088 61.24 88.849 61 88.083l-0.1-4.715c1.328-4.488 19.541-4.944 25.9 2.027 1.396 3.674-0.409 6.224-3.529 7.317 -3.293-0.892-4.969 1.202-9.809 1.324C65.406 94.239 63.524 93.333 62.264 91.041z" fill="url(#SvgjsRadialGradient3862)" opacity="1"></path><path id="SvgjsPath3865" d="M89.665 83.698c-9.617-6.546-16.701-6.963-28.117-6.129C71.077 75.863 82.052 77.099 89.665 83.698z" fill="#b97151" stroke-width="none" opacity="1" stroke="none"></path><path id="SvgjsPath3866" d="M87.697 85.861c0.371 0.625 0.543 0.968 0.733 2.484C85.19 78.896 62.487 78.841 61 83.593v4.427c-1.021-1.75-1.494-3.878-1.931-5.889 -0.093-0.428-2.348-2.602-2.348-2.602s2.435 1.326 2.798 1.349c-0.182-0.216-1.127-1.248-1.127-1.248s2.251 0.931 2.576 0.843c-0.436-0.186-1.071-0.823-1.071-0.823 0.483 0.141 1.646 0.604 2.723 0.369 10.863-2.365 22.558 0.247 26.703 8C88.648 87.037 88.225 86.47 87.697 85.861zM84.943 93.048c-4.625-2.25-5.94 0.428-11.563 0.563 -8.004 0.191-9.567-0.871-11.125-2.813 0.813 2.375 1.375 3.504 10.875 3.438C78.506 94.198 81.443 91.673 84.943 93.048z" fill="#191c29" stroke-width="none" opacity="1" stroke="none"></path></g></g></g><g id="svga-group-eyes-right-move" transform="matrix(1,0,0,1,0,0)"><g id="svga-group-eyes-right" transform="matrix(1,0,0,1,0,0)"><g id="svga-group-eyesback-right"><path id="SvgjsPath3838" d="M116.729 92.712c3.293-0.892 4.969 1.202 9.809 1.324 8.057 0.203 9.938-0.703 11.199-2.996 0.523-0.952 1.023-2.191 1.264-2.958l0.1-4.715c-1.328-4.488-19.541-4.944-25.9 2.027 -0.287 0.757-0.433 1.463-0.465 2.122 0.19 1.09 0.512 2.136 0.947 3.124C114.389 91.562 115.444 92.262 116.729 92.712z" fill="url(#SvgjsRadialGradient3839)" opacity="1"></path></g><g id="svga-group-eyesiriswrapper-right" transform="matrix(1,0,0,1,0.5,0)"><g id="svga-group-eyesiriscontrol-right" transform="matrix(1,0,0,1,0,0)"><g id="svga-group-eyesiris-right" transform="matrix(1,0,0,1,0,0)"><path id="SvgjsPath3460" d="M133.199 89.25c-1.231 4.522-5.896 7.187-10.429 5.944 -4.528-1.241-7.203-5.918-5.97-10.442 1.23-4.526 5.905-7.19 10.434-5.947C131.761 80.045 134.433 84.723 133.199 89.25z" fill="#664212" stroke="#382000" stroke-width="0.5" opacity="1"></path><path id="SvgjsPath3461" d="M131.878 89.354c-1.202 3.473-4.827 5.499-8.357 4.531 -3.258-0.894-5.315-4.02-5.048-7.325 1.209-0.096 2.532-0.124 3.904-0.056 -0.014 0.047-0.039 0.087-0.051 0.136 -0.434 1.594 0.576 3.265 2.256 3.726 1.685 0.461 3.401-0.462 3.835-2.056 0.055-0.208 0.085-0.417 0.093-0.623C129.66 88.108 130.792 88.651 131.878 89.354z" fill="#755120" stroke-width="none" opacity="1" stroke="none"></path><path id="SvgjsPath3462" d="M126.151 84.464c-1.703-0.487-3.44 0.485-3.88 2.181 -0.44 1.687 0.584 3.454 2.286 3.942 1.705 0.489 3.443-0.484 3.884-2.173C128.884 86.719 127.855 84.953 126.151 84.464zM126.523 90.46c-0.708 0.22-1.441-0.072-1.636-0.655 -0.188-0.582 0.231-1.228 0.945-1.443 0.712-0.22 1.442 0.073 1.639 0.651C127.665 89.593 127.241 90.24 126.523 90.46z" fill="#000000" stroke-width="none" opacity="0.9"></path><path id="SvgjsPath3463" d="M120.482 91.476c-0.523 0.314-1.307 0.034-1.754-0.633 -0.448-0.66-0.381-1.451 0.145-1.767 0.521-0.311 1.311-0.03 1.755 0.632C121.07 90.37 121.006 91.162 120.482 91.476z" fill="#ffffff" stroke-width="none" opacity="0.6"></path><path id="SvgjsPath3464" d="M131.673 86.632c-1.198 0.718-2.999 0.072-4.02-1.445 -1.02-1.518-0.867-3.331 0.332-4.047 1.196-0.721 3-0.074 4.015 1.444C133.019 84.101 132.871 85.913 131.673 86.632z" fill="#ffffff" stroke-width="none" opacity="0.9"></path></g></g></g><g id="svga-group-eyesfront-right"><path id="SvgjsPath3876" d="M126 61.999c-10.217 0-18.5 11.192-18.5 25.001 0 13.808 8.283 24.999 18.5 24.999S144.5 100.808 144.5 87C144.5 73.191 136.217 61.999 126 61.999zM137.736 91.041c-1.261 2.293-3.143 3.199-11.199 2.996 -4.84-0.122-6.516-2.216-9.809-1.324 -3.12-1.093-4.925-3.643-3.529-7.317 6.359-6.971 24.572-6.516 25.9-2.027l-0.1 4.715C138.76 88.849 138.26 90.088 137.736 91.041z" fill="#e7bdab" stroke-width="none" opacity="1" stroke="none"></path><path id="SvgjsPath3877" d="M123.146 69.499c-9.393-0.045-17.017 6.856-17.04 15.417 -0.024 8.56 7.572 15.533 16.961 15.583 9.392 0.043 17.015-6.856 17.038-15.416C140.129 76.522 132.537 69.549 123.146 69.499zM137.736 91.041c-1.261 2.293-3.143 3.199-11.199 2.996 -4.84-0.122-6.516-2.216-9.809-1.324 -3.12-1.093-4.925-3.643-3.529-7.317 6.359-6.971 24.572-6.516 25.9-2.027l-0.1 4.715C138.76 88.849 138.26 90.088 137.736 91.041z" fill="url(#SvgjsRadialGradient3878)" opacity="1"></path><path id="SvgjsPath3882" d="M137.736 91.041c0.523-0.952 1.023-2.191 1.264-2.958l0.1-4.715c-1.328-4.488-19.541-4.944-25.9 2.027 -1.396 3.674 0.409 6.224 3.529 7.317 3.293-0.892 4.969 1.202 9.809 1.324C134.594 94.239 136.476 93.333 137.736 91.041z" fill="url(#SvgjsRadialGradient3883)" opacity="1"></path><path id="SvgjsPath3886" d="M110.335 83.698c9.617-6.546 16.701-6.963 28.117-6.129C128.923 75.863 117.948 77.099 110.335 83.698z" fill="#b97151" stroke-width="none" opacity="1" stroke="none"></path><path id="SvgjsPath3887" d="M110.677 88.021c4.146-7.754 15.84-10.365 26.703-8 1.077 0.234 2.239-0.229 2.723-0.369 0 0-0.636 0.637-1.071 0.823 0.325 0.088 2.576-0.843 2.576-0.843s-0.945 1.032-1.127 1.248c0.363-0.022 2.798-1.349 2.798-1.349s-2.255 2.174-2.348 2.602c-0.437 2.011-0.91 4.139-1.931 5.889v-4.427c-1.487-4.752-24.19-4.698-27.431 4.751 0.19-1.516 0.362-1.859 0.733-2.484C111.775 86.47 111.352 87.037 110.677 88.021zM126.869 94.235c9.5 0.066 10.063-1.063 10.875-3.438 -1.558 1.941-3.121 3.004-11.125 2.813 -5.622-0.134-6.938-2.813-11.563-0.563C118.557 91.673 121.494 94.198 126.869 94.235z" fill="#191c29" stroke-width="none" opacity="1" stroke="none"></path></g></g></g><g id="svga-group-facehighlight-single"><path id="SvgjsPath3139" d="M140.204 113.007c0.035 22.275-17.995 40.365-40.273 40.396 -22.274 0.036-40.361-17.993-40.396-40.272C59.501 90.857 77.53 72.77 99.808 72.735 122.083 72.701 140.171 90.73 140.204 113.007z" fill="url(#SvgjsRadialGradient3140)" opacity="1"></path><path id="SvgjsPath3143" d="M135,55.999c0,19.329-15.671,35-35,35c-19.329,0-35-15.671-35-35s15.671-35,35-35C119.329,20.999,135,36.67,135,55.999z" fill="url(#SvgjsRadialGradient3144)" opacity="1"></path></g><g id="svga-group-eyebrows-left-move" transform="matrix(1,0,0,1,0,0)"><g id="svga-group-eyebrows-left-rotate" transform="matrix(1,0,0,1,0,0)"><g id="svga-group-eyebrows-left" transform="matrix(1,0,0,1,0,0)"><path id="SvgjsPath3891" d="M52.004 78c27.284-21.604 46.019-2.98 38.919-3.268C89.81 74.701 77.501 64.043 52.004 78z" fill="#a2998d" stroke-width="none" opacity="1" stroke="none"></path></g></g></g><g id="svga-group-eyebrows-right-move" transform="matrix(1,0,0,1,0,0)"><g id="svga-group-eyebrows-right-rotate" transform="matrix(1,0,0,1,0,0)"><g id="svga-group-eyebrows-right" transform="matrix(1,0,0,1,0,0)"><path id="SvgjsPath3892" d="M147.996 78c-8.301-6.572-16.838-10.828-27.652-10.275 -13.949 0.957-14.771 9.377-9.785 6.334 2.781-1.698 6.721-2.98 10.842-3.132C130.288 70.405 139.611 73.413 147.996 78z" fill="#a2998d" stroke-width="none" opacity="1" stroke="none"></path></g></g></g><g id="svga-group-nose-single-move" transform="matrix(1,0,0,1,0,0)"><g id="svga-group-nose-single" transform="matrix(1,0,0,1,0,0)"><path id="SvgjsPath3888" d="M108.922 115.926c0.172-0.464 0.276-0.95 0.358-1.437 0.03-0.18-0.207-0.842-0.228-0.632 -0.092 0.854-0.554 2.051-1.445 2.313 -1.022 0.299-1.61-0.05-1.703-1.063 -0.094-1.02 0.269-2.375-0.099-3.323 -0.238-0.613-0.773-1.111-1.321-1.456 0.413 1.849 0.743 4.265-1.02 5.589 0.151 0.18 0.289 0.266 0.422 0.302 -0.139 0.023-0.278 0.053-0.422 0.118 -0.697 0.317-3.238 0.92-3.978 0.596 -0.175-0.077-0.561-0.139-1.047-0.186 -0.326-0.286-0.924-1.031-1.203-1.204 -1.098-0.682-1.671-1.876-1.739-3.148 -0.147-2.679 1.239-5.664 4.39-6.829 -3.231-0.91-4.574 4.413-6.69 5.6 -1.267 0.711-2.476 1.342-2.453 2.929 0.007 0.525 0.07 1.286 0.307 1.925 -0.38-0.536-0.631-1.021-0.667-0.594 -0.309 3.608 4.084 2.615 5.457 2.864 1.134 0.205 3.081 0.493 4.027 0.51 1.027 0.018 2.582-0.342 3.596-0.51 0.982-0.165 2.696 0.033 3.957-0.535 0.744-0.336 1.812-0.556 1.812-2.005l-0.363 0.296C108.887 116.005 108.907 115.967 108.922 115.926z" fill="#d8a18a" stroke-width="none" opacity="1" stroke="none"></path><path id="SvgjsPath3889" d="M90.631 113.653c0.136-0.436 0.335-0.872 0.66-1.201 -0.57 0.992-0.649 2.412-0.137 3.444 0.629 1.269 1.752 1 2.828 0.511s1.976-0.851 3.094-0.478c0.87 0.29 1.569 0.722 2.526 0.72 1.023-0.002 1.786-0.428 2.736-0.724 1.155-0.345 2.129-0.147 3.214 0.342 1.021 0.461 2.191 1.044 2.981-0.106 0.698-1.04 0.623-2.648 0.015-3.709 1.364 1.398 1.034 5.385-1.576 4.882 -0.358-0.073-0.991-0.512-1.311-0.425 -0.577 0.157-1.305 0.006-1.889-0.05 -1.061-0.103-1.982-0.099-2.991 0.158 -0.387 0.09-0.784 0.143-1.182 0.139 -0.474-0.005-0.954-0.241-1.404-0.214 -1.265 0.077-2.516-0.194-3.785-0.112 -1.081 0.069-1.945 1.023-3.018 0.159C90.445 116.193 90.3 114.78 90.631 113.653 90.7 113.431 90.5 114.099 90.631 113.653zM101.079 105.797c0.503 0.105 0.96 0.334 1.384 0.62 -1.257-2.003-4.454-1.277-5.726 0.313C98.038 106.036 99.59 105.465 101.079 105.797 101.32 105.848 100.598 105.689 101.079 105.797z" fill="#b97151" stroke-width="none" opacity="1" stroke="none"></path><path id="SvgjsPath3890" d="M91.934 113.093c-1.776 0.928 1.459 5.222 0.898 1.789C92.598 113.45 93.403 112.469 91.934 113.093 91.338 113.348 92.263 112.921 91.934 113.093z" fill="#f6dbcf" stroke-width="none" opacity="1" stroke="none"></path></g></g><g id="svga-group-hair-front" transform="matrix(1,0,0,1,0,0)"><path id="SvgjsPath3782" d="M135.453 136.583c4.073-9.43 7.262-21.972 9.477-37.279 0.067-0.451 0.117-0.808 0.156-1.061 0.992-6.489 0.009-15.862-4.491-21.104l-0.209-0.244 1.063-0.289c-0.539 0.124-1.096 0.247-1.669 0.366 -3.895 0.812-7.551 1.224-10.876 1.224 -8.797 0-15.616-2.829-20.263-8.409 -2.884-3.464-4.68-11.368-6.582-19.735 -2.544-11.194-5.175-22.769-10.662-26.053 -1.272-0.758-2.77-1.193-4.105-1.193 -1.154 0-2.151 0.307-2.96 0.912C80.825 26.344 81.281 34 82.011 37.903c-6.661-4.193-11.245-3.647-14.132-1.808 -5.428 3.459-8.168 11.845-9.025 21.554 -0.647 7.344-1.381 15.668-4.235 23.526 -3.619 9.945 0.764 1.836 0.764 1.836l0.112 0.573c2.247 11.564 3.201 20.767 2.542 28.887 -0.72 8.862-0.989 15.863 2.911 22.094l0.237 0.378 -0.427-0.071c-7.892-1.313-24.733-9.192-26.417-25.176l-0.051-0.488 0.363 0.313c0.315 0.271 2.397 1.733 4.077 2.905 -8.249-8.001-12.972-15.939-12.972-30.242l0.361-0.091c0.516 1.047 1.169 2.106 1.751 2.979 -3.586-8.104-3.808-18.838-2.478-23.624l0.124-0.445 0.225 0.399c0.955 1.693 2.194 3.886 3.725 5.646 -6.986-11.897-4.496-23.937 0.998-30.318l0.298-0.345 0.036 0.463c0.138 1.79 0.315 4.052 1.052 5.933 -1.572-6.165-0.748-20.448 12.067-29.989l0.496-0.37 -0.206 0.6c-0.432 1.264-0.861 2.679-0.954 3.958 3.524-8.109 9.525-11.792 17.405-14.465l0.453-0.153 -0.225 0.438c-0.544 1.061-1.988 3.876-1.5 5.569 0.003-0.282 0.051-0.613 0.159-1.001C60.68 3.291 67.8-4.195 76.029-4.195h0.348l-0.186 0.308c-0.233 0.382-0.436 0.783-0.606 1.2 2.336-3.445 6.864-5.813 11.42-5.813 2.583 0 4.913 0.759 6.735 2.196l0.227 0.179 -0.244 0.152c-1.506 0.943-2.912 2.001-4.195 3.053 5.901-3.859 10.306-6.315 16.26-6.315 3.459 0 7.326 0.824 12.176 2.592 14.423 5.252 24.526 7.891 28.151 20.928 -0.557-1.779-1.009-1.875-2.27-4.387l-0.214-0.425 0.44 0.142c16.21 5.222 16.52 13.536 16.745 21.066 0.017 0.563 0.033 1.115 0.056 1.651 0.056-0.743 0.12-1.481 0.187-2.209 0.125-1.394 0.255-2.836 0.29-4.253l0.01-0.353 0.285 0.189c2.37 1.573 10.314 12.614 12.4 25.004 1.406 8.331 0.191 12.962-0.979 17.442 -0.246 0.938-0.496 1.892-0.723 2.884 0.282-0.947 0.574-1.869 0.88-2.777l0.147-0.44 0.203 0.416c8.769 17.928 1.639 25.74-4.09 32.018 -0.592 0.648-1.17 1.282-1.713 1.907 1.346-1.315 2.674-2.543 3.867-3.634l0.306-0.279 0.013 0.424c0.222 7.91-5.008 11.922-9.624 15.462 -2.078 1.594-4.063 3.116-5.325 4.851 1.519-1.341 3.349-2.649 5.654-4.049l0.402-0.242 -0.12 0.466c-1.854 7.306-9.894 11.861-23.215 19.408 -1.289 0.729-4.51 2.563-4.51 2.563L135.453 136.583z" fill="#afaeac" stroke-width="none" opacity="1" stroke="none"></path><path id="SvgjsPath3783" d="M140.595 77.138c-18.193 3.675-29.7 1.541-36.476-13.193 -3.777-30.062-8.219-39.376-16.828-41.14C113.185 25.574 94.168 79.888 140.595 77.138zM140.595 77.138c9.312 14.194-0.924 49.657-5.376 59.989C149.215 110.903 159.604 81.384 140.595 77.138zM76 34c-11-4-17 6-19 15 -2.18 13.077-0.38 31.068-17 52 12.198-10.494 16.776-14.285 20.089-43.505 1.098-9.685 2.362-17.94 7.79-21.399 2.514-1.602 6.315-2.22 11.652 0.414C78.539 34.84 76.646 34 76 34zM58.505 111.733c0.612-7.55 0.017-16.946-3.195-28.105 -0.783 18.777-8.53 30.985 4.649 49.982 0.188 0.073 0.375 0.147 0.563 0.219C57.105 127.782 57.814 120.249 58.505 111.733z" fill="#a0998d" stroke-width="none" opacity="1" stroke="none"></path><path id="SvgjsPath3784" d="M145.324 58.292c-0.047-0.001-0.045 0 0.128 0.007 -22.872-0.234-30.695-9.824-34.782-22.714 -7.638-24.12-29.693-24.206-33.143-8.625 3.043-18.274 28.903-14.735 35.651 7.876C118.056 51.152 130.186 57.602 145.324 58.292zM143.106 16.533C126.913-8.439 75.532 3.522 73.752 23.993 74.334 1.445 126.233-11.253 143.106 16.533zM76.913 31.942c-1.056-1.893-4.586-6.564-11.645-4.432C35.254 36.578 47.72 78.588 31.98 95.961c11.476-14.691 0.321-59.338 32.529-69.053C69.394 25.434 74.831 27.185 76.913 31.942zM76.915 22.284c2.541-10.911 16.292-16.115 26.676-14.975 12.555 1.378 15.997 14.619 21.2 20.917 8.055 9.752 17.439 10.502 27.63 8.976 -1.863 0.279-14.891 5.226-27.305-5.945 -9.141-8.23-8.852-18.521-21.154-22.038C97.229 7.295 80.559 10.274 76.915 22.284zM155.196 90.875c0.313-0.373 0.79-0.663 1.149-0.99 12.229-11.132 8.885-32.389 1.794-37.559C164.268 58.415 166.035 77.955 155.196 90.875zM161.098 100.625c-3.946 4.501-9.933 12.873-9.688 13.873 -0.295-1.215 9.346-10.466 10.222-11.625 4.784-6.33 7-12.439 4.996-18.441C167.539 90.212 167.093 93.787 161.098 100.625zM55.378 16.227c-14.68 3.301-12.107 23.189-12.345 24.189 0.238-1 0.325-20.632 15.298-22.799 -0.077 0.004-0.098 0.004-0.064 0.002 5.048-0.217 11 0.109 14.91 3.705C69.087 16.51 59.341 15.335 55.378 16.227zM74.958 2.319c1.366-1.797 3.992-4.456 7.554-4.432 -3.028-0.017-6.302-0.051-9.26 3.725 -1.752 2.238-3.791 8.079-2.474 10.984C70.391 9.074 73.379 4.396 74.958 2.319zM63.869 45.645c2.527-12.586 9.961-12.044 17.205-8.103C73.12 37.329 66.293 41.478 63.869 45.645zM82.033 37.471c-1.833-16.426 8.435-20.688 14.353-3.372C91.807 33.275 85.371 34.062 82.033 37.471z" fill="#908671" stroke-width="none" opacity="1" stroke="none"></path><path id="SvgjsPath3785" d="M43.245 88.393c6.21-11.865 3.609-32.352 9.748-41.739C47.896 60.12 49.558 74.716 43.245 88.393zM54.231 129.125c-7.173-7.228-10.447-16.268-9.544-26.425C41.055 113.881 45.882 121.858 54.231 129.125zM32.207 47.33c-4.514 7.856-1.646 12.65 2.774 20.101C31.552 62.645 28.107 52.807 32.207 47.33zM33.572 85.294c-2.736-3.85-5.306-8.574-5.276-13.561C29.902 76.546 28.766 81.792 33.572 85.294zM40.7 47.569c-3.393-8.802-1.508-19.53 2.261-27.923C36.927 28.282 35.782 38.328 40.7 47.569zM117.56-4.839C99.84-6.906 83.557-4.017 73.519 13.085 83.277-0.626 101.23-6.846 117.56-4.839zM150.921 28.691c-19.725-0.53-23.47-23.613-42.557-23.028C127.391 6.139 129.372 29.359 150.921 28.691zM162.892 88.441c5.6-15.989 10.484-30.128 0.417-46.175C171.733 58.934 168.165 71.989 162.892 88.441zM154.505 115.547c-3.428 7.385-8.313 9.885-13.778 15.539C147.598 128.183 152.767 122.906 154.505 115.547zM155.112 46.88c-14.333 0.554-27.096-3.42-35.116-15.573C126.915 45.62 140.449 48.376 155.112 46.88z" fill="#bebebe" stroke-width="none" opacity="1" stroke="none"></path><path id="SvgjsPath3786" d="M179.475 82.804c0.005 0.018 0.006-0.012-0.001-0.142 -0.01-0.068-0.017-0.106-0.021-0.127 -0.681-4.582-1.776-8.134-4.785-13.389 -0.303-0.525-1.071-1.37-0.882-1.951 0.822-2.485 4.435-11.733 0.758-23.114 -1.646-5.076-8.407-16.142-12.744-18.91 -1.355-11.878-6.353-13.801-18.127-16.226 0.169 0.294 0.332 0.596 0.49 0.904 19.536 6.37 15.576 18.102 16.786 25.495 -0.024-3.157 0.515-6.309 0.599-9.465 2.242 1.489 10.189 12.306 12.307 24.868 2.062 12.204-1.492 16.26-2.392 24.204 0.567-2.246 1.199-4.433 1.944-6.627 10.874 22.246-2.971 28.891-7.729 36.23 1.949-2.05 3.989-3.97 6.084-5.875 0.35 12.208-12.526 15.039-15.665 21.416 1.974-1.952 4.282-3.552 6.666-4.99 -2.01 7.926-11.433 12.604-27.135 21.559 6.678-15.453 9.153-35.195 9.645-38.389 0.893-5.856 0.302-15.627-4.534-21.273 2.936-0.798 5.926-1.575 8.768-2.664 -2.385 0-27.827 10.785-40.72-4.686 -6.831-8.199-7.54-39.99-17.292-45.823 -2.11-1.262-5.17-1.845-7.277-0.27 -3.157 2.361-3.334 8.466-2.694 12.726 0.001 0.607 0.064 1.201 0.064 1.201s-1-0.656-1.38-0.875c-3.825-2.035-8.559-3.158-12.427-0.689 -9.606 6.133-6.676 26.843-13.343 45.18 -6.091 16.753-12.381 14.397-17.286 23.911 6-9.295 11.27-6.831 18.158-21.384 4.75 24.441-1.98 39.14 5.477 51.048 -6.8-1.127-24.501-8.387-26.255-24.997 0.54 0.46 6.15 4.352 6.284 4.437 -9.746-8.919-14.863-16.825-14.863-31.927 1.233 2.52 3.216 5.03 3.216 5.03 0.018-0.088-0.264-0.461-0.304-0.537 -4.259-8.017-4.749-19.923-3.287-25.177 1.336 2.372 2.909 5.096 4.982 6.932 -8.201-12.494-5.386-25.259 0.048-31.57 0.206 2.59 0.475 6.017 2.29 8.082 -2.109-3.291-3.982-20.742 11.13-31.998 -0.505 1.474-1.096 3.403-0.961 4.984C46.744 8.83 53.23 5.248 60.722 2.7c-0.82 1.595-2.976 5.865-0.408 6.993C56.953 8.215 65.631-3.999 76.033-3.999c-0.544 0.896-0.917 1.88-1.123 2.906 2.922-6.477 12.93-9.608 18.715-5.051 -2.37 1.478-4.53 3.266-6.61 5.114 12.854-8.234 21.979-8.207 34.624-3.891 7.605 2.596 17.111 5.483 24.73 19.78C144.19 3.939 130.166-4.423 122.695-6.942c-20.28-6.846-28.51 0.08-28.51 0.08 -6.209-7.016-14.417-2.535-17.698 2.159C61.433-5.065 62.594 1.579 60.955 1.884c-14.59 2.726-14.66 8.385-17.02 9.676 -10.961 6.003-13.735 13.668-13.402 24.191 -12.438 12.35-5.392 23.111-5.887 24.23 -5.069 11.436 0.464 18.845 0.238 20.38 -3.08 20.905 8.766 27.064 8.769 28.864 0.045 22.594 23.879 26.713 28.836 26.308 -7.255-14.38 1.09-23.773-6.729-52.88 4.149-9.398 6.389-21.289 7.314-30.863 1.03-10.639 14.588-14.209 18.938-13.887 4.391-3.255 8.96-3.179 14.78-2.578 3.275 10.267 4.844 23.685 5.561 26.507 4.188 16.459 20.678 19.766 37.427 15.424 1.043-0.269 5.199 6.586 4.059 17.601 -0.146 1.409-5.579 32.572-9.609 43.643 9.359-4.462 26.288-9.968 29.666-24.11 6.988-4.789 10.256-7.462 8.856-16.221C172.75 98.169 179.908 92.106 179.475 82.804z" fill="#817358" stroke-width="none" opacity="1" stroke="none"></path></g><g id="svga-group-glasses-single-move" transform="matrix(1,0,0,1,0,0)"><g id="svga-group-glasses-single" transform="matrix(1,0,0,1,0,0)"><path id="SvgjsPath3271" d="M100,18.13L100,18.13L100,18.13L100,18.13z" fill="#26120b" stroke-width="none" opacity="1"></path></g></g></g></g></g><rect id="svga-credit-rect" width="200" height="15" x="0" y="185" fill="#ecf0f1" opacity="0.5" style="display: none;"></rect><text id="svga-credit-text" font-family="Avenir Next, Roboto, Helvetica, Arial, sans-serif" font-size="10px" text-anchor="start" font-weight="400" size="10px" anchor="start" weight="400" fill="#333333" x="33.3125" y="182.609375" style="display: none;"><tspan id="SvgjsTspan3126" dy="13" x="33.3125">Created on AvatarMaker.com</tspan></text></g></svg>