<svg xmlns="http://www.w3.org/2000/svg" version="1.1" width="600px" height="600px" viewBox="0 0 200 200" style="overflow:hidden!important;"><g id="svga-group-wrapper"><g id="svga-group-backs-single"></g><g id="svga-group-humanwrap-move" transform="matrix(1,0,0,1,0,0)"><g id="svga-group-humanwrap"><g id="svga-group-hair-back-move" transform="matrix(1,0,0,1,0,0)"><g id="svga-group-hair-back"></g></g><g id="svga-group-humanbody-back"><path id="SvgjsPath9708" d="M166.5 181.1c-10.9-6.6-27.6-8.4-35-12.1-4.9-2.5-9.1-4.7-8.9-17.8s1.9-42.4 1.9-42.4H75.4s1.6 29.4 1.9 42.4-4.2 15.6-8.9 17.8c-7.4 3.5-24.1 5.4-35 12.1-10.8 6.6-10 18.9-10 18.9v19.7h153.3V200c-.1 0 .7-12.3-10.2-18.9z" fill="#f0c7b1" stroke-width="none" opacity="1" stroke="none"></path></g><g id="svga-group-chinshadow-single"><path id="SvgjsPath11740" d="M124.5 108.9H75.4c.1 1.8 1.6 29.7 1.9 42.3.1 2.2 0 4.2-.2 5.8 1.2.2 2.3.4 3.4.6C88 159 88 165 99.9 165s12.1-6 19.5-7.4c1.1-.2 2.3-.4 3.5-.6-.2-1.7-.3-3.6-.3-5.8.2-12.7 1.8-40.5 1.9-42.3z" fill="#d19271" stroke-width="none" opacity="0.65"></path></g><g id="svga-group-humanbody-front"><path id="SvgjsPath9709" d="M78.7 156.8c.5 4.8 1.7 9.4 3.1 13.9.8 2.3 1.6 4.6 2.6 6.9.8 2 1.7 4.2 3.1 5.9.3.4 1 0 .9-.5-.5-2.2-1.6-4.3-2.4-6.4-.9-2.2-1.7-4.4-2.5-6.6-1.5-4.4-2.8-8.9-4.1-13.3-.2-.4-.8-.3-.7.1zm41.3-1c-1.3 8.2-3.9 16.1-5.4 24.2-.1.4.4.5.6.2 3.1-7.7 4.1-16.1 5.1-24.3-.1-.2-.3-.2-.3-.1zm-25.8 11.9c-.9 3.6 1.9 8.6 6.2 7.6.5-.1.4-.8 0-1-1.4-.5-2.9-.9-3.9-2.1-1.1-1.2-1.5-2.9-1.4-4.5 0-.4-.8-.5-.9 0z" fill="#d19271" stroke-width="none" opacity="1" stroke="none"></path><path id="SvgjsPath9710" d="M177.3 219.7c-.1-6.6-.3-13.1-.3-19.7l-.3-.3c.1 0 .1 0 .2.1s.1.2.1.1v-1.4c0-.5-.1-.9-.1-1.4-.1-.9-.3-1.9-.5-2.8-.5-1.8-1.1-3.6-2-5.3-1.7-3.4-4.4-6.2-7.7-8.1-3.6-2.2-7.6-3.8-11.6-5.1-4-1.3-8.1-2.4-12.1-3.5-4-1.2-8.1-2.2-11.8-4.2-1.9-1-3.6-2.1-4.8-3.6-1.2-1.6-1.9-3.5-2.3-5.5-.8-4-.4-8.2-.3-12.4l.7-12.6 1.5-25.2.1-1.4h-1.4c-8.2 0-16.4 0-24.6.1l-24.6.3h-.9l.1.9c.8 11.9 1.6 23.8 2.1 35.7.1 3 .3 6 .2 8.9-.1 2.9-.4 5.9-1.6 8.6-.6 1.3-1.4 2.5-2.4 3.5s-2.3 1.8-3.6 2.4c-2.6 1.3-5.4 2.2-8.3 3-5.8 1.5-11.6 2.8-17.3 4.7-2.8.9-5.7 2-8.4 3.4-1.3.7-2.7 1.4-4 2.4-1.3.9-2.4 1.9-3.5 3.1-2.1 2.3-3.6 5.2-4.5 8.1-.5 1.5-.8 3-1 4.6-.1.8-.1 1.6-.1 2.4v2.3l-.2 17.9v1.3h1.4l38.3.2c12.8.1 25.5.1 38.3 0 12.8-.1 25.6-.1 38.3-.3 12.8-.2 25.6-.5 38.3-.7h.6v-.5zm-77.2-1.6H61.8l-37 .2-.1-16.6v-2.2c0-.7 0-1.4.1-2.1.1-1.4.4-2.8.8-4.2.8-2.7 2.1-5.3 3.9-7.5.9-1.1 2-2.1 3.1-2.9 1.1-.9 2.4-1.6 3.7-2.3 2.6-1.4 5.3-2.5 8.1-3.5 5.6-2 11.4-3.4 17.1-5.1 2.9-.8 5.8-1.7 8.5-3.1 1.3-.7 2.7-1.5 3.8-2.6 1.1-1.1 2-2.4 2.6-3.9 1.2-2.9 1.5-5.9 1.6-8.9 0-3-.1-6-.2-9l-1.3-34.8 23.5.4c7.7.1 15.4.1 23.1.1-.4 7.9-.8 15.9-1.1 23.8-.2 4.2-.2 8.4-.3 12.6 0 4.2-.2 8.5.8 12.8.5 2.1 1.3 4.2 2.8 6 1.4 1.7 3.4 2.9 5.3 3.8 3.9 1.9 8 2.8 12.1 3.8s8.2 2 12.2 3.3c4 1.3 7.9 2.8 11.5 5 3.2 1.9 5.8 4.7 7.5 8 .9 1.6 1.5 3.4 1.9 5.2.2.9.4 1.8.4 2.7.1.5.1.9.1 1.4V200l-.3 19c-12.6-.2-25.1-.5-37.7-.7-12.7-.1-25.5-.1-38.2-.2z" fill="#c27b55" stroke-width="none" opacity="1" stroke="none"></path></g><g id="svga-group-clothes-single"><path id="SvgjsPath10054" d="M179.3 220.1c0-17.5-1.6-26.7-1.6-26.7-3.2-15.2-21.5-18.1-30.1-20.5-2.8-.8-8.2-1.4-8.2-1.4-4.8 5.3-9.9 9.8-15.9 15.4-7.5 7-14.9 13-21.8 18.1-6.4-4-13.8-9.3-21.4-16.1-7.7-6.9-13.1-12.8-17.9-18.8-3.1.5-7.1.9-10.7 1.7-8.7 1.9-26.5 7.6-29.5 21.6 0 0-1.6 9.2-1.6 26.7h158.7z" fill="#fff791" stroke-width="none" opacity="1" stroke="none"></path><path id="SvgjsPath10055" d="M179.6 210.9c0-3.1-.1-6.1-.3-9.2-.1-1.5-.2-3.1-.3-4.6l-.2-2.3-.1-1.2c0-.4-.2-.8-.3-1.2-.2-.8-.4-1.6-.7-2.3l-.9-2.2-1.2-2.1c-.4-.7-1-1.3-1.5-1.9-2.1-2.4-4.7-4.4-7.5-5.9s-5.7-2.6-8.7-3.6c-3-.9-6-1.7-8.9-2.5-2.9-.8-6.1-.8-9.1-1.7-.5-.1-1 0-1.4.4-5.8 6.3-11.5 11.3-17.8 17.1-6.1 5.6-12.4 11.1-19.1 16.1-3.6-2.2-7.2-4.6-10.6-7.1-3.6-2.6-7.1-5.4-10.5-8.4-3.4-3-6.6-6.1-9.7-9.3-3.1-3.3-5.2-5.8-8-9.3-.1-.1-.3-.2-.5-.2-3.2.6-6.9.8-10 1.5-3.1.6-6.2 1.4-9.2 2.4-6 2.1-11.9 4.9-16.5 9.7-2.3 2.4-4.1 5.2-5.1 8.4l-.4 1.2c-.1.2-.1.4-.2.6l.1.7-.3 2.4c-.2 1.6-.4 3.2-.5 4.7-.6 6.3-.8 12.6-.9 19 0 .8.6 1.4 1.4 1.4l40 .2c13.3 0 26.7-.1 39.9-.2l39.7-.5 19.7-.3 19.5-.4c.1-1.5.1-3.2.1-4.7v-4.7zM23 196.6c.1-.8.2-1.6.3-2.3l.1-.6c0-.2.1-.3.1-.5l.3-1.1c.8-2.8 2.4-5.5 4.4-7.7 1.5-1.6 3.2-3.1 5-4.4 1.1 1.1 2 2.4 2.8 3.7.9 1.5 1.7 3 2.4 4.6 1.4 3.2 2.4 6.5 3.2 9.9.4 1.7.8 3.4 1.1 5.1.3 1.7.6 3.4.9 5.2.5 3.3 1 6.6 1.5 10l-22.8.1c0-5.8.1-11.6.5-17.4-.1-1.4 0-3 .2-4.6zm116.1 22.7-39.7-.5c-13.2-.1-26.3-.2-39.4-.2l-15 .1c.3-3.4.2-6.8 0-10.2-.3-3.5-.8-7.1-1.6-10.6-.4-1.7-.9-3.5-1.5-5.2-.6-1.7-1.3-3.4-2.2-4.9-.8-1.6-1.8-3.1-3-4.5-1-1.2-2.1-2.4-3.4-3.2 3.2-2.2 6.8-3.9 10.4-5.2 2.9-1.1 5.9-1.9 9-2.6 3-.7 6.7-.9 9.6-1.5 2.8 3.4 4.9 5.8 7.9 9 3.1 3.3 6.3 6.4 9.7 9.5 6.7 6.1 13.8 11.6 21.4 16.6.3.2.7.2 1 0 7-5 13.8-10.3 20.2-16.1 3.2-2.9 6.4-5.8 9.4-8.9 2.9-2.8 5.3-4.8 8-7.8 2.7.8 5.7.7 8.4 1.4 3 .8 6 1.4 8.9 2.3 2.9.9 5.7 1.9 8.4 3.3.3.1.5.3.8.4-1.1.8-2.1 1.8-2.9 2.9-1.1 1.4-2.1 2.9-3 4.5-.9 1.6-1.6 3.2-2.2 4.9-.6 1.7-1.1 3.4-1.5 5.2-.8 3.5-1.3 7-1.6 10.6-.2 3.5-.3 7.1 0 10.6l1.5-10.5c.3-1.7.6-3.5.9-5.2.3-1.7.6-3.4 1.1-5.1.8-3.4 1.8-6.7 3.2-9.9.7-1.6 1.5-3.1 2.4-4.6.7-1.2 1.5-2.3 2.4-3.3 2.2 1.2 4.3 2.8 6.1 4.6.5.6 1 1.1 1.4 1.7l1.2 1.8.9 2c.3.7.4 1.4.7 2.1.1.4.2.7.3 1.1l.2 1.1.3 2.3.5 4.6c.3 3 .6 6.1.7 9.2l.5 9.1-40.4-.9zm-4.2-34.6c-3.4 3.3-6.9 6.5-10.4 9.5-7.1 6.1-14.3 11.9-21.9 17.3-4.3-2.5-8.5-5.3-12.5-8.3-4.1-3.1-8-6.3-11.8-9.7-3.8-3.4-7.5-6.9-11.1-10.6-3.6-3.6-7.1-7.4-10.4-11.3 3.2 4 6.5 7.9 10 11.6 3.5 3.7 7.2 7.4 10.9 10.8 3.8 3.5 7.8 6.7 11.8 9.9 4.1 3.1 8.4 6 12.8 8.6.2.1.4.1.5 0 3.8-2.8 7.6-5.6 11.3-8.6 3.7-3 7.3-6 10.8-9.2 3.5-3.1 6.9-6.4 10.3-9.8 3.3-3.4 6.5-6.9 9.5-10.4-3.1 3.5-6.3 6.9-9.8 10.2z" fill="#e0d653" stroke-width="none" opacity="1" stroke="none"></path></g><g id="svga-group-head" transform="matrix(1,0,0,1,0,0)"><g id="svga-group-ears-left-move" transform="matrix(1,0,0,1,0,0)"><g id="svga-group-ears-left"><path id="SvgjsPath9610" d="M62 92.9c-.2-.3-3.3-4.3-5.9-6.7-2.6-2.4-3.4-2.4-4.6-.9-1.3 1.5-2.9 9.1-2.5 12.4.4 3.4 3.6 8.7 5.2 11.7 1.7 3 3.3 6.7 5.1 6.3 1.9-.4 4.4-4.6 5.7-7.7 1.3-3.1.5-10.8-3-15.1z" fill="#f0c7b1" stroke-width="none" opacity="1" stroke="none"></path><path id="SvgjsPath9611" d="M65.8 102c.1.9.2 1.7.2 2.6s0 1.7-.2 2.6c-.1.4-.2.9-.3 1.3-.1.4-.3.7-.4 1.1-.3.7-.6 1.4-1 2.1-.7 1.3-1.5 2.6-2.6 3.6-.5.5-1.1 1-1.8 1.3-.4.1-.9.1-1.3 0-.4-.2-.8-.5-1.1-.8-1.2-1.3-1.9-2.8-2.7-4.3-.7-1.5-1.5-2.9-2.2-4.3-.7-1.5-1.5-2.9-2.1-4.4-.3-.8-.7-1.5-.9-2.3-.3-.8-.5-1.6-.6-2.5-.2-1.7 0-3.4.1-5 .2-1.6.5-3.2.8-4.8.2-.8.4-1.6.8-2.3l.3-.6c.1-.2.3-.4.4-.5.2-.3.5-.6.9-.8.3-.2.8-.3 1.2-.3.4.1.8.3 1.1.5.7.4 1.2 1 1.8 1.5 2.2 2.2 4 4.8 5.9 7.2 1.9 2.4 3.2 5.7 3.7 9.1zM55.7 86.4c-1.1-.9-2.4-1.9-3.1-1.2-.2.1-.4.4-.6.6l-.3.3c-.1.1-.1.3-.2.4-.3.6-.5 1.3-.8 2-.5 1.4-.9 2.9-1.1 4.5-.3 1.5-.5 3.1-.4 4.7.1.8.3 1.6.6 2.3.3.8.6 1.5.9 2.2.7 1.5 1.5 2.8 2.3 4.2.8 1.4 1.7 2.7 2.5 4.1.4.7.8 1.4 1.2 2s.8 1.3 1.3 1.7c.5.4.9.6 1.3.4.5-.2.9-.6 1.4-1.1.9-1 1.6-2.1 2.3-3.4.4-.6.7-1.3 1-1.9.2-.3.3-.7.4-1l.2-.5c0-.2.1-.3.1-.5.3-1.4.4-3 .3-4.6s-.4-3.2-.9-4.8c-.5-1.6-1.2-3-2.2-4.2-1.9-2.1-4-4.3-6.2-6.2z" fill="#e1ac8f" stroke-width="none" opacity="1" stroke="none"></path><path id="SvgjsPath9612" d="M51.2 99.4c-.3-2.3-.5-7.8.8-9.6 2.2-2.9 6 6.4 6.9 9.3 0 .1.1.2.1.3.2.3-.1.7-.4.6-.4-.2-.9-.6-1.3-.8-1.1-.5-1.6.5-1.3 1.8.4 1.8 1.4 2.9 2.2 4.3.1.2 0 .4-.2.3-1.6-.9-3.5-4.5-3.1-6.6.3-2 1.9-1.8 3.1-.8-.7-1.7-1.5-3.3-2.5-4.8-.6-.9-1.2-2-2.2-2.2-1.2-.2-1 .3-1.2 1.8-.8 4.8-.3 10.4 2.5 14.5.1.1 0 .2-.1.1-1.8-2.3-3-4.9-3.3-8.2z" fill="#d19271" stroke-width="none" opacity="1" stroke="none"></path></g></g><g id="svga-group-ears-right-move" transform="matrix(1,0,0,1,0,0)"><g id="svga-group-ears-right"><path id="SvgjsPath9613" d="M138 92.9c.2-.3 3.3-4.3 5.9-6.7 2.6-2.4 3.4-2.4 4.6-.9 1.3 1.5 2.9 9.1 2.5 12.4s-3.6 8.7-5.2 11.7c-1.7 3-3.3 6.7-5.1 6.3-1.9-.4-4.4-4.6-5.7-7.7s-.5-10.8 3-15.1z" fill="#f0c7b1" stroke-width="none" opacity="1" stroke="none"></path><path id="SvgjsPath9614" d="M138 92.9c1.9-2.4 3.8-5 5.9-7.2.5-.5 1.1-1.1 1.8-1.5.3-.2.7-.4 1.1-.5.4-.1.9.1 1.2.3.3.2.6.5.9.8.1.1.2.3.4.5l.3.6c.3.7.6 1.5.8 2.3.4 1.6.7 3.2.8 4.8.2 1.6.3 3.3.1 5-.1.9-.4 1.7-.6 2.5-.3.8-.6 1.6-.9 2.3-.7 1.5-1.4 3-2.1 4.4-.8 1.5-1.5 2.9-2.2 4.3-.8 1.4-1.4 3-2.7 4.3-.3.3-.7.6-1.1.8-.4.2-.9.2-1.3 0-.8-.3-1.3-.8-1.8-1.3-1-1.1-1.8-2.3-2.6-3.6-.4-.7-.7-1.4-1-2.1-.2-.4-.3-.7-.4-1.1-.1-.4-.3-.8-.3-1.3-.1-.9-.2-1.7-.2-2.6s.1-1.7.2-2.6c.4-3.4 1.7-6.7 3.7-9.1zm.1.1c-1 1.2-1.7 2.7-2.2 4.2-.5 1.6-.8 3.2-.9 4.8-.1 1.6 0 3.2.3 4.6 0 .2.1.3.1.5l.2.5c.1.3.3.7.4 1 .3.7.6 1.3 1 1.9.7 1.2 1.5 2.4 2.3 3.4.4.5.9.9 1.4 1.1.4.2.8 0 1.3-.4s.9-1 1.3-1.7c.4-.6.8-1.3 1.2-2 .8-1.4 1.7-2.8 2.5-4.1.8-1.4 1.6-2.8 2.3-4.2.4-.7.7-1.5.9-2.2.3-.8.5-1.6.6-2.3.1-1.6-.1-3.2-.4-4.7-.3-1.5-.7-3-1.1-4.5-.2-.7-.5-1.4-.8-2-.1-.1-.1-.3-.2-.4-.1-.1-.1-.2-.3-.3-.2-.2-.4-.5-.6-.6-.7-.6-2 .4-3.1 1.2-2.2 1.5-4.3 3.7-6.2 6.2z" fill="#e1ac8f" stroke-width="none" opacity="1" stroke="none"></path><path id="SvgjsPath9615" d="M148.8 99.4c.3-2.3.5-7.8-.8-9.6-2.2-2.9-6 6.4-6.9 9.3 0 .1-.1.2-.1.3-.2.3.1.7.4.6.4-.2.9-.6 1.3-.8 1.1-.5 1.6.5 1.3 1.8-.4 1.8-1.4 2.9-2.2 4.3-.1.2 0 .4.2.3 1.6-.9 3.5-4.5 3.1-6.6-.3-2-1.9-1.8-3.1-.8.7-1.7 1.5-3.3 2.5-4.8.6-.9 1.2-2 2.2-2.2 1.2-.2 1 .3 1.2 1.8.8 4.8.3 10.4-2.5 14.5-.1.1 0 .2.1.1 1.8-2.3 3-4.9 3.3-8.2z" fill="#d19271" stroke-width="none" opacity="1" stroke="none"></path></g></g><g id="svga-group-faceshape-wrap"><g id="svga-group-faceshape-single"><path id="SvgjsPath11729" d="M143.7 94.7c-.4-6.1-.5-11.5-.5-12.7v-.3c-1.3-29.9-20.7-46.4-43.2-46.4S58.1 51.7 56.8 81.7v.3c0 1.2-.1 6.6-.5 12.7-.6 7.8-1.9 11.7-1.6 21.7.3 8.4 3.8 17.8 9.2 21.9 6.3 4.8 12.3 5 17.7 6 7.5 1.4 6.5 7.4 18.4 7.4s11-6 18.4-7.4c5.3-1 11.4-1.3 17.7-6 5.4-4.1 9-13.5 9.2-21.9.3-10-1-13.9-1.6-21.7z" fill="#f0c7b1" stroke-width="none" opacity="1"></path><path id="SvgjsPath11730" d="M143.7 94.7c-.4-6.1-.5-11.5-.5-12.7v-.3c-1.3-29.9-20.7-46.4-43.2-46.4S58.1 51.7 56.8 81.7v.3c0 1.2-.1 6.6-.5 12.7-.6 7.8-1.9 11.7-1.6 21.7.3 8.4 3.8 17.8 9.2 21.9 6.3 4.8 12.3 5 17.7 6 7.5 1.4 6.5 7.4 18.4 7.4s11-6 18.4-7.4c5.3-1 11.4-1.3 17.7-6 5.4-4.1 9-13.5 9.2-21.9.3-10-1-13.9-1.6-21.7zm.7 20.6c-.1 1.7-.4 5.6-1.9 10.3-1.2 3.2-3 7.1-5.3 9.4-1.1 1.1-2.4 2-3.9 2.8-1.4.8-2.9 1.5-4.5 2-3.1 1-6.4 1.4-10 1.9-.9.1-1.6.3-2.6.6s-1.6.8-2.5 1.3c-1.8 1-2.8 2.1-4.1 2.9s-2.6 1.4-4.1 1.8c-1.5.4-3 .6-4.6.6-3.3.1-6.4-.3-9-1.6-1.3-.7-2.5-1.6-4.1-2.8-1.5-1.1-2.5-2.2-4.6-2.6-1.1-.3-2-.4-2.8-.5l-2.6-.4c-1.7-.3-3.3-.6-4.9-1s-3-1-4.4-1.7l-2.1-1.2-1-.7-.9-.7c-2.3-2-4.1-5.8-5.3-8.8-1.3-3-2.1-6.3-2.4-9.6-.2-1.6-.2-3.4-.2-5.1s.1-3.4.3-5.1c.4-3.4.4-6.3.7-9.9.2-1.8 0-4.2 0-6l.1-5.3c0-1.8 0-3.6.1-5.3L58 78c.1-.9.1-1.7.2-2.6.8-6.9 2.9-13.7 6.5-19.6 1.7-3 4-5.6 6.4-8.1l2-1.7 1-.8c.3-.3.7-.5 1.1-.7l2.1-1.4c.7-.4 1.5-.8 2.2-1.2 6-3.3 12.8-4.6 19.5-4.6 6.7-.1 13.4 1.6 19.4 4.5 5.9 3 11.2 7.5 15.2 13 3.9 5.5 6.7 12.1 8.1 18.9l.5 2.6.3 2.6.3 2.6.1 2.9c.2 3.5.1 6.4.1 9.9.2 3.5.4 7.4 1 10.9s.7 6.6.4 10.1z" fill="#c27b55" stroke-width="none" opacity="1"></path></g></g><g id="svga-group-mouth-single-move" transform="matrix(1,0,0,1,0,0)"><g id="svga-group-mouth-single"><path id="SvgjsPath9803" d="M84.55 124.35c2.12.93 5.56 1.69 7.85 1.77 3.19.02 6.26 2.11 7.48 2.26 2.21.07 3.75-1.85 6.79-2.37 1.47-.35 4.04.01 9.17-1.28-5.01-.22-8.57-1.27-10.43-1.25-2.27.02-3.96 1.19-5.18 1.19-.81.02-3.58-1.23-5.7-.91-4.47.67-9.98.59-9.98.59z" fill="#eca67f" stroke-width="none" opacity="1" transform="translate(0 2)" stroke="none"></path><path id="SvgjsPath9804" d="M107.46 131.85c1.42-.3 2.04-.44 3.21-1.01-2.36.13-8.45.88-10.82.8-2.64-.09-6.75-.74-9.33-1.2 1.05.53 2.75.91 3.57 1.17 0 0 4.79 1.73 13.37.24z" fill="#d19271" stroke-width="none" opacity="1" transform="translate(0 2)" stroke="none"></path></g></g><g id="svga-group-eyes-left-move" transform="matrix(1,0,0,1,0,0)"><g id="svga-group-eyes-left"><g id="svga-group-eyesback-left"><path id="SvgjsPath9650" d="M89.8 98.6s-.1-2.2-.9-3.6-3.1-4.1-7.5-4.4c-4.4-.3-11.6 1.1-11.6 1.1s.9 1.5 2.3 2.8c1.4 1.3 4.7 3.3 7.1 3.6 2.4.3 6 .2 7.3.2 1.3-.1 3.3.3 3.3.3z" fill="#ffffff" stroke-width="none" opacity="1"></path></g><g id="svga-group-eyesiriswrapper-left" transform="matrix(1,0,0,1,0,0)"><g id="svga-group-eyesiriscontrol-left" transform="matrix(1,0,0,1,0,0)"><g id="svga-group-eyesiris-left"><path id="SvgjsPath9725" d="M80 88.1c3 0 5.5 2.4 5.5 5.4 0 3-2.4 5.5-5.4 5.5s-5.5-2.4-5.5-5.4c0-3 2.4-5.5 5.4-5.5z" fill="#8b92b0" stroke-width="none" opacity="1"></path><path id="SvgjsPath9726" d="M80.1 99.3c-3.2 0-5.8-2.5-5.8-5.7s2.5-5.8 5.7-5.8 5.8 2.5 5.8 5.7-2.5 5.7-5.7 5.8zm-.1-11c-2.9 0-5.2 2.4-5.1 5.2s2.4 5.2 5.2 5.1c2.9 0 5.2-2.4 5.1-5.2 0-2.8-2.3-5.1-5.2-5.1z" fill="#6f78a0" stroke-width="none" opacity="1"></path><path id="SvgjsPath9727" d="M80 88.9c2.6 0 4.7 2.1 4.7 4.6 0 2.6-2.1 4.7-4.6 4.7s-4.7-2.1-4.7-4.6c0-2.6 2-4.7 4.6-4.7z" fill="#9aa0b7" stroke-width="none" opacity="1"></path><path id="SvgjsPath9728" d="M80 89.5c2.2 0 4 1.8 4.1 4 0 2.2-1.8 4-4 4.1s-4-1.8-4.1-4c0-2.3 1.8-4.1 4-4.1z" fill="#aaaebf" stroke-width="none" opacity="1"></path><path id="SvgjsPath9729" d="M80 90.6c1.6 0 2.9 1.3 3 2.9 0 1.6-1.3 2.9-2.9 3s-2.9-1.3-3-2.9c0-1.7 1.3-3 2.9-3z" fill="#000000" stroke-width="none" opacity="1"></path><path id="SvgjsPath9730" d="M78.7 90.6c.6 0 1 .4 1 1s-.4 1-1 1-1-.4-1-1 .5-1 1-1zm3.4 4.6c.2 0 .4.2.4.4s-.1.4-.4.4-.4-.2-.4-.4.2-.4.4-.4z" fill="#ffffff" stroke-width="none" opacity="1"></path></g></g></g><g id="svga-group-eyesfront-left"><path id="SvgjsPath9658" d="M69.4 94.6c0 6.4 4.7 11.5 10.6 11.5s10.6-5.2 10.6-11.5S85.9 83.1 80 83.1s-10.6 5.1-10.6 11.5zm.5-3s7.1-1.4 11.6-1.1c4.4.3 6.7 3 7.5 4.4.8 1.4.9 3.6.9 3.6s-2-.4-3.3-.4c-1.3 0-4.9.1-7.3-.2-2.4-.3-5.6-2.3-7.1-3.6-1.4-1.2-2.3-2.7-2.3-2.7z" fill="#f0c7b1" stroke-width="none" opacity="1" stroke="none"></path><path id="SvgjsPath9659" d="M68.9 92h.8c1.8 2.6 4.3 4.6 7.3 5.8 4.2 1.6 8.5.5 12.8 1.2.2 0 .4-.2.3-.4.2-3.7-2.5-6.6-5.8-7.8-4.8-1.8-10.5-.1-15.3.5-.6 0-.6.7-.1.7zm1.6-.1c3.3-.3 6.5-1.1 9.8-1 4.4.2 9.1 2.4 9.2 7.4-3-1.1-6.3-.1-9.4-.6-4-.6-7.2-2.7-9.6-5.8z" fill="#000000" stroke-width="none" opacity="1" stroke="none"></path></g></g></g><g id="svga-group-eyes-right-move" transform="matrix(1,0,0,1,0,0)"><g id="svga-group-eyes-right"><g id="svga-group-eyesback-right"><path id="SvgjsPath9651" d="M110.2 98.6s.1-2.2.9-3.6 3.1-4.1 7.5-4.4c4.4-.3 11.6 1.1 11.6 1.1s-.9 1.5-2.3 2.8c-1.4 1.3-4.7 3.3-7.1 3.6-2.4.3-6 .2-7.3.2-1.3-.1-3.3.3-3.3.3z" fill="#ffffff" stroke-width="none" opacity="1"></path></g><g id="svga-group-eyesiriswrapper-right" transform="matrix(1,0,0,1,0,0)"><g id="svga-group-eyesiriscontrol-right" transform="matrix(1,0,0,1,0,0)"><g id="svga-group-eyesiris-right"><path id="SvgjsPath9731" d="M119.9 88.1c3 0 5.5 2.4 5.5 5.4S123 99 120 99s-5.5-2.4-5.5-5.4 2.4-5.5 5.4-5.5z" fill="#8b92b0" stroke-width="none" opacity="1"></path><path id="SvgjsPath9732" d="M120 99.3c-3.2 0-5.8-2.5-5.8-5.7s2.5-5.8 5.7-5.8 5.8 2.5 5.8 5.7-2.5 5.7-5.7 5.8zm-.1-11c-2.9 0-5.2 2.4-5.1 5.2 0 2.9 2.4 5.2 5.2 5.1 2.9 0 5.2-2.4 5.1-5.2 0-2.8-2.3-5.1-5.2-5.1z" fill="#6f78a0" stroke-width="none" opacity="1"></path><path id="SvgjsPath9733" d="M119.9 88.9c2.6 0 4.7 2.1 4.7 4.6s-2.1 4.7-4.6 4.7-4.7-2.1-4.7-4.6 2-4.7 4.6-4.7z" fill="#9aa0b7" stroke-width="none" opacity="1"></path><path id="SvgjsPath9734" d="M119.9 89.5c2.2 0 4 1.8 4.1 4 0 2.2-1.8 4-4 4.1-2.2 0-4-1.8-4.1-4 0-2.3 1.8-4.1 4-4.1z" fill="#aaaebf" stroke-width="none" opacity="1"></path><path id="SvgjsPath9735" d="M119.9 90.6c1.6 0 2.9 1.3 3 2.9 0 1.6-1.3 2.9-2.9 3-1.6 0-2.9-1.3-3-2.9 0-1.7 1.3-3 2.9-3z" fill="#000000" stroke-width="none" opacity="1"></path><path id="SvgjsPath9736" d="M118.6 90.6c.6 0 1 .4 1 1s-.4 1-1 1-1-.4-1-1 .5-1 1-1zm3.4 4.6c.2 0 .4.2.4.4s-.1.4-.4.4-.4-.2-.4-.4.2-.4.4-.4z" fill="#ffffff" stroke-width="none" opacity="1"></path></g></g></g><g id="svga-group-eyesfront-right"><path id="SvgjsPath9660" d="M120 83.1c-5.9 0-10.6 5.2-10.6 11.5s4.7 11.5 10.6 11.5 10.6-5.2 10.6-11.5-4.8-11.5-10.6-11.5zm7.8 11.3c-1.4 1.3-4.7 3.3-7.1 3.6-2.4.3-6 .2-7.3.2-1.3 0-3.3.4-3.3.4s.1-2.2.9-3.6 3.1-4.1 7.5-4.4c4.4-.3 11.6 1.1 11.6 1.1s-.9 1.4-2.3 2.7z" fill="#f0c7b1" stroke-width="none" opacity="1" stroke="none"></path><path id="SvgjsPath9663" d="M131.1 91.2c-4.9-.6-10.5-2.3-15.3-.5-3.3 1.3-6 4.1-5.8 7.8-.1.2 0 .4.3.4 4.3-.7 8.7.4 12.8-1.2 2.9-1.1 5.5-3.2 7.3-5.8h.8c.4.1.4-.6-.1-.7zm-11.2 6.5c-3.1.5-6.4-.5-9.4.6 0-5 4.8-7.2 9.2-7.4 3.3-.1 6.5.7 9.8 1-2.4 3.1-5.6 5.2-9.6 5.8z" fill="#000000" stroke-width="none" opacity="1" stroke="none"></path></g></g></g><g id="svga-group-facehighlight-single"></g><g id="svga-group-eyebrows-left-move" transform="matrix(1,0,0,1,0,0)"><g id="svga-group-eyebrows-left-rotate" transform="matrix(1,1.7453292519943295e-9,-1.7453292519943295e-9,1,1.4163771311359596e-7,-1.376279215037357e-7)"><g id="svga-group-eyebrows-left"><path id="SvgjsPath9576" d="M68.1 81c.2-.2.4-.5.6-.7.1-.2.2-.4.4-.6.3-.4.6-.7 1-1 .2-.2.6-.3.8-.1.3-.3.7-.5 1.1-.7 1.2-.7 2.4-1.3 3.8-1.2 1.2-.3 2.5-.2 3.6-.2 1.7 0 3.4.2 5 .8 1 .3 3 1.3 4 2.5 1.2.6 2.1 1.6 2.3 3.1.2 1.5-1 2.5-2.3 3-1.7.6-3.2-.1-4.6-1-.8-.5-1.6-.9-2.5-1.4-1.5-.4-3-.6-4.6-.8-.6-.1-1.1-.2-1.7-.3h-.1c-.1.1-.2.2-.4.3-.4.2-.9.4-1.5.5-1.2.5-2.4 1-3.5 1.6-.2.1-.3.1-.5.1-.3.4-.7.7-1.3.5-.4-.1-.6-.4-.7-.8-.2-.1-.4-.4-.5-.7 0-1 1-2.1 1.6-2.9z" fill="#afafaf" stroke-width="none" opacity="1"></path><path id="SvgjsPath9577" d="M84 77.8c2.6 1.4 3.5 5 3.5 7.8 0 .2-.4.3-.4.1-.3-1.4-.5-2.8-1-4.1-.5-1.3-1.3-2.4-2.3-3.5-.1-.2 0-.4.2-.3zm4.1 7.9c.4-.8.8-1.5 1-2.4.1-.9.1-1.7-.1-2.6 0-.2.2-.3.3-.2 1 1.6.7 4.3-.9 5.4-.2.2-.4 0-.3-.2zm-11.8-8.6c.3.1.6.2.8.4 0-.1.1-.1.2-.1 3 .2 5.5 4.2 5.7 6.8 0 .3-.4.3-.5.1-.6-1.4-1.2-2.8-2.1-4-.6-.7-1.2-1.2-1.9-1.7 1 1.1 1.6 2.6 1.8 3.9 0 .2-.3.3-.3.1-.4-1.1-.9-2.1-1.6-3-.7-.8-1.5-1.4-2.3-2.2-.2-.1 0-.3.2-.3zm-3.4.8c2.3-.1 4.4 2.5 4.7 4.5.1.3-.3.5-.5.2-.7-.9-1-2-1.8-2.8-.7-.7-1.7-1.1-2.5-1.6-.2 0-.1-.3.1-.3zm-2.5 2c1.9-.2 3.8 1.1 4.7 2.5.1.2-.1.3-.3.2-.6-.6-1.3-1.2-2.1-1.6-.8-.4-1.6-.5-2.5-.8-.1 0 0-.3.2-.3zm-1.2 2.4c1.1-.1 2 .3 2.8 1.1.1.1 0 .2-.1.2-.8-.6-1.7-.9-2.6-.9-.2-.2-.2-.4-.1-.4z" fill="#bebebe" stroke-width="none" opacity="1"></path><path id="SvgjsPath9578" d="M91 84.6c1-1.4.6-3.9-.6-5.1-.2-.2-.5.1-.4.3.1.1.1.2.2.4-.4-.6-.8-1.1-1.3-1.6-3.4-3.2-8.6-3.5-13-2.8-4.2.7-8.1 2.9-9.3 7.2v.2c-.1 0-.2.1-.2.2-.8 1.3.4 2.8 1.8 2.9 1 .1 2-.4 2.8-.9 1.3-.7 2.6-1.3 4-1.6 3-.5 5.5.5 8.1 1.8 1.6.8 3.3 1.5 5.2 1.1 1.5-.4 2.4-1.1 2.7-2.1zm-7.4-7.3c.7 1.5 1.3 3 1.7 4.6.3 1.1.4 2.3.5 3.4-.6-.2-1.2-.4-1.7-.7.3-2.7-.8-5.6-2.5-7.7.7.1 1.4.2 2 .4zm-8.1 5.1c-.3-1.1-.8-2-1.5-2.9-.4-.5-.9-1.1-1.5-1.6.8-.3 1.6-.6 2.5-.7.9.7 1.7 1.3 2.4 2.1.8 1 1.5 2.1 2 3.2-.3-.1-.5-.1-.8-.2-1 0-2.1 0-3.1.1zm-4-4c.6.6 1.3 1 1.9 1.7.6.7 1.1 1.6 1.5 2.4-.5.1-.9.2-1.4.3-.6-.7-1.2-1.4-1.9-1.9-.6-.4-1.3-.9-2-1.2.6-.5 1.2-.9 1.9-1.3zm-4.4 4.8c.4-1.2 1.1-2.2 1.9-3 .7.4 1.5.7 2.1 1.2.7.5 1.3 1.1 1.8 1.7-.8.3-1.5.7-2.3 1.1-.9.5-3.9 1.9-3.6-.6 0-.1 0-.2-.1-.2l.2-.2zm14-6.3c.8 1.2 1.4 2.4 1.8 3.7.4 1.2.5 2.4.6 3.7-1.2-.6-2.3-1.2-3.6-1.5-.6-2.1-2-4.3-3.8-5.7 1-.1 1.9-.2 2.9-.2h2.1zm8.8 7.2c-.6 1.4-2 1.6-3.3 1.4.1-2.7-1-5.8-2.3-8.1.7.2 1.3.4 1.9.7 1.8 1 4.8 3.6 3.7 6z" fill="#a0a0a0" stroke-width="none" opacity="1"></path></g></g></g><g id="svga-group-eyebrows-right-move" transform="matrix(1,0,0,1,0,0)"><g id="svga-group-eyebrows-right-rotate" transform="matrix(1,1.7453292519943295e-9,-1.7453292519943295e-9,1,1.4163771311359596e-7,-2.1143793560440827e-7)"><g id="svga-group-eyebrows-right"><path id="SvgjsPath9579" d="M131.9 81c-.2-.2-.4-.5-.6-.7-.1-.2-.2-.4-.4-.6-.3-.4-.6-.7-1-1-.2-.2-.6-.3-.8-.1-.4-.3-.7-.5-1.1-.7-1.2-.7-2.4-1.3-3.8-1.2-1.2-.3-2.5-.2-3.6-.2-1.7 0-3.4.2-5 .8-1 .3-3 1.3-4 2.5-1.2.6-2.1 1.6-2.3 3.1-.2 1.5 1 2.5 2.3 3 1.7.6 3.2-.1 4.6-1 .8-.5 1.6-.9 2.5-1.4 1.5-.4 3-.6 4.6-.8.6-.1 1.1-.2 1.7-.3h.1c.1.1.2.2.4.3.4.2.9.4 1.5.5 1.2.5 2.4 1 3.5 1.6.2.1.4.1.5.1.3.4.7.7 1.3.5.4-.1.6-.4.7-.8.2-.1.4-.4.5-.7 0-1-1-2.1-1.6-2.9z" fill="#afafaf" stroke-width="none" opacity="1"></path><path id="SvgjsPath9580" d="M116 77.8c-2.6 1.4-3.5 5-3.5 7.8 0 .2.4.3.4.1.3-1.4.5-2.8 1-4.1.5-1.3 1.3-2.4 2.3-3.5.1-.2 0-.4-.2-.3zm-4.1 7.9c-.4-.8-.8-1.5-1-2.4-.1-.9-.1-1.7.1-2.6 0-.2-.2-.3-.3-.2-1 1.6-.7 4.3.9 5.4.2.2.4 0 .3-.2zm11.8-8.6c-.3.1-.6.2-.8.4 0-.1-.1-.1-.2-.1-3 .2-5.5 4.2-5.7 6.8 0 .3.4.3.5.1.6-1.4 1.2-2.8 2.1-4 .6-.7 1.2-1.2 1.9-1.7-1 1.1-1.6 2.6-1.8 3.9 0 .2.3.3.3.1.4-1.1.9-2.1 1.6-3 .7-.8 1.5-1.4 2.3-2.2.2-.1 0-.3-.2-.3zm3.4.8c-2.3-.1-4.4 2.5-4.7 4.5-.1.3.3.5.5.2.7-.9 1-2 1.8-2.8.7-.7 1.7-1.1 2.5-1.6.2 0 .1-.3-.1-.3zm2.5 2c-1.9-.2-3.8 1.1-4.7 2.5-.1.2.1.3.3.2.6-.6 1.3-1.2 2.1-1.6.8-.4 1.6-.5 2.5-.8.1 0 .1-.3-.2-.3zm1.2 2.4c-1.1-.1-2 .3-2.8 1.1-.1.1 0 .2.1.2.8-.6 1.7-.9 2.6-.9.2-.2.2-.4.1-.4z" fill="#bebebe" stroke-width="none" opacity="1"></path><path id="SvgjsPath9581" d="M111.7 86.7c1.8.4 3.5-.3 5.2-1.1 2.6-1.3 5.1-2.3 8.1-1.8 1.5.2 2.7.8 4 1.6.9.5 1.8 1 2.8.9 1.4-.1 2.6-1.6 1.8-2.9l-.2-.2V83c-1.2-4.3-5.1-6.6-9.3-7.2-4.4-.7-9.5-.4-13 2.8-.5.4-.9 1-1.3 1.6.1-.1.1-.2.2-.4.1-.3-.2-.5-.4-.3-1.2 1.1-1.6 3.6-.6 5.1.3 1 1.2 1.7 2.7 2.1zm4.7-9.4c.7-.2 1.3-.3 2-.3-1.7 2.1-2.8 5-2.5 7.7-.5.2-1.1.5-1.7.7.2-1.2.2-2.3.5-3.4.4-1.7 1-3.2 1.7-4.7zm5 5.2c-.3 0-.5.1-.8.2.6-1.2 1.2-2.2 2-3.2.7-.8 1.6-1.5 2.4-2.1.8.2 1.7.4 2.5.7-.6.4-1.1 1-1.5 1.6-.7.9-1.2 1.8-1.5 2.9-1-.3-2.1-.3-3.1-.1zm9-2.8c-.7.3-1.4.8-2 1.2-.7.6-1.4 1.2-1.9 1.9-.5-.1-.9-.2-1.4-.3.4-.8.9-1.7 1.5-2.4s1.2-1.1 1.9-1.7c.7.4 1.3.8 1.9 1.3zm2.5 3.6c-.1.1-.1.1-.1.2.3 2.5-2.6 1.1-3.6.6-.7-.4-1.5-.8-2.3-1.1.6-.6 1.2-1.2 1.8-1.7.6-.5 1.4-.8 2.1-1.2.8.8 1.5 1.8 1.9 3 .2.1.2.1.2.2zm-11.8-6.4c.9 0 1.9.1 2.9.2-1.8 1.3-3.2 3.6-3.8 5.7-1.3.3-2.4.9-3.6 1.5.1-1.2.2-2.5.6-3.7.4-1.3 1.1-2.5 1.8-3.7h2.1zm-7.2 1.3c.6-.3 1.2-.6 1.9-.7-1.4 2.3-2.5 5.3-2.3 8.1-1.4.2-2.7 0-3.3-1.4-1.2-2.5 1.8-5.1 3.7-6z" fill="#a0a0a0" stroke-width="none" opacity="1"></path></g></g></g><g id="svga-group-beardwrap"><g id="svga-group-beard-single-move" transform="matrix(1,0,0,1,0,0)"><g id="svga-group-beard-single"><path id="SvgjsPath9552" d="M77.4 134.8c.1-.8-.2-1.3-.6-1.7.4-1.3 0-2.7-1.2-3.3-.1-.7-.4-1.3-.9-1.7 0-1.1-.8-2-1.9-2.4-.2-1.7-1.4-3-3-2.6 0-.2-.1-.3-.1-.5.3-.8.4-1.8 0-2.6-.3-.6-.8-1.1-1.4-1.3-.2-.1-.5-.2-.8-.2 0-.3-.1-.5-.2-.8.1-.2.3-.3.4-.6.3-.7.5-1.5.3-2.2-.2-.9-.8-1.5-1.5-1.8.2-.9-.2-1.9-1.2-2 0-.4-.2-.7-.4-1 .1-.2.1-.4.1-.6 0-.5-.1-1-.4-1.3.8-.8.7-2.4-.3-3-.3-.2-.5-.3-.8-.4.9-.8 1.1-2.2.2-2.9 0-.8-.4-1.6-1.5-2.2.3-.6.3-1.3 0-1.9.6-.9.6-2.1-.5-2.8-.2-.2-.4-.4-.5-.6-.1-.2-.3-.4-.5-.5.2-.2.3-.5.3-.8-.1-1.3-.2-1.6-.9-2.5 0 0 0-.1-.1-.1 0-.1-.1-.1-.2-.2-.2-1-.8-1.9-2-1.9-.7 0-1.4.4-1.6 1.1-.2.4-.1.9.1 1.3 0 .1 0 .2-.1.3-.7 0-1.3.3-1.9 1.1-1.3 1.5-.7 2.9.3 4.1-.3.2-.5.4-.7.7-.8 1.7-.7 3.2 0 4.2 0 .1-.1.2-.2.2-.4.2-.7.6-.8 1.1-.5 2.2.4 3.4 1.5 4-.3.3-.5.8-.6 1.4 0 .5.2 1 .5 1.3-1.3.5-1.6 2.3-.7 3.2 0 .1.1.1.2.1.2.3.4.6.7.8.2.1.3.2.5.2-.2.2-.3.4-.3.7-.1.7-.1 1.3 0 1.8-.7 1.5-.4 3.3 1 4.2-.2.3-.4.7-.5 1.1-.9.6-1.2 1.6-1 2.6v.2c0 .3 0 .6.1 1 .3 1.2.9 1.8 1.7 2.2-.1.4 0 .9.3 1.2l.1.1c0 .2 0 .5.1.7-.2.4-.3 1-.2 1.4.3.9 1.1 1.3 1.9 1.3.3 0 .6-.1.8-.3.1 0 .2.1.3.1-.4.9-.3 1.8.5 2.6.1.1.1.2.2.3.7.8 1.8 1.1 2.8.8.2.1.4.2.6.4 0 .1.1.2.1.3 0 .6.1 1.2.5 1.8.8 1.2 2.1 1.4 3.3 1 .4.4.9.7 1.4.8.3.6.9 1.2 1.8 1.3.8.1 1.8-.2 2.4-.9.2.1.4.1.6.1h.1c.5.1 1.1-.1 1.4-.5.3-.4.5-.9.5-1.4v-.1c0-.4-.1-.7-.3-.9v-.1c1.3-.6 2.1-1.4 2.2-2.5z" fill="#afafaf" stroke-width="none" opacity="1"></path><path id="SvgjsPath9553" d="M60.8 123.7c-.3.2-.7.4-1 .3-.3-.1-.4-.7-.3-1 .2-.4-.3-.9-.7-.5-.7.8-.5 2 .3 2.4.7.4 2-.1 2-1.1.1-.1-.1-.2-.3-.1zm3.1-5.6c.8 0 1.1-.8 1.1-1.6 0-1.1-.6-2-1.5-2.5-.2-.1-.4.2-.2.3.4.4.7 1 .8 1.6.1.3.3 1.6-.2 1.7-.2 0-.4.4-.1.5h-.4c-.2.1-.2.3 0 .4.6.4 1.3.7 1.2 1.6-.1.7-.8 1.2-1.4 1.1-.3-.1-.5.4-.2.6 1 .4 2.1-.3 2.3-1.4.1-1.1-.6-2.1-1.4-2.3zm-2.3-11.4c-.2.1-.3.4-.1.5.6.3 1.3.7 1.3 1.4 0 .8-.7 1.4-1.5 1.6-.4.1-.2.6.1.6 1.2.1 2.2-.9 2.2-2.2.1-1.1-.8-2.2-2-1.9zm1.4-4.9c-.3-.9-1.4-1.8-2.5-1.4-.2.1-.2.4 0 .5.7.3 1.4.4 1.7 1.2.3.7 0 1.5-.4 2.1-.2.2 0 .6.3.4.9-.7 1.2-1.7.9-2.8zm-5.4 3.1c-.3-.5-.6-.9-.4-1.5.1-.4-.5-.6-.6-.2-.3.8-.2 1.9.7 2.1.2 0 .4-.2.3-.4zm15 31.7c-.1-.1-.3-.1-.3.1-.1.4-.2.9-.5 1.1-.4.4-.9.3-1.2 0-.3-.3-.8.2-.5.5.5.6 1.3.6 2 .2.7-.4 1-1.3.5-1.9zm-.1-6.5c-.7-.9-2.1-1.5-3.2-.9-.2.1-.2.5.1.5 1.1.1 2.1.1 2.7 1.2.3.5.4 1.1.4 1.7-.1.8-.3 1-1 1.1-.4 0-.4.7 0 .7h1c.1 0 .2-.1.3-.2.6-1.4.5-3-.3-4.1zm-3.9-3.5c-.2.1-.2.3-.1.4.4.2.8.4.6 1.1-.1.4.4.5.5.1.3-.8-.2-1.8-1-1.6z" fill="#bebebe" stroke-width="none" opacity="1"></path><path id="SvgjsPath9554" d="M57.1 89c-.8.5-1.2 1.6-1.1 2.6-.6 0-1.1.3-1.6.7-.6.5-1.5 1.3-1.7 2.1-.1.8.5 1.6.9 2.2.4.4.8.8 1.3.9-.5.4-.5 1.2-.3 1.9-.8.3-1.5 1-1.6 1.9 0 .4 0 .8.2 1.1-.2.1-.4.2-.5.3-.5.6-.4 1.4-.2 2 .3.8 1.1 1.7 2 1.9-.8.4-.8 1.7-.2 2.6-1.2.6-1.6 2.4-1 3.6.3.6 1 1.3 1.7 1.6-.3.4-.3.9-.2 1.4l.3.6c-.9 1.1-.9 2.8-.1 3.8.2.2.5.4.7.6-.3.3-.5.7-.4 1.1v.1s-.1 0-.1.1c-1.1.9-1.3 2.5-.6 3.6.2.4.7.7 1.1.9-.2.5-.2 1.1.1 1.6.3.5 1 .9 1.6.4.1-.1.1-.4 0-.5-.2-.2-.5-.3-.7-.5-.2-.2-.3-.5-.2-.8.5.1 1-.1 1.3-.4.2-.2.1-.6-.2-.7-.8-.2-1.6.1-2.1-.7-.5-.7-.3-1.7.2-2.4.2.2.6.2.9 0 .1-.1.2-.3.1-.4-.2-.3-.7-.7-.3-1.1 1 .3 2 .2 2.5-.8.1-.2 0-.3-.2-.3-1 0-2 .4-2.8-.4-.8-.7-.6-1.9-.2-2.8.1 0 .2 0 .2-.1.2-.1.3-.3.2-.5-.2-.3-.5-.4-.6-.7-.1-.2-.1-.5 0-.8.6.1 1.2-.1 1.7-.8.2-.3-.1-.5-.4-.5-1 .2-2.1-.2-2.6-1-.6-.9-.2-2 .7-2.6.1 0 .2.1.2.1.3 0 .6-.2.5-.5-.1-.4-.5-.7-.7-1.1-.1-.2-.2-.9.2-1 .2-.1.3-.4.2-.6h.1c.3-.1.3-.5.1-.6-.5-.3-1.1-.5-1.6-1-.5-.4-1.2-1.6-.2-1.9.2.1.3.1.6.1.2 0 .4-.3.3-.4-.3-.4-.6-.8-.6-1.3 0-.6.4-1.1 1-1.3h.1c.6.5 1.5.8 2.2.3.2-.2.2-.4 0-.6-.5-.3-1.2-.2-1.6-.7-.3-.4-.2-.9.1-1.3.1-.1.1-.2 0-.3.1-.1.1-.4 0-.5-.7-.4-2.1-1.4-2-2.3.1-.9 1.4-1.8 2.3-2 .2.3.4.6.7.8.2.1.4 0 .4-.2 0-.9-.6-1.8-.1-2.7.5-1.1 1.8-1 2 .2.1.4.6.3.7 0 .4-2-1.5-2.8-2.7-2zm19.7 44.1c.6-1.2.2-3.8-1.8-3.1-.2.1-.2.4 0 .3.9-.2 1.4.7 1.4 1.5 0 .3 0 .7-.2 1-.1.1-.1.2-.2.2s-.1.1-.1.1l-.2.2c-.1.1 0 .2.1.3.2 0 .3 0 .5-.1.7.5.6 1.7-.1 2.4-.2.2-.3.3-.6.4-.1 0-.3 0-.3.1-.1.1-.2.1-.2.2-.1 0-.1-.1-.1-.1-.2-.1-.4.1-.4.3.1.5.4.9.2 1.4-.2.6-.7.9-1.2 1h-.1c-.5.1-.9.6-1.4.8-.7.3-1.4-.1-1.8-.6l-.1-.1c.1-.1.1-.2.1-.4 0-.1-.2-.2-.3-.2-.4 0-1.1.5-1.2-.2 0-.1 0-.1-.1-.2.1-.2.1-.4.1-.6 0-.3-.3-.4-.5-.2-.8.7-1.4.9-2.3.5-.7-.3-1.9-.9-1.8-1.9 0-.1 0-.2-.1-.2.2-.1.4-.3.6-.5.2.3.4.5.7.7.5.3 1.5.4 1.9-.4.1-.2 0-.4-.2-.5-.4-.1-.8.1-1.2-.1-.4-.1-.8-.4-.9-.9-.1-.4-.6-.2-.6.1v.1c-.9.5-1.8 1-2.8.5-1-.6-1.3-1.8-1.4-3 .2-.1.4-.3.5-.6.1-.3 0-.6-.3-.6-.7.1-1.3.6-2 .2-.6-.3-1-1.1-.9-1.8 0-.4-.6-.5-.7-.1-.3 1.1.1 2.3 1 2.8.4.3 1.1.4 1.7.3-.3 1.6.5 3.2 1.8 3.8.6.3 1.4.3 2.2.1-.5 2.2 2.9 3.7 4.5 2.9.2.5.5.8 1 .8.2 0 .4 0 .6-.1 0 .1 0 .1.1.2.5.9 1.4 1.4 2.4 1.2.6-.1 1.4-.5 1.6-1.1.8 0 1.5-.6 1.8-1.4.2-.4.2-1 0-1.4.9 0 1.8-1.3 1.9-2.1.2-.6-.1-1.6-.6-1.9zm-13.6-5.6c-.5.2-1.1.6-1.7.4-.6-.2-.8-.9-.9-1.6 0-.3-.4-.4-.6-.1-1.2 2.3 2.7 4 3.4 1.6.2-.2 0-.4-.2-.3zm2.6-1.7c-.5.4-1.1.8-1.6.3-.3-.3-.8.2-.5.5.6.7 2.4.7 2.5-.6-.1-.2-.3-.3-.4-.2zm4.5 7.8c-.5-.1-1.1 0-1.5-.5-.4-.5-.3-1.2.1-1.8.2-.3-.2-.6-.5-.4-.7.7-.9 1.9-.3 2.7.5.7 1.6 1.2 2.3.4.2-.1.1-.4-.1-.4zm2.9 1c-.6.4-1.2.8-1.8.4-.3-.2-.7.4-.4.6.7.6 2.3.5 2.5-.7.1-.3-.1-.5-.3-.3zm-12.4-15.8c.1-.1.1-.2 0-.2-.1-.1-.1-.2-.2-.3-.1-.2-.2-.5-.2-.8 0-.4.3-.9.7-1.1.2-.1.1-.4 0-.4-1.2-.3-1.7 1.2-1.4 2.2.1.5.4 1.1.8 1.3.4.2.8.1 1-.4.1-.5-.5-.6-.7-.3zm-.7-10.1c.1-.1.1-.3 0-.3-.5-.2-1.1.2-1.2.8-.2.6.1 1.2.6 1.4.4.2.8-.4.4-.6-.7-.5-.2-1 .2-1.3zm-.3-6c-.3-.2-.8-.4-.9-.8-.1-.4.2-.7.6-.8.2-.1.2-.3.1-.4-.6-.6-1.5.2-1.6.8-.2.9.6 1.6 1.3 1.9.6.2 1-.5.5-.7zm.1-9.3c-.2-.7-1.1-.6-1.5-.2-.7.7-.3 1.8 0 2.5.2.4.9 0 .7-.4-.2-.4-.5-1.1-.2-1.5.2-.2.5-.3.8-.2.1.2.3 0 .2-.2zm1.9 2.3c-.3-.7-1.1-1-1.6-.4-.2.2.1.6.3.4.7-.5.8.8.8 1.2 0 .5-.2 1.1-.2 1.6 0 .2.3.3.4.2.7-.8.7-2.2.3-3zm2.2 6.9c-.1-.1-.2 0-.3.1-.1.3-.1.7-.2 1-.2.4-.4.6-.8.8-.3.2-.2.6.2.6.6 0 1.1-.4 1.4-1 .2-.5.3-1.3-.3-1.5zm1.3 10.3c-.3.2-.1.6.2.6.4-.1.8 1.2 1 1.5.2.5.3 1 .4 1.5.1.2.4.2.5 0 .2-1.1-.5-4.5-2.1-3.6zm1.2 8.4c-.2-.2-.4 0-.4.3.1.4-.1 1-.6 1.1-.3.1-.3.6 0 .6.9-.1 1.6-1.3 1-2zm2.6-1.5c-.2-.3-.7.1-.5.4.8 1.2.7 2.5.4 3.9 0 .2.2.4.4.2 1.2-1.3.7-3.3-.3-4.5zm1.7 6c-.1-.2-.3-.3-.5-.4-.2-.2-.4.2-.2.4.2.1.3.2.6.3.1 0 .2-.2.1-.3zm3.7 1.2c-.5-.8-1.5-1.6-2.6-1.3-.3.1-.2.4.1.5.8 0 1.5.6 1.8 1.2.2.3.3.7.2 1.1-.1.3-.2.5-.2.8 0 .1.1.2.3.2 1.1-.2.7-1.9.4-2.5z" fill="#a0a0a0" stroke-width="none" opacity="1"></path><path id="SvgjsPath9555" d="M122.6 134.8c-.1-.8.2-1.3.6-1.7-.4-1.3 0-2.7 1.2-3.3.1-.7.4-1.3.9-1.7 0-1.1.8-2 1.9-2.4.2-1.7 1.4-3 3-2.6 0-.2.1-.3.1-.5-.3-.8-.4-1.8 0-2.6.3-.6.8-1.1 1.4-1.3.2-.1.5-.2.8-.2 0-.3.1-.5.1-.8-.1-.2-.3-.3-.4-.6-.3-.7-.5-1.5-.3-2.2.2-.9.8-1.5 1.5-1.8-.2-.9.2-1.9 1.1-2 0-.4.1-.7.4-1-.1-.2-.1-.4-.1-.6 0-.5.1-1 .4-1.3-.8-.8-.6-2.4.3-3 .3-.2.6-.3.8-.4-.9-.8-1.1-2.2-.2-2.9 0-.8.4-1.6 1.4-2.2-.3-.6-.4-1.3.1-1.9-.6-.9-.6-2.1.5-2.8l.6-.6c.1-.2.3-.4.5-.5-.2-.2-.3-.5-.3-.8.1-1.3.2-1.6.9-2.5 0 0 0-.1.1-.1l.2-.2c.2-1 .8-1.9 2-1.9.7 0 1.4.4 1.6 1.1.2.4.1.9-.1 1.3 0 .1 0 .2.1.3.7 0 1.4.3 1.9 1.1 1.3 1.5.7 2.9-.4 4.1.3.2.5.4.7.7.8 1.7.7 3.2 0 4.2.1.1.1.2.1.2.4.2.7.6.8 1.1.5 2.2-.4 3.4-1.5 4 .3.3.6.8.6 1.4 0 .5-.2 1-.5 1.3 1.3.5 1.6 2.3.7 3.2l-.1.1c-.2.3-.4.6-.7.8-.2.1-.4.2-.5.2.1.2.3.4.3.7.1.7.1 1.3 0 1.8.7 1.5.4 3.3-1 4.2.2.3.4.7.5 1.1.9.6 1.2 1.6 1 2.6 0 .1 0 .1-.1.2 0 .3 0 .6-.1 1-.3 1.2-.9 1.8-1.7 2.2.1.4 0 .9-.3 1.2l-.1.1c0 .2 0 .5-.1.7.2.4.3 1 .2 1.4-.3.9-1.1 1.3-1.9 1.3-.3 0-.6-.1-.8-.3-.1 0-.2.1-.3.1.4.9.3 1.8-.5 2.6-.1.1-.1.2-.2.3-.7.8-1.8 1.1-2.8.8-.2.1-.4.2-.6.4 0 .1-.1.2-.1.3.1.6-.1 1.2-.5 1.8-.9 1.2-2.1 1.4-3.3 1-.4.4-.9.7-1.4.8-.3.6-.9 1.2-1.8 1.3-.9.1-1.8-.2-2.4-.9-.2.1-.4.1-.6.1h-.1c-.5.1-1.1-.1-1.4-.5-.3-.4-.5-.9-.5-1.4v-.1c0-.4.1-.7.3-.9v-.1c-1-.6-1.8-1.4-1.9-2.5z" fill="#afafaf" stroke-width="none" opacity="1"></path><path id="SvgjsPath9556" d="M138.8 123.9c0 1 1.3 1.5 2 1.1.9-.5 1-1.6.3-2.4-.3-.4-.9.1-.6.5.2.3.1.8-.3 1s-.7-.1-1-.3c-.2-.2-.4-.1-.4.1zm-4-3.7c.2 1.1 1.4 1.8 2.3 1.4.3-.1.1-.7-.2-.6-.6.2-1.4-.3-1.4-1.1-.1-.9.7-1.2 1.2-1.6.1-.1.1-.3 0-.4-.1-.1-.3-.1-.4 0 .2-.1.1-.5-.1-.5-.6-.1-.3-1.3-.2-1.7.1-.6.4-1.1.8-1.6.1-.2-.1-.4-.2-.3-.9.5-1.4 1.4-1.4 2.5 0 .7.3 1.6 1.1 1.6-1 .4-1.7 1.4-1.5 2.3zm1.5-11.6c0 1.2 1.1 2.3 2.2 2.2.3 0 .4-.6.1-.6-.7-.1-1.5-.8-1.4-1.6 0-.8.7-1.2 1.3-1.4.2-.1.1-.4-.1-.5-1.2-.3-2.1.8-2.1 1.9zm1.6-4c.2.2.5-.2.3-.4-.4-.6-.6-1.4-.4-2.1.3-.8 1-.9 1.7-1.2.2-.1.2-.4 0-.5-1-.4-2.1.5-2.4 1.4-.4 1.1-.1 2.1.8 2.8zm4.8.7c.9-.2 1-1.3.7-2.1-.1-.3-.7-.1-.6.2.2.6-.1 1-.4 1.5-.1.2.1.4.3.4zm-14.8 33.3c.6.5 1.5.4 2-.2.3-.3-.2-.8-.5-.5-.3.3-.9.4-1.2 0-.3-.3-.4-.8-.5-1.1 0-.2-.2-.2-.3-.1-.5.5-.2 1.4.5 1.9zm-.6-4.5c.1.1.2.2.3.2h1c.4 0 .4-.6 0-.7-.8-.1-.9-.3-1-1.1-.1-.6.1-1.2.4-1.7.6-1 1.7-1.1 2.7-1.2.2 0 .3-.4.1-.5-1.1-.6-2.5 0-3.2.9-.9 1.2-1 2.8-.3 4.1zm3-5.9c.1.4.6.2.5-.1-.2-.6.2-.8.6-1.1.1-.1.1-.4-.1-.4-.7-.2-1.2.8-1 1.6z" fill="#bebebe" stroke-width="none" opacity="1"></path><path id="SvgjsPath9557" d="M140.1 90.6c.1.3.6.4.7 0 .2-1.2 1.5-1.3 2-.2.5.9-.1 1.8-.1 2.7 0 .2.2.3.4.2.3-.2.6-.5.7-.8.9.2 2.2 1.1 2.3 2s-1.3 1.9-2 2.3c-.2.1-.2.4-.1.5v.3c.3.4.5.9.1 1.3-.4.5-1.1.4-1.6.7-.2.2-.2.4 0 .6.6.5 1.6.2 2.2-.3h.1c.6.2 1 .7 1 1.3 0 .5-.4.9-.6 1.3-.1.2.1.4.3.4.2 0 .4-.1.6-.1.9.3.2 1.5-.2 1.9-.5.4-1.1.6-1.6 1-.2.2-.2.5.1.6h.1c-.1.2-.1.4.2.6.4.2.3.8.1 1-.2.4-.6.7-.7 1.1-.1.3.2.6.5.5.1 0 .2-.1.2-.1.9.6 1.2 1.7.7 2.6-.6.9-1.6 1.3-2.6 1-.2-.1-.5.2-.4.5.4.7 1.1.8 1.7.8.1.3 0 .6-.1.8-.1.3-.4.5-.6.7-.1.2 0 .4.2.5.1 0 .2.1.2.1.5.9.6 2.1-.2 2.8-.8.7-1.8.3-2.8.4-.2 0-.3.2-.2.3.5 1 1.5 1.1 2.5.8.4.4-.1.8-.3 1.1-.1.1 0 .3.1.4.3.2.6.2.9 0 .5.7.6 1.7.1 2.4-.6.8-1.4.5-2.1.7-.3.1-.4.4-.2.7.4.4.9.5 1.3.4.1.3-.1.6-.2.8-.2.2-.5.3-.7.5-.1.1-.1.3 0 .5.5.5 1.2.1 1.6-.4.3-.4.3-1 .1-1.6.5-.2.9-.6 1.1-.9.7-1.1.5-2.7-.6-3.6l-.1-.1v-.1c.1-.4-.1-.8-.4-1.1.3-.2.6-.4.7-.6.8-1.1.8-2.8-.1-3.8.2-.2.3-.4.4-.6.1-.5.1-1-.2-1.4.8-.3 1.4-1 1.7-1.6.6-1.2.2-3-1-3.6.6-.8.6-2.1-.2-2.6.9-.2 1.7-1.1 2-1.9.2-.6.3-1.4-.1-2-.1-.2-.3-.3-.5-.3.1-.3.2-.7.2-1.1-.1-.9-.7-1.7-1.6-1.9.2-.6.2-1.4-.3-1.9.5-.1.9-.5 1.3-.9.5-.6 1.1-1.4.9-2.2-.1-.8-1-1.6-1.6-2.1-.5-.4-1-.7-1.6-.7.1-1-.3-2.1-1.1-2.6-1-.4-2.9.4-2.6 2zm-16.9 42.5c-.6-1.2-.2-3.8 1.8-3.1.2.1.2.4 0 .3-.9-.2-1.4.7-1.4 1.5 0 .3 0 .7.2 1 .1.1.1.2.2.2s.1.1.1.1l.2.2c.1.1 0 .2-.1.3-.2 0-.3 0-.5-.1-.7.5-.6 1.7.1 2.4.2.2.3.3.6.4.1 0 .3 0 .3.1.1.1.2.1.2.2.1 0 .1-.1.1-.1.2-.1.4.1.4.3-.1.5-.4.9-.2 1.4.2.6.7.9 1.2 1h.1c.5.1.9.6 1.4.8.7.3 1.4-.1 1.8-.6l.1-.1c-.1-.1-.1-.2-.1-.4 0-.1.2-.2.3-.2.4 0 1.1.5 1.2-.2 0-.1 0-.1.1-.2-.1-.2-.1-.4-.1-.6 0-.3.3-.4.5-.2.8.7 1.4.9 2.3.5.7-.3 1.9-.9 1.8-1.9 0-.1 0-.2.1-.2-.2-.1-.4-.3-.6-.5-.2.3-.4.5-.7.7-.5.3-1.5.4-1.9-.4-.1-.2 0-.4.2-.5.4-.1.8.1 1.2-.1.4-.1.8-.4.9-.9.1-.4.6-.2.6.1v.1c.9.5 1.8 1 2.8.5 1-.6 1.3-1.8 1.4-3-.2-.1-.4-.3-.5-.6-.1-.3 0-.6.3-.6.7.1 1.3.6 2 .2.6-.3.9-1.1.9-1.8 0-.4.6-.5.7-.1.3 1.1-.1 2.3-1 2.8-.4.3-1.1.4-1.7.3.3 1.6-.5 3.2-1.9 3.8-.6.3-1.4.3-2.2.1.5 2.2-2.9 3.7-4.5 2.9-.2.5-.5.8-1 .8-.2 0-.4 0-.6-.1 0 .1 0 .1-.1.2-.5.9-1.4 1.4-2.4 1.2-.6-.1-1.4-.5-1.6-1.1-.8 0-1.5-.6-1.8-1.4-.2-.4-.2-1 0-1.4-.9 0-1.8-1.3-1.9-2.1-.1-.6.2-1.6.7-1.9zm13.3-5.3c.8 2.4 4.6.7 3.4-1.6-.2-.3-.6-.2-.6.1 0 .6-.2 1.4-.9 1.6-.5.2-1.1-.1-1.7-.4-.1-.1-.3.1-.2.3zm-2.6-1.8c.1 1.3 1.8 1.4 2.4.6.3-.3-.2-.8-.5-.5-.5.5-1.1.1-1.6-.3-.1-.1-.3 0-.3.2zm-4.3 8c.7.8 1.9.2 2.3-.4.5-.8.3-2-.3-2.7-.2-.2-.7 0-.5.4.4.6.5 1.3.1 1.8s-.9.4-1.5.5c-.2 0-.3.3-.1.4zm-3.1.8c.3 1.2 1.8 1.3 2.5.7.3-.2-.1-.8-.4-.6-.7.4-1.2 0-1.8-.4-.2-.1-.4.1-.3.3zm12.1-15.7c.2.5.6.6 1 .4.4-.2.7-.8.8-1.3.2-.9-.2-2.5-1.4-2.2-.2.1-.2.3-.1.4.4.2.7.7.7 1.1 0 .3-.1.5-.2.8-.1.1-.1.2-.2.3-.1.1-.1.1 0 .2-.2-.3-.8-.2-.6.3zm1.5-9.2c-.4.2 0 .8.4.6.5-.3.8-.8.6-1.4-.1-.5-.7-1-1.2-.8-.1.1-.2.2 0 .3.4.4.9.9.2 1.3zm.5-6.5c.7-.3 1.5-1 1.3-1.9-.1-.7-1-1.5-1.6-.8-.1.1-.1.4.1.4.4.1.7.4.6.8-.1.4-.5.7-.9.8-.4.2 0 .9.5.7zm-.2-9.7c.3-.1.6-.1.8.2.3.4-.1 1.1-.2 1.5-.2.4.4.8.6.4.4-.8.8-1.8 0-2.5-.4-.4-1.3-.5-1.6.2 0 .1.2.3.4.2zm-2 4.9c.1.2.4 0 .4-.2 0-.5-.2-1.1-.2-1.6 0-.4.1-1.7.8-1.2.2.2.5-.2.3-.4-.6-.6-1.4-.2-1.6.4-.3.9-.3 2.3.3 3zm-2.7 5.5c.3.6.7 1 1.4 1 .3 0 .5-.5.2-.6-.3-.2-.6-.4-.8-.8-.1-.3-.1-.7-.2-1-.1-.1-.2-.2-.3-.1-.6.2-.5 1-.3 1.5zm-3 12.4c.1.2.4.2.5 0 .1-.5.2-1 .4-1.5.1-.3.5-1.6 1-1.5.3.1.6-.4.2-.6-1.7-.9-2.4 2.5-2.1 3.6zm1.8 6.7c.4 0 .3-.5 0-.6-.4-.1-.6-.7-.6-1.1 0-.2-.2-.4-.4-.3-.6.8.1 2 1 2zm-4 1.2c.2.2.5 0 .4-.2-.3-1.4-.4-2.7.4-3.9.2-.3-.3-.7-.5-.4-.9 1.1-1.4 3.1-.3 4.5zm-1.2 1.7.6-.3c.2-.2 0-.6-.2-.4-.2.1-.3.2-.5.4-.1.1 0 .3.1.3zm-3.8.9c.5-.8 1.5-1.6 2.6-1.3.3.1.2.4-.1.5-.8 0-1.5.6-1.8 1.2-.2.3-.3.7-.2 1.1.1.3.2.5.2.8 0 .1-.1.2-.3.2-1.1-.2-.7-1.9-.4-2.5z" fill="#a0a0a0" stroke-width="none" opacity="1"></path></g></g></g><g id="svga-group-mustache-single-move" transform="matrix(1,0,0,1,0,0)"><g id="svga-group-mustache-single"><path id="SvgjsPath9817" d="M100.2 118c-4.4 0-12.1-3.4-19.1-1.7s-6.7 10.6-6.7 14.6c-.1 4-.8 15.3 4.7 18.1s5.2-8.6 5.3-11.5-.1-11.7.1-12.3 7.5.6 15.6.8c8.9.2 15.6-1.7 16.3-1.7s0 11.8.5 20.3c.2 3.5 3.6 4.8 5.7 3.7s3.8-4 4.1-8.7.4-16.3-2.2-19.3-6.2-4.1-11.2-3.9c-5.1.1-9.3 1.6-13.1 1.6z" fill="#afafaf" stroke-width="none" opacity="1"></path><path id="SvgjsPath9818" d="M83.5 128.4c.2-4.5 5.3-3.6 8.4-4.1 2.2-.4 4.3-1.2 6.2-2.5.3-.2 0-.6-.2-.4-2.3 1.1-4.5 2.1-7 2.3-1.8.2-3.9-.1-5.6.6-1.7.8-3 2.4-2.1 4.2 0 .2.3.1.3-.1zm1-.6c.1-.2-.3-.4-.4-.2-.6.9-.4 1.8-.3 2.8.2.9.2 1.9.2 2.9-.1.9-.3 1.8-.3 2.7 0 .2.3.3.4.1.8-1 .8-2.4.8-3.7-.1-1.5-.9-3.2-.4-4.6zm-.8 9.1c-.1 1.5 0 3-.2 4.5s-.7 2.9-.8 4.4c0 .3.5.5.6.2 1.4-2.4 1.4-6.4.9-9.1 0-.4-.5-.3-.5 0zm-8.9-1.5c-.1-2.4.8-4.5.8-6.8 0-1.1-.5-2.2-.5-3.3-.1-1.7.7-2.9 1.7-4.2.2-.2-.2-.7-.4-.4-1.8 1.4-2.3 3.4-2.1 5.6.1 1.4.5 2.5.2 4-.1.9-.5 1.7-.6 2.6-.2 1.2-.1 1.8.4 2.8.1.1.5 0 .5-.3zm7.3 12.3c-.4 1.2-2.1 1.1-3 .6-1-.6-1.5-1.7-1.5-2.8 0-.3-.5-.4-.5-.1-.1.3-.1.5-.1.8-1.1-1.3-.8-3.3-1.2-4.9-.3-1.1-.7-1.8-.6-3.1 0-1.1.4-2.2.5-3.2 0-.2-.3-.4-.4-.2-1.1 2.4-.9 4.3-.2 6.7.5 1.8-.2 4.5 1.9 5.5h.2c.3 1.1 1.1 2 2.2 2.3 1.2.4 3.5.1 3.5-1.5 0-.4-.7-.5-.8-.1zm-.1-6.8c-.5.8-.6 1.7-.7 2.6-.1 1.4.7 3-.7 3.9-.3.2-.1.7.3.6.9-.2 1.2-1 1.2-1.8 0-.7-.2-1.5-.2-2.2 0-1 .3-1.9.6-2.8.1-.4-.3-.6-.5-.3zm-5.2 1.8c.6 1.3 1.6 2.3 2 3.7.1.3.5.2.5-.1 0-1.4-1.1-2.3-1.7-3.5-.9-1.6.7-3.3-.4-4.7-.2-.2-.6-.1-.5.2.4 1.5-.5 2.9.1 4.4zm3.6-.6c-1-1.7.5-3.6.7-5.3.2-1.2.2-2.5-.5-3.6-.1-.2-.5-.1-.5.1 0 .9.3 1.9.2 2.8-.1 1.2-.6 2.1-.9 3.2-.3 1.2-.3 2.1.5 3.1.3.3.7 0 .5-.3zm-2.9-6c.2.1.4-.1.2-.2-1.8-2.3.9-5.1-.7-7.3-.2-.2-.5-.1-.4.2.3 1.7-.2 3.1-.2 4.7-.1 1.1.2 1.9 1.1 2.6zm2-4c.2.2.5 0 .4-.2-.8-1.4.5-2.6.6-3.9.1-1.2-.6-2.2-.3-3.4.1-.2-.2-.4-.4-.2-.9 1.2.1 2.5-.1 3.8-.2 1.4-1.2 2.5-.2 3.9zm3.2 1.1c0-.3-.4-.3-.4 0 0 .8-.1 1.6-.2 2.4-.1.8-.3 1.6-.3 2.3 0 .3.4.4.6.1.6-1.4.4-3.3.3-4.8zm-4-12.6c0-.2-.2-.3-.3-.2-.8.5-1.3 1.7-1.6 2.6-.4 1.1-.5 2.2-.1 3.3.2.5.9.3.8-.2-.3-1.2-.1-2.3.3-3.4.3-.7.9-1.3.9-2.1zm-1.9-.4c2.2-5 7-3.5 11.3-3.2.4 0 .4-.5.1-.6-3.9-1.3-10.2-.9-11.8 3.7-.1.2.3.3.4.1zm11.1-2.7c-1 .3-1.8.5-2.8.6-.7.1-1.3.1-2 .3-1 .3-1.8 1-2.1 2.1-.1.3.4.4.5.1 1-2.9 4.8-1 6.7-2.7.1-.2 0-.5-.3-.4zm-5 5.1c-1.4.7-1.8 2.3-1.7 3.8 0 .3.5.3.5 0 .1-.8.2-1.6.6-2.3.6-1 1.5-.9 2.5-1.1 1.2-.2 2.2-1.5 3.5-1.3.3.1.5-.4.2-.5-.9-.3-1.5 0-2.2.5-.7.4-1 .6-1.9.7-.6 0-1 0-1.5.2zm6.2-5.7c1.2.3 2.5.7 3.8.8-1.8.2-3.5.7-4.7 1.7-.2.2.1.5.3.3 2.9-2.3 6.3-.6 9.5-1.1.3 0 .3-.5 0-.6-1.1-.3-2.4-.5-3.7-.5.1-.1 0-.3-.1-.3-1.5-.6-3.4-.8-5.1-.9-.2.1-.2.5 0 .6zm10.9 5.8c.1-.2-.2-.4-.4-.2-3 4-8.2 1.4-12.3 2.2-.2 0-.2.3 0 .3 4-.3 10.4 2.4 12.7-2.3zm6.4 2.5c-1-.1-2 .2-3 .1-.9 0-1.8-.2-2.7-.2.2-.2.5-.4.7-.6.1-.2-.1-.4-.3-.3-.6.3-1.1.7-1.8.9-.7.2-1.3.2-2 .1-.2 0-.2.3-.1.4.9.3 2.1.2 3-.2 0 .1.1.1.1.2 1.7.6 4.4.8 6.1.1.3-.1.2-.5 0-.5zm5.7-.5c-3.7.9-7.3 0-9.9-2.8-.2-.2-.5.1-.3.3 2.6 3.1 6.4 4.2 10.2 2.7.2 0 .1-.3 0-.2zm4.3-.4c-1.1 0-2.2.2-3.3.1-.1 0-.1.2 0 .2 1.1.2 2.3.3 3.4 0 .1 0 .1-.3-.1-.3zm-11.1-3.1c-1.1-.3-2-1.2-2.9-1.8-.2-.2-.5.1-.3.3 1.2 1.5 2.5 2.4 4.5 2.2 1.7-.1 2.9.2 4.5.4.8.1 1.4 0 2.1-.4.2-.1.1-.5-.2-.4-1.8.4-3.3-.4-5-.4-1 0-1.8.3-2.7.1zm-10.8.2c.8-.3 1.6-.5 2.3-.9.2-.1.1-.4-.1-.4-1.7 0-3.6.8-5 1.6-.3.2-.1.6.2.5.9-.1 1.7-.5 2.6-.8zm5-.8c.8-.3 1.2-1.1 1.2-1.9 0-.3-.4-.3-.5-.1-.2.6-.6 1.1-1 1.7-.2.2.1.4.3.3zm1.7-1.8c5.3-1.4 10.3-1.7 15.7-.9.4.1.7-.6.2-.7-5.4-1.1-10.9-.7-16.1 1.1-.2.2-.1.6.2.5zm14.9 2.1c.1.1.4 0 .3-.2-1-2.5-5.4-1.6-7.5-1.6-.3 0-.3.5 0 .5 2.4.1 5.5-.5 7.2 1.3zm2.7 4.3c.1.2.4.1.4-.1.1-4-6.6-1.5-8.4-1.4-.2 0-.2.3 0 .3 2.9.4 6.2-2.1 8 1.2zm-1.8 0c-1.1 1.6-.4 3.4-.4 5.2 0 1.5-1.1 3.3.2 4.4.2.2.5 0 .4-.2-.3-1.5.3-2.9.2-4.5-.1-1.6-.5-3.1 0-4.7.2-.3-.2-.4-.4-.2zm.9 19.9c.4.2.7-.3.4-.6-1.1-1.4-1.4-2.4-1.4-4.2 0-1.6.2-3.3.9-4.8.1-.2-.2-.4-.3-.2-1.6 2.6-2.4 7.8.4 9.8zm7.9-.7c-1.4 3.8-6.7 5.7-8.5 1-.1-.3-.6-.3-.5.1.3 2.4 2.5 4 4.9 3.7 1.2-.2 2-.8 2.8-1.7.7-.8 1.8-1.8 1.7-3-.1-.3-.3-.3-.4-.1zm.1-9.5c-.3 2.9.2 5.6-1.5 8.2-.7 1.1-1.4 1.9-.8 3.1.1.2.5.1.5-.1-.1-1.9 1.8-3.6 2.3-5.5.4-1.9.5-3.9.1-5.8-.1-.2-.5-.1-.6.1zm-6.4 9.3c.4 1 1.6 1.9 2.5 2.4.2.1.5-.1.3-.3-.4-.6-1-.9-1.4-1.5-.9-1.1-.7-2.1-.6-3.3 0-.9-.1-1.8-.9-2.2-.2-.1-.3.1-.2.3 1.2 1.4-.3 3 .3 4.6zm4.3-10.2c-1 1.4-.3 2.6-.4 4.1-.1 1.4-1.6 2.2-1.2 3.8.1.2.5.2.4-.1-.1-1.5 1.4-2.3 1.6-3.7.1-.5-.1-.9-.2-1.4-.2-1 .2-1.8.2-2.7 0-.1-.3-.1-.4 0zm1.8-.1c-.1.1.2.2.2.1 1.1-1.7 1.2-3.6 1.1-5.7-.2-2-.3-4.2-1.2-6-.2-.3-.6-.1-.5.2.5 3.9 1.8 7.7.4 11.4zm-7.2-.7c.4 1.7 2 2.7 2.1 4.5 0 .2.3.2.3 0-.2-2.3-2.4-3.8-1.8-6.2.3-1.3 1.1-2.9-.3-3.9-.2-.2-.5.1-.3.3 1 1.9-.4 3.5 0 5.3zm3.3-7.5c-.1-.2-.4-.1-.4.2.1.8.5 1.4.7 2.2.3 1.1.1 2.1-.2 3.2-.3 1.1-.5 2.1.1 3.2.1.3.6.1.5-.2-.7-1.7.6-3.3.6-5-.1-1.3-.7-2.7-1.3-3.6zm-3.5-4.8c1.5.1 3.3 0 4.5 1.1.9.8 1.5 2.8 1.5 4 0 1.4-1 2.9.3 4 .1.1.3 0 .3-.1-.1-1.3.3-2.6.3-3.9 0-1.1-.5-2.3-1-3.3-1.2-2.3-3.6-2.5-5.9-2.3-.3-.1-.3.5 0 .5zm.1-2.7c.4-.1.7-.2 1.1-.2.9-.2 1.8.3 2.5.7 1.5.9 2.8 2.2 2.6 4.1 0 .3.5.4.5.1.3-2-1-3.6-2.6-4.8-1.1-.8-3.6-1.9-4.4-.2 0 0 .1.3.3.3z" fill="#a0a0a0" stroke-width="none" opacity="1"></path></g></g><g id="svga-group-nose-single-move" transform="matrix(1,0,0,1,0,0)"><g id="svga-group-nose-single"><path id="SvgjsPath9781" d="M107.6 109.82c1.26.73 3.11 2.76 1.66 5.68-1.46 2.92-4.61 2.05-4.61 2.05s-1.02 2.88-2.72 3.63-3.98.63-5.04-.91-1.78-2.5-1.78-2.5-3.39-.11-4.88-1.45c-1.5-1.34-1.22-3.51-.83-4.3s1.14-1.46 2.33-1.89c1.18-.43 3.19-1.69 3.63-2.21.43-.51 4.09-2.73 8.16-.12 1.64 1.08 2.39 1.04 4.08 2.02z" fill="#f0c7b1" stroke-width="none" opacity="1" transform="translate(0 1)" stroke="none"></path><path id="SvgjsPath9782" d="M95.61 107.76c1.87-1.78 1.73-4.89 1.31-7.36-.38-2.21-1.03-4.45-.71-6.72.26-1.84 1.12-3.49 1.21-5.38.01-.21-.3-.26-.33-.05-.26 1.63-.88 3.1-1.24 4.7-.32 1.44-.29 2.89-.07 4.34.54 3.59 1.68 7.03-.35 10.31-.08.13.09.25.18.16z" fill="#c27b55" stroke-width="none" opacity="1" transform="translate(0 1)" stroke="none"></path><path id="SvgjsPath9783" d="M107.35 109.55c-.14-.03-.23.17-.1.27 1.33.99 2.54 2.45 2.16 4.42-.29 1.49-1.26 2.32-2.4 2.79.4-.33.81-.64 1.13-1.06.34-.42.14-1.3-.45-1.23-.68.07-1.24.41-1.78.84.31-.8.6-1.57.91-2.24.06-.13-.08-.26-.18-.16-2.26 2.2-2.28 7.02-5.6 7.95-4.03 1.12-6.08-3.8-6.88-7.3-.08-.34-.5-.19-.45.14.07.47.16.95.28 1.43-.11-.07-.22-.14-.34-.2-.74-.39-1.56-.43-2.28.05-.44.29-.41 1.19.15 1.31.36.07.74.18 1.08.35-.6-.04-1.2-.12-1.7-.45-1.1-.73-1.73-2.31-1.36-3.71.35-1.32 1.28-1.86 2.27-2.45.13-.08.07-.31-.08-.31-2.1-.01-3.37 2.86-2.78 4.92.85 2.99 3.71 2.74 5.92 3.32.05.01.09 0 .13-.01 1.06 2.08 2.71 3.69 5.01 3.78 2.23.09 3.62-1.53 4.66-3.55.06.03.12.05.19.04.49-.04.9-.32 1.27-.65 4.16.68 5.48-7.4 1.22-8.29z" fill="#c27b55" stroke-width="none" opacity="1" transform="translate(0 1)" stroke="none"></path><path id="SvgjsPath9784" d="M101.66 88.39c-.31-.35-.82.01-.72.47.28 1.34.83 2.48.87 3.89.04 1.34-.19 2.66-.38 3.97-.27 1.89-.43 4.14.57 5.8.19.31.6.19.63-.19.24-4.29 2.26-10.35-.97-13.94z" fill="#f8d5c3" stroke-width="none" opacity="1" transform="translate(0 1)" stroke="none"></path><path id="SvgjsPath9785" d="M104.63 111.57c-.24-.84-1.29-1.06-1.7-.25-.55 1.07-.43 2.41-.88 3.55-.44 1.09-1.22 1.69-2.05 2.37-.36.29-.28.81.12 1 2.9 1.37 5.23-4.16 4.51-6.67z" fill="#f8d5c3" stroke-width="none" opacity="1" transform="translate(0 1)" stroke="none"></path></g></g><g id="svga-group-hair-front"><path id="SvgjsPath9829" d="M84.9 37.3s1 3.5 4.1 5.4c3.1 1.9 8.7 2.5 8.7 2.5s6.6 1.3 8.9.8c2.3-.5 5.9-2.2 5.9-2.2s1.4-.2 2.4-1.8.3-4.4.3-4.4-1.6-3-6.7-3.2c0 0-4.8-1-7.2-.7-2.4.2-3.3 1-3.3 1s-3.9-.4-7.2 1.1c.1-.2-3.6 0-5.9 1.5zm52.9 20.9s3.6 2.5 3.7 7.5c0 0 1.7.8 1.6 6 0 0 1.4 2.5 1 6.3 0 0 .7 1.7.1 4-.2.7.7 3.6.2 4.5-3.4 5.5-5.6 4.5-5.6 4.5s-1.3-.7-.4-2.9c0 0-2.7.4-1.2-5.4 0 0-1.8-.3-1.2-3.5 0 0-1.7-1.8-.4-5.4 0 0-1.4-2-.1-4.3-.1 0 2-7.3 2.3-11.3zm-75.6 0s-3.6 2.5-3.7 7.5c0 0-1.7.8-1.6 6 0 0-1.4 2.5-1 6.3 0 0-.7 1.7-.1 4 .2.7-.7 3.6-.2 4.5C59 92 61.3 91 61.3 91s1.3-.7.4-2.9c0 0 2.7.4 1.2-5.4 0 0 1.8-.3 1.2-3.5 0 0 1.7-1.8.4-5.4 0 0 1.4-2 .1-4.3 0 0-2.1-7.3-2.4-11.3z" fill="#afafaf" stroke-width="none" opacity="1" stroke="none"></path><path id="SvgjsPath9830" d="M136.2 70.3c.1-.9.1-1.9.2-2.8-.3.8-.6 1.6-1 2.2-.1.1-.2 0-.2-.1.4-2 1.1-3.8 1.4-5.8.3-2 .4-4 .7-6 0-.2.2-.2.3-.2h.1c2.6 1.1 4.2 5 4.3 8.4.1-.2.4-.3.5-.1.8 1.4 1 3.3.9 5.2.8 1.9 1.1 4.1.9 6.1 0 0 .1 0 .1.1.3 1.4.4 3.2.1 5 2.3 3.2-1.8 8.4-4.6 9.3-.3.1-.4-.3-.3-.5.9-1.2 2.3-1.9 3.2-3.1 1.1-1.4 1.3-2.8 1.3-4.3-.6 2.3-1.8 4.5-3.4 5.6-.1.1-.2-.1-.2-.2 1-1.9 2.2-3.3 2.9-5.4.5-1.6.6-3.3.7-5-.1.5-.2 1-.4 1.4-.1.2-.4.2-.4-.1.2-2.6.2-4.9-.1-7.4-.2.9-.5 1.8-.8 2.5-.1.3-.5.1-.4-.2.3-1.5.6-3.2.6-4.7 0-1.3-.4-2.6-.4-3.9 0 1.1-.1 2.1-.4 2.9-.1.2-.4.1-.4-.1-.1-2.1 0-4.1-.7-6.1-.6-1.8-1.7-2.9-2.6-4.3 0 2.6-.4 5.4-1.2 7.9.1 0 .3 0 .3.2.6 2.2-.1 5.1-1.2 6.9-.1.2-.5.1-.4-.2 0-1 .4-2.1.6-3.2zm1.9 3.2c.4-1.8.4-3.6.6-5.4 0-.2.4-.2.4 0 .4 2.2.1 4.8-.7 7.2.1 0 .2.1.2.2.2 2.5-.4 5.1-1.3 7.3-.1.2-.3.1-.3-.1.6-2.2.8-4.3 1-6.5-.5 1.2-1.1 2.3-1.8 3.2-.2.3-.6-.1-.4-.3 1-1.9 1.8-3.6 2.3-5.6zm3.1 7c.1-.3.5-.3.5.1-.2 2.8-1.5 5.4-3.1 7.6-.1.2-.5-.1-.4-.3 1.5-2.4 2.2-4.8 3-7.4zm-.6 5.6c.1-.2.4-.2.4.1-.1 1.8-.8 3.8-2.1 5-.2.2-.5 0-.4-.3.7-1.6 1.4-3.1 2.1-4.8zM63.8 70.3c-.2-.9-.2-1.9-.2-2.8.3.8.6 1.6 1 2.2.1.1.2 0 .2-.1-.4-2-1.1-3.8-1.4-5.8-.3-2-.4-4-.7-6 0-.2-.2-.2-.3-.2-2.5 1.1-4.2 5-4.3 8.4 0-.2-.4-.3-.5-.1-.8 1.4-1 3.3-.9 5.2-.8 1.9-1.1 4.1-.9 6.1 0 0-.1 0-.1.1-.3 1.4-.3 3.2 0 5-2.3 3.2 1.8 8.4 4.6 9.3.3.1.4-.3.3-.5-.8-1.2-2.3-1.9-3.2-3.1-1.1-1.4-1.3-2.8-1.3-4.3.6 2.3 1.8 4.5 3.4 5.6.1.1.2-.1.2-.2-1-1.9-2.2-3.3-2.8-5.4-.5-1.6-.6-3.3-.7-5 .1.5.2 1 .4 1.4.1.2.4.2.4-.1-.2-2.6-.2-4.9.1-7.4.2.9.5 1.8.8 2.5.1.3.5.1.4-.2-.3-1.5-.6-3.2-.6-4.7 0-1.3.3-2.6.4-3.9 0 1.1.1 2.1.4 2.9.1.2.4.1.4-.1.1-2.1 0-4.1.7-6.1.6-1.8 1.7-2.9 2.6-4.3 0 2.6.4 5.4 1.2 7.9-.1 0-.3 0-.3.2-.6 2.2.1 5.1 1.2 6.9.1.2.5.1.4-.2-.4-1-.7-2.1-.9-3.2zm-1.9 3.2c-.4-1.8-.4-3.6-.6-5.4 0-.2-.4-.2-.4 0-.4 2.2-.1 4.8.7 7.2-.1 0-.2.1-.2.2-.2 2.5.4 5.1 1.3 7.3.1.2.3.1.3-.1-.6-2.2-.8-4.3-1-6.5.5 1.2 1.1 2.3 1.8 3.2.2.3.6-.1.4-.3-1-1.9-1.8-3.6-2.3-5.6zm-3.1 7c-.1-.3-.5-.3-.5.1.2 2.8 1.5 5.4 3.1 7.6.2.2.5-.1.3-.3-1.4-2.4-2.1-4.8-2.9-7.4zm.7 5.6c-.1-.2-.4-.2-.4.1.1 1.8.8 3.8 2.1 5 .2.2.5 0 .4-.3-.8-1.6-1.6-3.1-2.1-4.8zm52.3-42.5c-2.2.7-4.2 1.6-6.5 1.8-2.3.2-4.5-.1-6.8-.5-.4-.1-.5.4-.2.6 4.1 1.7 10.2 1.5 13.8-1.4.3-.2 0-.6-.3-.5zm3.7-6.2c-.4-1.2-1.9-2.1-2.9-2.6-1.2-.6-2.5-.8-3.8-.6-.1 0-.1.1-.1.2-3.2-1.7-7.6-1.7-10.6-.3-.1 0-.1.1-.1.1-2.7-.5-5.7-.1-7.8 1.2-1.8-.1-3.7.3-5.1 1.7-.1.1-.1.2-.1.4-.2 0-.6.2-.4.5 1.5 4.6 7.3 8.2 12.2 7.7.4 0 .4-.5.1-.6-2.2-.9-4.4-1.2-6.5-2.3-2.2-1.2-3.7-2.9-5-5h.2c3.9-2.4 7.2-.6 10.9 1.2.2.1.5-.2.3-.4-1.3-1.4-3.2-2.4-5.1-2.9 1.5-.4 3-.7 4.7-.7 2.1.1 3.9.9 5.8 1.6.3.1.5-.3.3-.5-1-.8-2.3-1.3-3.6-1.7 2.3-.5 4.6-.6 6.8 0 2.4.6 3.9 2 5.9 3.2.3.2.6-.2.4-.4-.8-1.2-1.8-2-3-2.7 1.3 0 2.6.5 3.6 1.2.9.6 1.5 1.5 2.4 2.1.1 1.1.5 2 .1 3.1-.3 1.1-1.2 2-2.2 2.7-.3.2-.1.6.2.5 2.3-.9 4.3-4.5 2.4-6.7z" fill="#a0a0a0" stroke-width="none" opacity="1" stroke="none"></path><path id="SvgjsPath9831" d="M103.8 34.6c-.2 0-.4.3-.1.4 3.7.8 5.9 3.1 8.1 6 .2.2.5 0 .4-.2-1.1-3.5-4.9-5.7-8.4-6.2zm5.5 6.1c-.7-1.5-2.4-2.6-3.8-3.3-.2-.1-.5.2-.2.4.7.4 1.4.9 2 1.5.6.5 1 1.2 1.6 1.7.2.1.5-.1.4-.3zm-11.5-4.2c-.2-.1-.4.3-.2.4 1.4.8 2.8 1.7 3.9 2.8 1.2 1.2 2 2.5 2.9 3.8.2.3.7.1.6-.2-1.1-3.1-4.2-5.7-7.2-6.8zm42.6 29.3c-.1-.2-.4-.1-.3.1.4 2.9.1 5.8-.4 8.6-.1.3.4.4.5.1 1-2.9.9-5.9.2-8.8zm1.4 9.3c-.4 2-1 3.9-1.4 5.9 0 .2.3.4.4.2.9-1.8 1.2-4 1.5-6 0-.3-.4-.3-.5-.1zm.3 3.7c-.2 1.2-.6 2.1-1.1 3.2-.1.2.2.4.3.3.8-.9 1.2-2.2 1.3-3.4.1-.3-.4-.4-.5-.1zm-77.6-2.2c-1-1.7-2-3.1-2.2-5.1 0-.3-.5-.4-.6 0-.1 2 .7 4.3 2.4 5.4.2.2.5-.1.4-.3zm-2.7-11.3c-.1-.3-.5-.2-.5.1.3 1.6.6 3.2 1.2 4.8.1.2.4.2.4-.1-.2-1.6-.7-3.2-1.1-4.8zm-1.3 13.5c-.1-.3-.6-.2-.5.1.3 1.4.4 2.9 1 4.2.1.2.5.1.5-.1 0-1.4-.6-2.8-1-4.2zm78.7-17.6c-.1-.3-.4-.2-.5 0-.3 1-.3 2.1-.4 3.2-.2 1.1-.4 2.1-.6 3.2 0 .3.4.6.5.2.8-1.9 1.4-4.6 1-6.6z" fill="#bebebe" stroke-width="none" opacity="1" stroke="none"></path></g><g id="svga-group-glasses-single-move" transform="matrix(1,0,0,1,0,0)"><g id="svga-group-glasses-single"><path id="SvgjsPath11548" d="M64.27 89.58c-.36.71-.66 1.62-.71 3.2-.05 1.57.12 3.36.62 5.16s.2 3.07 4.87 5.2c4.67 2.13 10.92 3.86 14.93 4.67s6.36-1.85 7.9-3.82c1.54-1.97 4.13-6.54 4.44-10.09.3-3.55-2.34-4.01-4.92-4.67-2.59-.66-9.8-2.03-15.38-1.83s-9.19.46-10.2.81c-1.04.35-1.55 1.37-1.55 1.37z" fill="url(#SvgjsLinearGradient11549)" opacity="1"></path><path id="SvgjsPath11555" d="M85.45 108.08c-.47 0-.97-.05-1.5-.16-3.9-.79-10.16-2.49-14.95-4.68-4.14-1.89-4.44-3.16-4.78-4.63-.05-.21-.1-.42-.16-.65-.46-1.66-.68-3.46-.62-5.19.06-1.71.42-2.63.72-3.25.02-.04.54-1.06 1.59-1.43.97-.34 4.23-.6 10.24-.82 5.88-.21 13.29 1.29 15.42 1.83l.41.1c2.41.6 4.9 1.23 4.61 4.7-.3 3.45-2.79 8.02-4.46 10.16-1.66 2.12-3.6 4.02-6.52 4.02zM64.38 89.63c-.3.59-.64 1.49-.7 3.15-.06 1.71.16 3.48.61 5.12.06.23.11.45.16.66.34 1.47.6 2.62 4.64 4.46 4.78 2.18 11.01 3.87 14.9 4.66 3.66.74 5.9-1.38 7.78-3.77 1.66-2.12 4.12-6.63 4.41-10.03.28-3.26-2-3.83-4.42-4.43l-.41-.1c-2.12-.54-9.49-2.04-15.35-1.82-5.91.21-9.23.48-10.17.81-.95.32-1.44 1.28-1.45 1.29z" fill="#ffffff" stroke-width="none" opacity="1"></path><path id="SvgjsPath11556" d="M135.73 89.58c.36.71.66 1.62.71 3.2.05 1.57-.12 3.36-.62 5.16-.5 1.8-.2 3.07-4.87 5.2-4.67 2.13-10.92 3.86-14.93 4.67s-6.36-1.85-7.9-3.82c-1.54-1.97-4.13-6.54-4.44-10.09-.3-3.55 2.34-4.01 4.92-4.67 2.59-.66 9.8-2.03 15.38-1.83 5.58.2 9.19.46 10.2.81 1.04.35 1.55 1.37 1.55 1.37z" fill="url(#SvgjsLinearGradient11557)" opacity="1"></path><path id="SvgjsPath11563" d="M108.03 104.06c-1.67-2.14-4.17-6.71-4.46-10.16-.3-3.47 2.2-4.09 4.61-4.7l.41-.1c2.13-.54 9.54-2.04 15.42-1.83 6.01.22 9.27.48 10.24.82 1.05.37 1.57 1.39 1.59 1.43.31.62.67 1.54.72 3.25.06 1.74-.16 3.53-.62 5.19-.06.22-.11.44-.16.65-.34 1.47-.63 2.74-4.78 4.63-4.79 2.19-11.05 3.89-14.95 4.68-.53.11-1.03.16-1.5.16-2.92 0-4.86-1.9-6.52-4.02zm27.59-14.43c-.01-.01-.5-.97-1.45-1.31-.93-.33-4.26-.59-10.17-.81-5.86-.21-13.23 1.28-15.35 1.82l-.41.1c-2.42.6-4.7 1.18-4.42 4.43.29 3.4 2.75 7.91 4.41 10.03 1.88 2.4 4.11 4.51 7.78 3.77 3.89-.79 10.12-2.48 14.9-4.66 4.03-1.84 4.3-3 4.64-4.46.05-.21.1-.43.16-.66.46-1.64.67-3.41.61-5.12-.06-1.64-.4-2.53-.7-3.13z" fill="#ffffff" stroke-width="none" opacity="1"></path><path id="SvgjsPath11564" d="M138.84 87.77c-.91-1.32-15.24-1.69-19.7-1.32-7.84.65-14.98 2.98-16.3 3.39-1.32.41-2.23.41-2.23.41h-1.2s-.91 0-2.23-.41c-1.32-.41-8.46-2.74-16.3-3.39-4.46-.37-18.79 0-19.7 1.32s-1.57 5.05-1.24 6.54c.33 1.49 4.25 3.63 4.25 3.63s-.49-2.93-.4-5c.08-2.07.62-3.6 1.7-4.26s5.46-1.08 12.74-.91 13.9 1.74 15.72 2.57c1.82.83 2.23 2.65 1.32 6.37-.91 3.72-3.39 7.28-3.39 7.28s1.66-.17 2.15-.58c.5-.41.66-.66 2.65-4.72 1.99-4.06 2.73-3.89 2.73-3.89h1.2s.74-.17 2.73 3.89c1.99 4.06 2.15 4.3 2.65 4.72.5.41 2.15.58 2.15.58s-2.48-3.56-3.39-7.28c-.91-3.72-.5-5.54 1.32-6.37 1.82-.83 8.44-2.4 15.72-2.57s11.67.25 12.74.91 1.61 2.19 1.7 4.26c.08 2.07-.4 5-.4 5s3.92-2.14 4.25-3.63c.33-1.5-.33-5.22-1.24-6.54z" fill="#26120b" stroke-width="none" opacity="1"></path><path id="SvgjsPath11565" d="M138.83 87.77c-.34-.33-.84-.42-1.29-.54-.46-.1-.93-.18-1.4-.25-.94-.13-1.89-.22-2.84-.3-1.9-.15-3.8-.23-5.7-.29-3.8-.08-7.62-.14-11.39.42-3.77.52-7.49 1.36-11.14 2.42l-2.73.83c-.46.12-.94.21-1.42.25-.49.04-.96.01-1.43.02-.97-.01-1.91-.26-2.82-.56-.91-.28-1.82-.55-2.74-.8-3.66-1-7.39-1.8-11.17-2.25-1.89-.24-3.78-.33-5.68-.34-1.9-.02-3.8.01-5.7.08-1.9.07-3.8.17-5.69.35-.95.09-1.89.2-2.82.38-.46.09-.93.2-1.35.38-.22.09-.34.26-.46.48-.11.21-.21.42-.29.64-.34.88-.56 1.81-.71 2.75-.13.93-.25 1.9-.08 2.82.11.45.43.82.76 1.15.33.33.7.64 1.08.92.76.57 1.56 1.08 2.39 1.54l-.06.05c-.17-1.11-.3-2.23-.37-3.35s-.06-2.25.17-3.36c.22-1.07.71-2.26 1.8-2.74 1.07-.38 2.2-.48 3.32-.6 2.24-.2 4.48-.23 6.73-.23 2.24.01 4.49.06 6.73.28 2.24.21 4.46.53 6.66.97 1.1.23 2.2.48 3.28.79.54.17 1.08.33 1.6.57.52.24.99.62 1.29 1.12.59 1.02.54 2.24.42 3.34-.15 1.12-.41 2.22-.76 3.29-.73 2.14-1.78 4.15-3.02 6.02l-.1-.18c1-.15 2.16-.22 2.64-1.19.53-.88.98-1.83 1.44-2.76.46-.93.91-1.88 1.42-2.8.25-.46.53-.91.83-1.34.15-.22.32-.43.49-.62.21-.18.33-.42.74-.47h-.02 1.2-.02c.42.05.53.29.74.47.18.2.35.41.5.62.3.43.58.88.83 1.34.52.91.96 1.86 1.42 2.8.47.93.91 1.88 1.44 2.76.48.97 1.64 1.04 2.63 1.19l-.11.19c-1.25-1.88-2.3-3.89-3.03-6.02-.36-1.07-.61-2.17-.76-3.29-.13-1.11-.18-2.32.41-3.36.31-.5.78-.89 1.31-1.13.52-.24 1.06-.4 1.6-.57 1.08-.32 2.18-.57 3.28-.8 2.2-.44 4.43-.76 6.67-.96 2.24-.22 4.49-.26 6.73-.27 2.24 0 4.49.04 6.73.24 1.11.12 2.24.22 3.32.6 1.1.48 1.58 1.67 1.81 2.74.43 2.23.09 4.5-.22 6.71l-.06-.04c.9-.51 1.78-1.06 2.6-1.69.41-.32.8-.66 1.14-1.04.36-.38.56-.87.57-1.39.06-1.03-.07-2.07-.28-3.08-.26-1-.52-2.03-1.06-2.91zm.02-.01c.56.89.82 1.91 1.04 2.92.21 1.02.34 2.05.29 3.1 0 .52-.22 1.04-.58 1.42-.34.39-.74.73-1.15 1.06-.82.64-1.7 1.2-2.6 1.71l-.07.03.01-.08c.3-2.21.62-4.47.19-6.67-.22-1.06-.71-2.22-1.75-2.66-1.04-.37-2.18-.47-3.29-.58-2.23-.19-4.47-.21-6.71-.2-2.24.02-4.48.08-6.71.31-2.23.22-4.45.54-6.64.99-1.09.23-2.18.48-3.26.8-1.05.33-2.2.64-2.76 1.59-.55.94-.51 2.11-.38 3.2.15 1.1.4 2.19.75 3.25.72 2.11 1.77 4.11 3 5.96l.14.22-.25-.03c-.53-.06-1.04-.14-1.56-.3-.53-.12-1-.55-1.25-1-.55-.91-.99-1.85-1.46-2.78-.47-.94-.91-1.88-1.41-2.79-.25-.45-.52-.9-.82-1.32-.15-.21-.31-.41-.48-.6-.15-.17-.41-.38-.52-.4h-1.26c-.11.02-.37.23-.52.4-.17.19-.33.39-.48.6-.3.42-.57.86-.82 1.32-.51.9-.95 1.85-1.42 2.78-.47.93-.91 1.88-1.46 2.78-.25.45-.72.88-1.25 1-.51.15-1.03.24-1.56.3l-.24.03.14-.2c1.23-1.85 2.28-3.85 3.01-5.96.35-1.06.61-2.15.76-3.25.13-1.09.17-2.26-.38-3.22-.57-.97-1.73-1.29-2.78-1.61-1.07-.31-2.16-.57-3.26-.8-2.19-.45-4.41-.77-6.64-.99-2.23-.23-4.47-.28-6.71-.3-2.24-.01-4.48.02-6.72.21-1.11.11-2.24.21-3.29.58-1.04.44-1.53 1.6-1.75 2.66-.44 2.2-.11 4.47.21 6.67l.01.09-.08-.04c-.83-.46-1.64-.98-2.41-1.54-.38-.29-.75-.59-1.09-.93-.33-.34-.67-.72-.79-1.2-.17-.96-.06-1.92.07-2.86.15-.94.36-1.88.71-2.77.09-.22.19-.44.3-.66.07-.1.11-.21.2-.31.09-.11.2-.16.31-.22.45-.2.92-.31 1.38-.4.94-.18 1.89-.29 2.83-.39 1.9-.19 3.8-.29 5.7-.37 1.9-.07 3.81-.11 5.71-.09 1.9 0 3.81.08 5.71.32 3.79.44 7.53 1.21 11.2 2.24.92.26 1.83.53 2.74.81.9.3 1.82.54 2.76.56.47-.01.96.02 1.42-.01.47-.04.93-.13 1.39-.24l2.73-.81c3.66-1.05 7.39-1.87 11.17-2.38 3.78-.55 7.6-.47 11.4-.38 1.9.06 3.8.15 5.7.31.95.08 1.9.17 2.84.31.47.07.94.15 1.41.25.47.13.98.21 1.33.56z" fill="#070201" stroke-width="none" opacity="1"></path></g></g></g></g></g><rect id="svga-credit-rect" width="200" height="15" x="0" y="185" fill="#ecf0f1" opacity="0.5" style="display: none;"></rect><text id="svga-credit-text" font-family="Avenir Next, Roboto, Helvetica, Arial, sans-serif" font-size="10px" text-anchor="start" font-weight="400" size="10px" anchor="start" weight="400" fill="#333333" x="33.40447998046875" y="182.60824704170227" style="display: none;"><tspan id="SvgjsTspan9551" dy="13" x="33.40447998046875">Created on AvatarMaker.com</tspan></text></g><defs id="SvgjsDefs9498"><linearGradient id="SvgjsLinearGradient11139" x1="79.2145" y1="82.2703" x2="79.2145" y2="111.8043" gradientUnits="userSpaceOnUse" class="svga-on-canvas-glasses-gradient-single-0-null"><stop id="SvgjsStop11140" stop-opacity="1" stop-color="#ff73b2" offset="0.004166667" ></stop><stop id="SvgjsStop11141" stop-opacity="0.8085" stop-color="#ff75ae" offset="0.1949" ></stop><stop id="SvgjsStop11142" stop-opacity="0.5986" stop-color="#ff79a0" offset="0.4039" ></stop><stop id="SvgjsStop11143" stop-opacity="0.3799" stop-color="#ff818a" offset="0.6217" ></stop><stop id="SvgjsStop11144" stop-opacity="0.1566" stop-color="#ff8b6c" offset="0.844" ></stop><stop id="SvgjsStop11145" stop-opacity="0" stop-color="#ff9452" offset="1" ></stop></linearGradient><linearGradient id="SvgjsLinearGradient11147" x1="-20.7855" y1="82.2703" x2="-20.7855" y2="111.8043" gradientTransform="matrix(-1 0 0 1 100 0)" gradientUnits="userSpaceOnUse" class="svga-on-canvas-glasses-gradient-single-1-null"><stop id="SvgjsStop11148" stop-opacity="1" stop-color="#ff73b2" offset="0.004166667" ></stop><stop id="SvgjsStop11149" stop-opacity="0.8085" stop-color="#ff75ae" offset="0.1949" ></stop><stop id="SvgjsStop11150" stop-opacity="0.5986" stop-color="#ff79a0" offset="0.4039" ></stop><stop id="SvgjsStop11151" stop-opacity="0.3799" stop-color="#ff818a" offset="0.6217" ></stop><stop id="SvgjsStop11152" stop-opacity="0.1566" stop-color="#ff8b6c" offset="0.844" ></stop><stop id="SvgjsStop11153" stop-opacity="0" stop-color="#ff9452" offset="1" ></stop></linearGradient><linearGradient id="SvgjsLinearGradient11228" x1="79.9394" y1="87.3745" x2="79.9394" y2="107.9537" gradientUnits="userSpaceOnUse" class="svga-on-canvas-glasses-gradient-single-0-null"><stop id="SvgjsStop11229" stop-opacity="1" stop-color="#ffba38" offset="0.004166667" ></stop><stop id="SvgjsStop11230" stop-opacity="0.8314" stop-color="#f5b232" offset="0.1721" ></stop><stop id="SvgjsStop11231" stop-opacity="0.541" stop-color="#d99d24" offset="0.4612" ></stop><stop id="SvgjsStop11232" stop-opacity="0.1664" stop-color="#ac7b0c" offset="0.8343" ></stop><stop id="SvgjsStop11233" stop-opacity="0" stop-color="#966a00" offset="1" ></stop></linearGradient><linearGradient id="SvgjsLinearGradient11236" x1="-20.0606" y1="87.3745" x2="-20.0606" y2="107.9537" gradientTransform="matrix(-1 0 0 1 100 0)" gradientUnits="userSpaceOnUse" class="svga-on-canvas-glasses-gradient-single-2-null"><stop id="SvgjsStop11237" stop-opacity="1" stop-color="#ffba38" offset="0.004166667" ></stop><stop id="SvgjsStop11238" stop-opacity="0.8314" stop-color="#f5b232" offset="0.1721" ></stop><stop id="SvgjsStop11239" stop-opacity="0.541" stop-color="#d99d24" offset="0.4612" ></stop><stop id="SvgjsStop11240" stop-opacity="0.1664" stop-color="#ac7b0c" offset="0.8343" ></stop><stop id="SvgjsStop11241" stop-opacity="0" stop-color="#966a00" offset="1" ></stop></linearGradient><linearGradient id="SvgjsLinearGradient11308" x1="80.0429" y1="88.1094" x2="80.0429" y2="107.7139" gradientUnits="userSpaceOnUse" class="svga-on-canvas-glasses-gradient-single-0-null"><stop id="SvgjsStop11309" stop-opacity="1" stop-color="#bfeaf2" offset="0" ></stop><stop id="SvgjsStop11310" stop-opacity="0.649" stop-color="#a1cae3" offset="0.351" ></stop><stop id="SvgjsStop11311" stop-opacity="0" stop-color="#6086c4" offset="1" ></stop></linearGradient><linearGradient id="SvgjsLinearGradient11313" x1="-19.9571" y1="88.1094" x2="-19.9571" y2="107.7139" gradientTransform="matrix(-1 0 0 1 100 0)" gradientUnits="userSpaceOnUse" class="svga-on-canvas-glasses-gradient-single-1-null"><stop id="SvgjsStop11314" stop-opacity="1" stop-color="#bfeaf2" offset="0" ></stop><stop id="SvgjsStop11315" stop-opacity="0.649" stop-color="#a1cae3" offset="0.351" ></stop><stop id="SvgjsStop11316" stop-opacity="0" stop-color="#6086c4" offset="1" ></stop></linearGradient><linearGradient id="SvgjsLinearGradient11369" x1="81.0032" y1="84.4741" x2="81.0032" y2="109.8612" gradientUnits="userSpaceOnUse" class="svga-on-canvas-glasses-gradient-single-0-null"><stop id="SvgjsStop11370" stop-opacity="1" stop-color="#9ab4d3" offset="0" ></stop><stop id="SvgjsStop11371" stop-opacity="0.7593" stop-color="#93aed1" offset="0.2407" ></stop><stop id="SvgjsStop11372" stop-opacity="0.4009" stop-color="#7e9ecc" offset="0.5991" ></stop><stop id="SvgjsStop11373" stop-opacity="0" stop-color="#6086c4" offset="1" ></stop></linearGradient><linearGradient id="SvgjsLinearGradient11375" x1="-18.9968" y1="84.4741" x2="-18.9968" y2="109.8612" gradientTransform="matrix(-1 0 0 1 100 0)" gradientUnits="userSpaceOnUse" class="svga-on-canvas-glasses-gradient-single-1-null"><stop id="SvgjsStop11376" stop-opacity="1" stop-color="#9ab4d3" offset="0" ></stop><stop id="SvgjsStop11377" stop-opacity="0.7593" stop-color="#93aed1" offset="0.2407" ></stop><stop id="SvgjsStop11378" stop-opacity="0.4009" stop-color="#7e9ecc" offset="0.5991" ></stop><stop id="SvgjsStop11379" stop-opacity="0" stop-color="#6086c4" offset="1" ></stop></linearGradient><linearGradient id="SvgjsLinearGradient11433" x1="80.0682" y1="83.2839" x2="80.0682" y2="108.722" gradientUnits="userSpaceOnUse" class="svga-on-canvas-glasses-gradient-single-0-null"><stop id="SvgjsStop11434" stop-opacity="1" stop-color="#899ba1" offset="0" ></stop><stop id="SvgjsStop11435" stop-opacity="0.6554" stop-color="#7490b3" offset="0.3446" ></stop><stop id="SvgjsStop11436" stop-opacity="0.2966" stop-color="#6589c0" offset="0.7034" ></stop><stop id="SvgjsStop11437" stop-opacity="0" stop-color="#6086c4" offset="1" ></stop></linearGradient><linearGradient id="SvgjsLinearGradient11439" x1="-19.9318" y1="83.2839" x2="-19.9318" y2="108.722" gradientTransform="matrix(-1 0 0 1 100 0)" gradientUnits="userSpaceOnUse" class="svga-on-canvas-glasses-gradient-single-1-null"><stop id="SvgjsStop11440" stop-opacity="1" stop-color="#899ba1" offset="0" ></stop><stop id="SvgjsStop11441" stop-opacity="0.6554" stop-color="#7490b3" offset="0.3446" ></stop><stop id="SvgjsStop11442" stop-opacity="0.2966" stop-color="#6589c0" offset="0.7034" ></stop><stop id="SvgjsStop11443" stop-opacity="0" stop-color="#6086c4" offset="1" ></stop></linearGradient><linearGradient id="SvgjsLinearGradient11501" x1="81.1774" y1="84.6913" x2="81.1774" y2="107.2461" gradientUnits="userSpaceOnUse" class="svga-on-canvas-glasses-gradient-single-0-null"><stop id="SvgjsStop11502" stop-opacity="1" stop-color="#9bc2cf" offset="0" ></stop><stop id="SvgjsStop11503" stop-opacity="0" stop-color="#6086c4" offset="1" ></stop></linearGradient><linearGradient id="SvgjsLinearGradient11505" x1="-18.8226" y1="84.6913" x2="-18.8226" y2="107.2461" gradientTransform="matrix(-1 0 0 1 100 0)" gradientUnits="userSpaceOnUse" class="svga-on-canvas-glasses-gradient-single-1-null"><stop id="SvgjsStop11506" stop-opacity="1" stop-color="#9bc2cf" offset="0" ></stop><stop id="SvgjsStop11507" stop-opacity="0" stop-color="#6086c4" offset="1" ></stop></linearGradient><linearGradient id="SvgjsLinearGradient11549" x1="79.9394" y1="87.3745" x2="79.9394" y2="107.9537" gradientUnits="userSpaceOnUse" class="svga-on-canvas-glasses-gradient-single-0-null"><stop id="SvgjsStop11550" stop-opacity="1" stop-color="#ffba38" offset="0.004166667" ></stop><stop id="SvgjsStop11551" stop-opacity="0.8314" stop-color="#f5b232" offset="0.1721" ></stop><stop id="SvgjsStop11552" stop-opacity="0.541" stop-color="#d99d24" offset="0.4612" ></stop><stop id="SvgjsStop11553" stop-opacity="0.1664" stop-color="#ac7b0c" offset="0.8343" ></stop><stop id="SvgjsStop11554" stop-opacity="0" stop-color="#966a00" offset="1" ></stop></linearGradient><linearGradient id="SvgjsLinearGradient11557" x1="-20.0606" y1="87.3745" x2="-20.0606" y2="107.9537" gradientTransform="matrix(-1 0 0 1 100 0)" gradientUnits="userSpaceOnUse" class="svga-on-canvas-glasses-gradient-single-2-null"><stop id="SvgjsStop11558" stop-opacity="1" stop-color="#ffba38" offset="0.004166667" ></stop><stop id="SvgjsStop11559" stop-opacity="0.8314" stop-color="#f5b232" offset="0.1721" ></stop><stop id="SvgjsStop11560" stop-opacity="0.541" stop-color="#d99d24" offset="0.4612" ></stop><stop id="SvgjsStop11561" stop-opacity="0.1664" stop-color="#ac7b0c" offset="0.8343" ></stop><stop id="SvgjsStop11562" stop-opacity="0" stop-color="#966a00" offset="1" ></stop></linearGradient></defs></svg>